<?xml version="1.0" encoding="UTF-8" standalone="no"?>
<svg
   id="a04021cf-e398-43db-8b10-1415a6cee3ca"
   data-name="Layer 1"
   width="477.57999"
   height="647.09009"
   viewBox="0 0 477.57998 647.09007"
   version="1.1"
   sodipodi:docname="contact.svg"
   inkscape:version="1.1 (c68e22c387, 2021-05-23)"
   xmlns:inkscape="http://www.inkscape.org/namespaces/inkscape"
   xmlns:sodipodi="http://sodipodi.sourceforge.net/DTD/sodipodi-0.dtd"
   xmlns="http://www.w3.org/2000/svg"
   xmlns:svg="http://www.w3.org/2000/svg"
   xmlns:xhtml="http://www.w3.org/1999/xhtml">
  <sodipodi:namedview
     id="namedview337"
     pagecolor="#ffffff"
     bordercolor="#666666"
     borderopacity="1.0"
     inkscape:pageshadow="2"
     inkscape:pageopacity="0.0"
     inkscape:pagecheckerboard="0"
     showgrid="false"
     inkscape:zoom="1.2783903"
     inkscape:cx="238.58128"
     inkscape:cy="323.45363"
     inkscape:window-width="2560"
     inkscape:window-height="1361"
     inkscape:window-x="-9"
     inkscape:window-y="-9"
     inkscape:window-maximized="1"
     inkscape:current-layer="a04021cf-e398-43db-8b10-1415a6cee3ca" />
  <defs
     id="defs2">
    <xhtml:style>*, ::after, ::before { box-sizing: border-box; }
img, svg { vertical-align: middle; }
</xhtml:style>
    <xhtml:style>*, body, html { -webkit-font-smoothing: antialiased; }
img, svg { max-width: 100%; }
</xhtml:style>
  </defs>
  <g
     id="g1320"
     transform="translate(-194.09,-17.909931)">
    <path
       d="m 312.24,616.82 h -83.39 c -10,0.2 -5.75,-16.5 -6.59,-22.26 a 6.59,6.59 0 0 1 6.59,-6.59 h 83.39 z"
       fill="#ffffff"
       id="path4" />
    <rect
       x="223.64999"
       y="596.96002"
       width="88.589996"
       height="1.59"
       fill="#e4e4e4"
       id="rect6" />
    <rect
       x="223.64999"
       y="601.62"
       width="88.589996"
       height="1.59"
       fill="#e4e4e4"
       id="rect8" />
    <rect
       x="223.64999"
       y="610.94"
       width="88.589996"
       height="1.59"
       fill="#e4e4e4"
       id="rect10" />
    <rect
       x="223.64999"
       y="592.29999"
       width="88.589996"
       height="1.59"
       fill="#e4e4e4"
       id="rect12" />
    <rect
       x="223.64999"
       y="606.28003"
       width="88.589996"
       height="1.59"
       fill="#e4e4e4"
       id="rect14" />
    <path
       d="M 312.24,618.22 H 229 c -11.48,0.09 -7.53,-16.54 -8.16,-23.49 a 8.17,8.17 0 0 1 8.16,-8.16 h 83.22 v 2.8 H 229 c -8.54,-0.23 -4.49,15.76 -5.37,20.69 a 5.38,5.38 0 0 0 5.37,5.36 h 83.22 z"
       fill="#bcbec0"
       id="path16" />
    <polygon
       points="305.87,596.96 305.87,612.36 300.26,606.76 294.65,612.36 294.65,596.96 "
       fill="#d1d3d4"
       id="polygon18" />
    <path
       d="m 301.47,647.06 h -83.39 c -10,0.2 -5.75,-16.5 -6.59,-22.25 a 6.59,6.59 0 0 1 6.59,-6.6 h 83.39 z"
       fill="#ffffff"
       id="path20" />
    <rect
       x="212.88"
       y="627.21002"
       width="88.589996"
       height="1.59"
       fill="#e4e4e4"
       id="rect22" />
    <rect
       x="212.88"
       y="631.87"
       width="88.589996"
       height="1.59"
       fill="#e4e4e4"
       id="rect24" />
    <rect
       x="212.88"
       y="641.19"
       width="88.589996"
       height="1.59"
       fill="#e4e4e4"
       id="rect26" />
    <rect
       x="212.88"
       y="622.54999"
       width="88.589996"
       height="1.59"
       fill="#e4e4e4"
       id="rect28" />
    <rect
       x="212.88"
       y="636.53003"
       width="88.589996"
       height="1.59"
       fill="#e4e4e4"
       id="rect30" />
    <path
       d="m 301.47,648.46 h -83.22 c -11.47,0.1 -7.53,-16.53 -8.16,-23.49 a 8.17,8.17 0 0 1 8.16,-8.15 h 83.22 v 2.79 h -83.22 c -8.54,-0.23 -4.49,15.77 -5.37,20.69 a 5.38,5.38 0 0 0 5.37,5.37 h 83.22 z"
       fill="#bcbec0"
       id="path32" />
    <polygon
       points="295.1,627.21 295.1,642.6 289.49,637.01 283.88,642.6 283.88,627.21 "
       fill="#d1d3d4"
       id="polygon34" />
    <rect
       x="284.16"
       y="415.28"
       width="272.89999"
       height="181.39999"
       fill="#000000"
       data-secondary="true"
       id="rect36" />
    <rect
       x="300.66"
       y="425.87"
       width="239.91"
       height="154.02"
       fill="#e4e4e4"
       id="rect38" />
    <rect
       x="400.26001"
       y="590.47998"
       width="40.700001"
       height="50.400002"
       fill="#032631"
       id="rect40" />
    <rect
       x="383.73001"
       y="640.34998"
       width="73.760002"
       height="4.02"
       fill="#032631"
       id="rect42" />
    <rect
       x="322.20999"
       y="443.20999"
       width="61.189999"
       height="61.34"
       fill="#ffffff"
       id="rect44" />
    <path
       d="m 342,477.92 h 21.5 a 5.64,5.64 0 0 1 5.64,5.64 v 21.25 h -32.73 v -21.25 a 5.64,5.64 0 0 1 5.59,-5.64 z"
       fill="#e4e4e4"
       id="path46" />
    <ellipse
       cx="352.79999"
       cy="464.20999"
       rx="10.09"
       ry="10.11"
       fill="#e4e4e4"
       id="ellipse48" />
    <rect
       x="390.14999"
       y="443.20999"
       width="61.189999"
       height="61.34"
       fill="#ffffff"
       id="rect50" />
    <path
       d="m 410,477.92 h 21.5 a 5.64,5.64 0 0 1 5.64,5.64 v 21.25 h -32.79 v -21.25 a 5.64,5.64 0 0 1 5.65,-5.64 z"
       fill="#e4e4e4"
       id="path52" />
    <ellipse
       cx="420.73999"
       cy="464.20999"
       rx="10.09"
       ry="10.11"
       fill="#e4e4e4"
       id="ellipse54" />
    <rect
       x="458.09"
       y="443.20999"
       width="61.189999"
       height="61.34"
       fill="#ffffff"
       id="rect56" />
    <path
       d="m 477.94,477.92 h 21.5 a 5.64,5.64 0 0 1 5.64,5.64 v 21.25 H 472.3 v -21.25 a 5.64,5.64 0 0 1 5.64,-5.64 z"
       fill="#e4e4e4"
       id="path58" />
    <ellipse
       cx="488.69"
       cy="464.20999"
       rx="10.09"
       ry="10.11"
       fill="#e4e4e4"
       id="ellipse60" />
    <rect
       x="322.20999"
       y="510.72"
       width="61.189999"
       height="61.34"
       fill="#ffffff"
       id="rect62" />
    <path
       d="m 342,545.44 h 21.5 a 5.64,5.64 0 0 1 5.64,5.64 v 21.25 h -32.73 v -21.25 a 5.64,5.64 0 0 1 5.59,-5.64 z"
       fill="#00516e"
       id="path64" />
    <ellipse
       cx="352.79999"
       cy="531.71997"
       rx="10.09"
       ry="10.11"
       fill="#00516e"
       id="ellipse66" />
    <rect
       x="390.14999"
       y="510.72"
       width="61.189999"
       height="61.34"
       fill="#ffffff"
       id="rect68" />
    <path
       d="m 410,545.44 h 21.5 a 5.64,5.64 0 0 1 5.64,5.64 v 21.25 h -32.79 v -21.25 a 5.64,5.64 0 0 1 5.65,-5.64 z"
       fill="#00516e"
       id="path70" />
    <ellipse
       cx="420.73999"
       cy="531.71997"
       rx="10.09"
       ry="10.11"
       fill="#00516e"
       id="ellipse72" />
    <rect
       x="458.09"
       y="510.72"
       width="61.189999"
       height="61.34"
       fill="#ffffff"
       id="rect74" />
    <path
       d="m 477.94,545.44 h 21.5 a 5.64,5.64 0 0 1 5.64,5.64 v 21.25 H 472.3 v -21.25 a 5.64,5.64 0 0 1 5.64,-5.64 z"
       fill="#00516e"
       id="path76" />
    <ellipse
       cx="488.69"
       cy="531.71997"
       rx="10.09"
       ry="10.11"
       fill="#00516e"
       id="ellipse78" />
    <rect
       x="194.09"
       y="649.23999"
       width="477.57999"
       height="15.44"
       fill="#d1d3d4"
       id="rect80" />
    <path
       d="M 410.76,501.55 A 22.18,22.18 0 0 0 455,499.62 v -4.31 0 -8.47 -5.23 l -0.13,-23.73 -39.7,-1.55 -2,19 -1.43,13.46 -0.88,8.61 a 21.34,21.34 0 0 0 -0.1,4.15 z"
       fill="#f9b499"
       id="path82" />
    <path
       d="m 652.37,274 v 93.9 A 8.24,8.24 0 0 1 644,376 l -84.86,-0.18 h -14.7 L 523.73,376 a 8.24,8.24 0 0 1 -8.41,-8.06 V 274 a 8.23,8.23 0 0 1 8.41,-8.05 H 644 a 8.24,8.24 0 0 1 8.37,8.05 z"
       fill="#ffffff"
       stroke="#2f2e41"
       stroke-miterlimit="10"
       id="path84" />
    <rect
       x="523.03998"
       y="273.79001"
       width="119.72"
       height="91.949997"
       rx="5.3299999"
       fill="#e4e4e4"
       id="rect86" />
    <rect
       x="523.03998"
       y="298.19"
       width="119.72"
       height="25.219999"
       fill="#d1d3d4"
       id="rect88" />
    <path
       d="m 624.08,365.67 h -13.32 v -14.36 l 10.41,2.41 a 92,92 0 0 1 2.91,11.95 z"
       fill="#f9b499"
       id="path90" />
    <path
       d="m 560.14,351.31 v 14.36 h -12.57 c 0.41,-3.32 0.81,-5.91 1.18,-8 z"
       fill="#f9b499"
       id="path92" />
    <path
       d="m 610.83,344.44 c 0,5.67 0,15.53 0,21.23 h -50.78 v -14.38 c -1,-9.14 2,-19.12 11.61,-22 13.87,-3.17 37.82,-3.93 39.17,15.15 z"
       fill="#f34a12"
       data-primary="true"
       id="path94" />
    <path
       d="m 585.9,336.12 c 8.24,0 11.7,-6.9 11.43,-7.23 -7.41,-1.62 -11,-1 -17.22,-1.12 0,0 -2.47,0.37 -5.64,0.94 0,0 3.2,7.45 11.43,7.41 z"
       fill="#f9b499"
       id="path96" />
    <path
       d="m 579.4,329 c 0.74,7.75 13,6.91 12.56,-1 -0.11,-3.14 -0.34,-8.67 -0.46,-11.86 l -11.29,-0.07 c -0.21,3.86 -0.85,9.07 -0.81,12.93 z"
       fill="#f9b499"
       id="path98" />
    <path
       d="m 557.12,314.35 -0.13,-0.1 v 0 z"
       fill="#002e3b"
       id="path100" />
    <path
       d="m 568.45,297.6 c 3.7,23.69 31.07,25.06 35.36,1.43 2.15,-0.55 -0.06,-13.83 -9,-15.64 -11.91,-5.15 -18.2,0.28 -21.9,4.17 a 30.27,30.27 0 0 0 -1.82,2.67 c -2.34,1.92 -3.57,4.27 -2.64,7.37 z"
       fill="#000000"
       data-secondary="true"
       id="path102" />
    <path
       d="m 599.43,306.14 c 7.32,-9.12 9.76,9.53 0.24,6.76 -3.26,-1.31 -0.24,-6.76 -0.24,-6.76 z"
       fill="#f9b499"
       id="path104" />
    <path
       d="m 573.16,305.64 c -7,-9.4 -10.11,9.16 -0.5,6.75 3.34,-1.19 0.5,-6.75 0.5,-6.75 z"
       fill="#f9b499"
       id="path106" />
    <path
       d="m 586,323.41 c 12.27,-0.13 13.1,-11.46 13.92,-20.91 a 13.6,13.6 0 1 0 -27,-0.52 c 0.39,9.48 0.78,20.84 13.08,21.43 z"
       fill="#f9b499"
       id="path108" />
    <path
       d="m 573.21,305.64 c 0.92,-4.4 0.92,-17.33 11.5,-14.3 7.35,2.91 16.29,4.54 14.81,14.11 0,0 3.85,-6.62 1.86,-10.44 -1.99,-3.82 -4.66,-9 -8.68,-10.17 -4.02,-1.17 -18,4.2 -18,4.2 a 24.65,24.65 0 0 0 -1.49,16.6 z"
       fill="#000000"
       data-secondary="true"
       id="path110" />
    <path
       d="m 574.56,297.43 a 15.51,15.51 0 0 1 14.5,-4.52 c 0,0 -9.99,-10.47 -14.5,4.52 z"
       fill="#000000"
       data-secondary="true"
       id="path112" />
    <path
       d="m 599.81,300.18 c 0,0 -1.65,5.23 -0.51,9.59 0.04,0.23 4.1,-11.69 0.51,-9.59 z"
       fill="#000000"
       data-secondary="true"
       id="path114" />
    <path
       d="m 573.06,299.67 c 0,0 1.45,5.29 0.14,9.6 -0.04,0.22 -3.65,-11.84 -0.14,-9.6 z"
       fill="#000000"
       data-secondary="true"
       id="path116" />
    <path
       d="m 571.66,329.25 c 0,0 -16.32,0 -27.08,28.43 l 15.47,7.32 c 0,0 10.73,-29.37 11.61,-35.75 z"
       fill="#f34a12"
       data-primary="true"
       id="path118" />
    <path
       d="m 599,329.25 c 0,0 17.25,2 26.18,27.33 l -14.32,9.09 c 0,0 -11.01,-30.04 -11.86,-36.42 z"
       fill="#f34a12"
       data-primary="true"
       id="path120" />
    <path
       d="m 627.68,288.93 h -10.82 c -5.85,-0.05 -9.63,5.36 -8.92,10.91 0.23,9.36 9.2,9.17 16.42,9 v 3.8 l 3.93,-3.88 c 11.3,-0.54 11.1,-20.01 -0.61,-19.83 z"
       fill="#ffffff"
       id="path122" />
    <line
       x1="511.41"
       y1="415.23999"
       x2="530.90997"
       y2="377.76999"
       fill="none"
       stroke="#2f2e41"
       stroke-linecap="round"
       stroke-linejoin="round"
       stroke-dasharray="4"
       id="line124" />
    <path
       d="m 638.84,106.51 v 111.2 c 0,5.26 -4.53,9.53 -10.13,9.53 L 526.47,227 H 508.8 l -24.95,0.21 c -5.6,0 -10.13,-4.27 -10.13,-9.53 V 106.51 c 0,-5.27 4.53,-9.54 10.13,-9.54 h 144.86 c 5.6,0.03 10.13,4.27 10.13,9.54 z"
       fill="#ffffff"
       stroke="#2f2e41"
       stroke-miterlimit="10"
       id="path126" />
    <path
       d="m 489.44,106.43 h 131.39 a 6.43,6.43 0 0 1 6.43,6.43 v 97.93 a 6.43,6.43 0 0 1 -6.43,6.43 H 489.44 a 6.42,6.42 0 0 1 -6.42,-6.42 v -97.94 a 6.43,6.43 0 0 1 6.43,-6.43 z"
       fill="#e4e4e4"
       id="path128" />
    <rect
       x="483.01999"
       y="135.83"
       width="144.25"
       height="5.4400001"
       fill="#d1d3d4"
       id="rect130" />
    <rect
       x="483.01999"
       y="158.16"
       width="144.25"
       height="5.4400001"
       fill="#d1d3d4"
       id="rect132" />
    <path
       d="m 604.87,217.14 h -16.08 v -17.35 c 0,0 12.56,2.91 12.56,2.92 a 108.34,108.34 0 0 1 3.52,14.43 z"
       fill="#f2b5aa"
       id="path134" />
    <path
       d="m 527.65,199.79 v 17.35 h -15.19 c 0.5,-4 1,-7.14 1.42,-9.63 z"
       fill="#f2b5aa"
       id="path136" />
    <path
       d="m 588.8,191.56 c 0,6.83 0,18.72 0,25.58 h -61.18 v -17.32 c -1.2,-11 2.42,-23 14,-26.5 16.69,-3.83 45.55,-4.75 47.18,18.24 z"
       fill="#f34a12"
       data-primary="true"
       id="path138" />
    <path
       d="m 558.76,181.45 c 10,0 14.13,-8.34 13.8,-8.73 -8.95,-2 -13.32,-1.24 -20.79,-1.36 0,0 -3,0.45 -6.82,1.14 0.05,0 3.87,8.99 13.81,8.95 z"
       fill="#f9b499"
       id="path140" />
    <path
       d="m 550.9,172.81 c 0.91,9.35 15.68,8.34 15.17,-1.17 -0.13,-3.79 -0.4,-10.46 -0.55,-14.32 l -13.64,-0.08 c -0.23,4.66 -1.02,10.94 -0.98,15.57 z"
       fill="#f9b499"
       id="path142" />
    <path
       d="m 524.09,155.31 -0.17,-0.13 v 0 z"
       fill="#002e3b"
       id="path144" />
    <path
       d="m 537.73,135.13 c 4.46,28.53 37.44,30.18 42.61,1.71 2.58,-0.65 -0.07,-16.66 -10.89,-18.84 -14.36,-6.2 -21.93,0.34 -26.39,5 0,0 -1.54,2 -2.19,3.22 -2.77,2.34 -4.26,5.17 -3.14,8.91 z"
       fill="#000000"
       data-secondary="true"
       id="path146" />
    <path
       d="m 575.06,145.42 c 8.82,-11 11.76,11.48 0.29,8.14 -3.93,-1.56 -0.29,-8.14 -0.29,-8.14 z"
       fill="#f9b499"
       id="path148" />
    <path
       d="m 543.4,144.81 c -8.39,-11.32 -12.18,11 -0.59,8.13 3.98,-1.43 0.59,-8.13 0.59,-8.13 z"
       fill="#f9b499"
       id="path150" />
    <path
       d="m 558.83,166.22 c 14.79,-0.16 15.78,-13.8 16.78,-25.19 a 16.39,16.39 0 1 0 -32.59,-0.62 c 0.57,11.41 1.04,25.1 15.81,25.81 z"
       fill="#f9b499"
       id="path152" />
    <path
       d="m 543.47,144.82 c 1.11,-5.31 1.1,-20.88 13.85,-17.24 8.86,3.51 19.63,5.48 17.85,17 0,0 4.64,-8 2.24,-12.57 -2.4,-4.57 -5.62,-10.85 -10.46,-12.26 -4.84,-1.41 -21.66,5.07 -21.66,5.07 a 29.63,29.63 0 0 0 -1.82,20 z"
       fill="#000000"
       data-secondary="true"
       id="path154" />
    <path
       d="m 545.09,134.92 a 18.71,18.71 0 0 1 17.48,-5.45 c 0,0 -12.05,-12.62 -17.48,5.45 z"
       fill="#000000"
       data-secondary="true"
       id="path156" />
    <path
       d="m 575.52,138.23 c 0,0 -2,6.3 -0.62,11.56 0.1,0.26 4.94,-14.09 0.62,-11.56 z"
       fill="#000000"
       data-secondary="true"
       id="path158" />
    <path
       d="m 543.28,137.62 c 0,0 1.75,6.37 0.18,11.57 -0.05,0.25 -4.4,-14.27 -0.18,-11.57 z"
       fill="#000000"
       data-secondary="true"
       id="path160" />
    <path
       d="m 541.6,173.26 c 0,0 -19.66,0 -32.63,34.25 l 18.65,8.83 c 0,0 12.92,-35.4 13.98,-43.08 z"
       fill="#f34a12"
       data-primary="true"
       id="path162" />
    <path
       d="m 574.52,173.26 c 0,0 20.78,2.38 31.54,32.92 l -17.26,11 c 0,0 -13.23,-36.24 -14.28,-43.92 z"
       fill="#f34a12"
       data-primary="true"
       id="path164" />
    <path
       d="m 609.09,148.57 c -8.93,-0.07 -23.45,2.35 -23.78,-10.75 -0.85,-6.68 3.7,-13.21 10.75,-13.14 h 13 c 14.4,-0.22 14.4,24.11 0.03,23.89 z"
       fill="#ffffff"
       id="path166" />
    <polygon
       points="605.1,153.22 613.02,145.41 605.1,147.33 "
       fill="#ffffff"
       id="polygon168" />
    <line
       x1="513.13"
       y1="228.75999"
       x2="475.32001"
       y2="351.26999"
       fill="none"
       stroke="#2f2e41"
       stroke-linecap="round"
       stroke-linejoin="round"
       stroke-dasharray="4"
       id="line170" />
    <line
       x1="327.73999"
       y1="415.20999"
       x2="298.38"
       y2="351.26999"
       fill="none"
       stroke="#2f2e41"
       stroke-linecap="round"
       stroke-linejoin="round"
       stroke-dasharray="4"
       id="line172" />
    <path
       d="m 398.5,214.24 v 125.27 c 0,5.94 -5.15,10.75 -11.5,10.75 L 270.91,350 h -20.05 l -28.33,0.24 c -6.35,0 -11.5,-4.81 -11.5,-10.75 V 214.24 c 0,-5.94 5.15,-10.75 11.5,-10.75 H 387 c 6.35,0 11.5,4.81 11.5,10.75 z"
       fill="#ffffff"
       stroke="#2f2e41"
       stroke-miterlimit="10"
       id="path174" />
    <path
       d="m 228.88,214.23 h 149.18 a 7.3,7.3 0 0 1 7.3,7.3 v 111.19 a 7.3,7.3 0 0 1 -7.3,7.3 H 228.88 a 7.29,7.29 0 0 1 -7.29,-7.29 v -111.2 a 7.3,7.3 0 0 1 7.29,-7.3 z"
       fill="#e4e4e4"
       id="path176" />
    <rect
       x="221.58"
       y="265.94"
       width="163.77"
       height="20.969999"
       fill="#d1d3d4"
       id="rect178" />
    <rect
       x="221.58"
       y="315.72"
       width="163.77"
       height="6.1700001"
       fill="#ffffff"
       id="rect180" />
    <path
       d="m 359.93,339.93 h -18.26 v -19.7 l 14.27,3.31 a 123.33,123.33 0 0 1 3.99,16.39 z"
       fill="#f9b499"
       id="path182" />
    <path
       d="m 272.26,320.23 v 19.7 H 255 c 0.56,-4.55 1.1,-8.11 1.61,-10.94 z"
       fill="#f9b499"
       id="path184" />
    <path
       d="m 341.69,310.88 c 0,7.76 0,21.25 0,29.05 h -69.47 v -19.67 c -1.36,-12.51 2.76,-26.15 15.88,-30.09 18.97,-4.34 51.73,-5.39 53.59,20.71 z"
       fill="#f34a12"
       data-primary="true"
       id="path186" />
    <path
       d="m 307.58,299.4 c 11.3,0 16,-9.46 15.67,-9.91 -10.16,-2.22 -15.13,-1.41 -23.61,-1.54 0,0 -3.4,0.51 -7.74,1.3 0,0 4.39,10.2 15.68,10.15 z"
       fill="#f9b499"
       id="path188" />
    <path
       d="m 298.66,289.59 c 1,10.62 17.8,9.48 17.22,-1.32 -0.15,-4.31 -0.46,-11.88 -0.62,-16.26 l -15.49,-0.09 c -0.26,5.29 -1.16,12.42 -1.11,17.67 z"
       fill="#f9b499"
       id="path190" />
    <path
       d="m 268.21,269.73 -0.19,-0.15 v 0 z"
       fill="#f58300"
       opacity="0.5"
       id="path192" />
    <path
       d="m 283.7,246.81 c 5.07,32.4 30,33.41 47.42,5.54 6.49,-10.39 -20,-45.1 -43.86,-15.63 -2.58,3.19 -4.82,5.85 -3.56,10.09 z"
       fill="#000000"
       data-secondary="true"
       id="path194" />
    <path
       d="m 326.09,258.49 c 10,-12.48 13.34,13 0.33,9.25 -4.42,-1.74 -0.33,-9.25 -0.33,-9.25 z"
       fill="#f9b499"
       id="path196" />
    <path
       d="m 290.14,257.81 c -9.53,-12.86 -13.83,12.52 -0.67,9.22 4.53,-1.61 0.67,-9.22 0.67,-9.22 z"
       fill="#f9b499"
       id="path198" />
    <path
       d="m 307.66,282.11 c 16.79,-0.17 17.91,-15.67 19,-28.6 a 18.6,18.6 0 1 0 -37,-0.7 c 0.7,12.96 1.23,28.49 18,29.3 z"
       fill="#f9b499"
       id="path200" />
    <path
       d="m 290.26,257.85 c 1.26,-6 1.26,-23.71 15.73,-19.57 10.06,4 22.28,6.22 20.26,19.31 0,0 5.27,-9.06 2.56,-14.28 -2.71,-5.22 -6.39,-12.32 -11.89,-13.92 -5.5,-1.6 -24.59,5.75 -24.59,5.75 a 33.72,33.72 0 0 0 -2.07,22.71 z"
       fill="#000000"
       data-secondary="true"
       id="path202" />
    <path
       d="m 326.61,250.34 c 0,0 -2.26,7.15 -0.71,13.12 0.1,0.29 5.62,-16 0.71,-13.12 z"
       fill="#000000"
       data-secondary="true"
       id="path204" />
    <path
       d="m 290,249.64 c 0,0 2,7.24 0.2,13.14 -0.05,0.29 -4.99,-16.2 -0.2,-13.14 z"
       fill="#000000"
       data-secondary="true"
       id="path206" />
    <path
       d="m 288.1,290.11 c 0,0 -22.33,0 -37.05,38.88 l 21.17,10 c 0,0 14.68,-40.16 15.88,-48.88 z"
       fill="#f34a12"
       data-primary="true"
       id="path208" />
    <path
       d="m 325.47,290.11 c 0,0 23.6,2.7 35.82,37.38 l -19.6,12.44 c 0,0 -15.02,-41.1 -16.22,-49.82 z"
       fill="#f34a12"
       data-primary="true"
       id="path210" />
    <path
       d="m 295.57,240.29 c 0,0 7.61,4.89 13.77,5.51 6.16,0.62 1.86,-4.21 1.86,-4.21 0,0 6,6.11 9.88,6.11 3.88,0 1.21,-4.19 1.21,-4.19 0,0 -14,-9.62 -16.07,-9.47 -2.07,0.15 -10.66,-0.4 -10.65,6.25 z"
       fill="#000000"
       data-secondary="true"
       id="path212" />
    <path
       d="m 364.73,235 h -14.8 c -8,-0.07 -13.17,7.33 -12.21,14.92 0.33,12.8 12.59,12.54 22.47,12.28 v 5.2 l 5.36,-5.28 C 381,261.39 380.76,234.71 364.73,235 Z"
       fill="#ffffff"
       id="path214" />
    <path
       d="m 436.43,28 v 111.75 c 0,5.3 -4.6,9.59 -10.27,9.59 H 279.44 c -5.67,0 -10.27,-4.29 -10.27,-9.59 V 28 c 0,-5.3 4.6,-9.59 10.27,-9.59 h 146.72 c 5.67,-0.02 10.27,4.27 10.27,9.59 z"
       fill="#ffffff"
       stroke="#2f2e41"
       stroke-miterlimit="10"
       id="path216" />
    <rect
       x="279.73001"
       y="27.940001"
       width="146.14"
       height="112.24"
       rx="6.5100002"
       fill="#e4e4e4"
       id="rect218" />
    <rect
       x="279.73001"
       y="57.73"
       width="146.14"
       height="34.009998"
       fill="#d1d3d4"
       id="rect220" />
    <rect
       x="279.73001"
       y="80.349998"
       width="146.14"
       height="34.009998"
       fill="#ffffff"
       id="rect222" />
    <polygon
       points="306.54,140.19 307.24,135.36 313.16,140.19 "
       fill="#f9b499"
       id="polygon224" />
    <path
       d="m 367.37,62.7 c 0,0 2,24.24 -1.59,36.13 l -40.88,2.74 c 1.74,-18.88 2.75,-43.43 2.75,-43.43 z"
       fill="#000000"
       data-secondary="true"
       id="path226" />
    <path
       d="m 332,65.16 c -0.1,8.09 -2.21,29.84 -4.59,33.67 h 34.86 c 0,0 4.85,-11 3,-23.26 C 363.42,63.31 332.06,60.72 332,65.16 Z"
       fill="#000000"
       data-secondary="true"
       id="path228" />
    <path
       d="m 375.78,116.64 c -0.34,5.68 -1.07,18 -1.4,23.55 H 322 c 0.45,-13.42 -5.49,-40.1 11.94,-44.33 4.36,-1.68 14.73,-0.86 19.44,-1 11.82,-0.25 22.3,9.92 22.4,21.78 z"
       fill="#f34a12"
       data-primary="true"
       id="path230" />
    <path
       d="m 347.19,106.81 c -12.27,-1 -13.27,-11 -13.27,-11 7,-2.15 22.2,-1.46 26.51,0.15 0,-0.03 -0.97,11.84 -13.24,10.85 z"
       fill="#f9b499"
       id="path232" />
    <path
       d="m 339.59,95.34 c 0.87,8.94 15,8 14.5,-1.12 -0.12,-3.62 -0.38,-10 -0.52,-13.69 l -13,-0.08 c -0.26,4.46 -1.02,10.47 -0.98,14.89 z"
       fill="#f9b499"
       id="path234" />
    <path
       d="m 367.37,62.7 c -0.55,26.32 -39.32,25.5 -39.95,-0.27 0,-5.6 0.54,-9.54 6.63,-14 6.51,-14.6 34.16,-4.86 33.32,14.27 z"
       fill="#000000"
       data-secondary="true"
       id="path236" />
    <path
       d="m 362.69,70.86 c 8.51,-10.52 11.14,11.06 0.27,7.79 -3.75,-1.51 -0.27,-7.79 -0.27,-7.79 z"
       fill="#f9b499"
       id="path238" />
    <path
       d="m 332.42,70.29 c -8.1,-10.84 -11.55,10.62 -0.57,7.76 3.81,-1.36 0.57,-7.76 0.57,-7.76 z"
       fill="#f9b499"
       id="path240" />
    <path
       d="m 347.17,90.75 c 14.14,-0.15 15.09,-13.19 16,-24.08 a 15.66,15.66 0 1 0 -31.15,-0.6 c 0.58,10.93 1.04,24 15.15,24.68 z"
       fill="#f9b499"
       id="path242" />
    <path
       d="m 335,55.56 a 12.68,12.68 0 0 0 10.79,7.55 c 1.88,-0.11 3.11,-1.08 0.65,-4.33 4.64,3.21 14.34,7.69 10.26,-3.71 0,0 4.14,12.65 6.65,10.4 2.51,-2.25 -1.41,-12.8 -9.23,-15.35 -7.82,-2.55 -16.99,-1.56 -19.12,5.44 z"
       fill="#000000"
       data-secondary="true"
       id="path244" />
    <path
       d="m 331.53,64.69 c 0,0 2.05,5.6 0.4,9 -6.21,-5.87 -1.93,-15.94 -0.4,-9 z"
       fill="#000000"
       data-secondary="true"
       id="path246" />
    <path
       d="m 362.76,67.07 c 0,0 -1.4,5.13 0.25,8.5 5.67,-6.79 1.73,-16.07 -0.25,-8.5 z"
       fill="#000000"
       data-secondary="true"
       id="path248" />
    <path
       d="m 335,55.56 a 16.79,16.79 0 0 1 -3,9.1 c -2.06,2.71 -2.8,-9.12 3,-9.1 z"
       fill="#000000"
       data-secondary="true"
       id="path250" />
    <path
       d="m 333.58,96.32 c -1.15,9.76 -7.78,31.44 -11.17,43.87 h -9.25 c -1.84,-1.51 -6.86,-5.59 -8.63,-7 6.01,-13.67 12.28,-33.54 29.05,-36.87 z"
       fill="#f34a12"
       data-primary="true"
       id="path252" />
    <polygon
       points="388.31,140.19 387.6,135.36 381.68,140.19 "
       fill="#f9b499"
       id="polygon254" />
    <path
       d="m 361.26,96.32 c 1.16,9.76 7.78,31.44 11.17,43.87 h 9.25 l 8.63,-7 C 384.3,119.52 378,99.65 361.26,96.32 Z"
       fill="#f34a12"
       data-primary="true"
       id="path256" />
    <path
       d="m 310.56,67.85 c -10.24,0.15 -24.05,1.86 -23.47,-12.8 0.35,-13.09 14.3,-11.28 23.47,-11.18 14.8,-0.23 14.81,24.2 0,23.98 z"
       fill="#ffffff"
       id="path258" />
    <polygon
       points="306.95,72.41 302.82,62.41 296.2,66.16 "
       fill="#ffffff"
       id="polygon260" />
    <line
       x1="407.17001"
       y1="148.87"
       x2="407.39001"
       y2="150.86"
       fill="none"
       stroke="#2f2e41"
       stroke-linecap="round"
       stroke-linejoin="round"
       id="line262" />
    <line
       x1="407.85001"
       y1="154.87"
       x2="428.45999"
       y2="337.41"
       fill="none"
       stroke="#2f2e41"
       stroke-linecap="round"
       stroke-linejoin="round"
       stroke-dasharray="4.04, 4.04"
       id="line264" />
    <line
       x1="428.69"
       y1="339.42001"
       x2="428.91"
       y2="341.39999"
       fill="none"
       stroke="#2f2e41"
       stroke-linecap="round"
       stroke-linejoin="round"
       id="line266" />
    <path
       d="m 563.38,601.21 2.1,3.32 a 26.84,26.84 0 0 1 -8.09,36.85 v 0 a 26.84,26.84 0 0 1 -31.72,-1.88 l -11,-9.11 z"
       fill="#f2b5aa"
       id="path268" />
    <path
       d="m 565.82,632.64 c 27,-34.7 10.09,-168.41 10.09,-168.41 H 544.77 L 523.15,627.3 c 0,0 36.58,13.16 42.67,5.34 z"
       fill="#f9b499"
       id="path270" />
    <path
       d="m 480.49,425.81 c 7.24,-13.58 16.8,-14.2 21.13,1.83 4.33,16.03 -8.62,29.27 -19.42,24.43 -10.8,-4.84 -1.71,-26.26 -1.71,-26.26 z"
       fill="#f9b499"
       id="path272" />
    <path
       d="m 385.74,425.8 c -7.24,-13.57 -16.78,-14.19 -21.11,1.83 -4.33,16.02 8.57,29.24 19.37,24.37 10.8,-4.87 1.74,-26.2 1.74,-26.2 z"
       fill="#f9b499"
       id="path274" />
    <path
       d="M 525.42,665 H 335.59 l 1.65,-31.93 V 633 l 0.1,-2.1 v 0 l 2.9,-56.27 0.73,-14.14 a 59.37,59.37 0 0 1 40.77,-53.15 c 1.76,-0.57 3.58,-1.07 5.44,-1.48 1.86,-0.41 3.67,-0.77 5.49,-1.11 h 0.12 c 8.6,-1.56 15.42,-2.33 18,-2.61 v 0 L 412,502 h 36.29 c 0,0 2.47,0.23 6.55,0.76 4.08,0.53 10,1.41 16.55,2.71 l 0.57,0.12 v 0 a 53.77,53.77 0 0 1 6.46,1.7 v 0 a 59.29,59.29 0 0 1 40.79,53.14 l 0.75,12.64 1.43,24.34 0.75,12.59 c 0,0 0,0 0,0 l 0.9,15.33 0.11,1.73 v 0.21 0 l 0.27,4.44 0.37,6.2 v 0 l 1.21,19.2 z"
       fill="#f34a12"
       data-primary="true"
       id="path276" />
    <path
       d="m 375.9,400.35 c 8.86,34.89 0.49,84.14 54.38,85.61 59.41,1.62 55.81,-49.66 61.77,-83.35 7.14,-2 16.95,-6.93 11.39,-11.1 -5.56,-4.17 -16.6,-13.67 -16.6,-13.67 14.41,-4.67 16.64,-22.78 9.05,-19.12 -7.59,3.66 -17.31,0.18 -35.7,-7.64 h -0.05 c -36.46,-15.89 -60.39,2.81 -69.22,11.89 -0.47,0.48 -3.63,4.15 -3.74,4.29 l -0.05,0.08 a 106.93,106.93 0 0 0 -5.79,9.05 58,58 0 0 0 -4.44,11.37 c -1.4,5.1 -2.37,7.18 -1,12.59 z"
       fill="#000000"
       data-secondary="true"
       id="path278" />
    <path
       d="m 434.65,488.73 v 0 a 43.9,43.9 0 0 0 43.2,-39.3 l 3.32,-35.24 a 47.57,47.57 0 0 0 -47.86,-52 v 0 a 47.56,47.56 0 0 0 -46.74,53 l 4.05,35.17 a 43.91,43.91 0 0 0 44.03,38.37 z"
       fill="#000000"
       data-secondary="true"
       id="path280" />
    <path
       d="m 443,488.73 v 0 a 43.9,43.9 0 0 0 43.2,-39.3 l 3.32,-35.24 a 47.57,47.57 0 0 0 -47.86,-52 v 0 a 47.56,47.56 0 0 0 -46.74,53 l 4.08,35.16 a 43.91,43.91 0 0 0 44,38.38 z"
       fill="#000000"
       data-secondary="true"
       id="path282" />
    <path
       d="m 383.68,386.09 c 0,0 -1.37,-9.39 -15.65,-14.71 -14.28,-5.32 3.06,28.18 15.65,14.71 z"
       fill="#000000"
       data-secondary="true"
       id="path284" />
    <path
       d="m 376.14,375.69 c 0,0 -6,-22.55 2.2,-28.3 8.2,-5.75 14.27,22 4.32,32.56 -9.95,10.56 -6.52,-4.26 -6.52,-4.26 z"
       fill="#000000"
       data-secondary="true"
       id="path286" />
    <path
       d="m 381.76,507.16 c 0,0 -58.59,5.55 -101.28,96.84 L 341,632.64 c 0,0 37.68,-103.1 40.76,-125.48 z"
       fill="#f34a12"
       data-primary="true"
       id="path288" />
    <path
       d="m 477.63,507.16 c 0,0 58.74,8.1 91.9,89.35 L 519.19,635 c 0,0 -38.48,-105.46 -41.56,-127.84 z"
       fill="#f34a12"
       data-primary="true"
       id="path290" />
    <path
       d="m 392.67,504.74 c 0,0 45.27,-11.76 79.27,0.84 0,0 -39.56,37.6 -79.27,-0.84 z"
       fill="#f9b499"
       id="path292" />
    <path
       d="m 548.24,421.11 c 0,0 1.82,-17 4,-28.46 1,-5.45 8,-5.08 8.61,-0.44 1,-7 7.31,-5.5 8.93,-3.34 a 5.34,5.34 0 0 1 1,3.67 3.86,3.86 0 0 1 5.66,-1.53 c 3.45,2.42 2.12,12.7 2.12,12.7 0,0 1.14,-3.47 4.27,-2.84 2.65,0.54 3.75,3.31 3.48,10.78 -0.27,7.47 -2,18.88 -1.47,25.42 0.53,6.54 2.32,20.66 -10.72,33.58 -11.57,11.46 -33.12,3.15 -35.31,-13.17 -1.33,-9.88 -1.89,-14 -1.15,-23.35 0.81,-10.32 0.58,-21.34 4.95,-21.79 3.93,-0.41 4.84,3.05 5.19,5.43 z"
       fill="#f9b499"
       id="path294" />
    <path
       d="m 291.29,609.09 v 0 a 23.21,23.21 0 0 0 20.93,33.39 l 24.51,-0.07 0.63,-11.51 z"
       fill="#f9b499"
       id="path296" />
    <path
       d="M 549,650.63 A 48.34,48.34 0 0 1 546.81,665 H 314.89 a 48.26,48.26 0 0 1 -2,-10.43 l -0.32,-3.94 q 0,-4.11 0.27,-8.15 a 118.3,118.3 0 0 1 57.16,-93.22 118.32,118.32 0 0 1 119,-1.54 118.43,118.43 0 0 1 25.4,19.33 c 2,2 3.83,4 5.64,6 a 119.25,119.25 0 0 1 8.82,11.51 117.56,117.56 0 0 1 14.14,28.87 c 0.3,0.9 0.59,1.8 0.85,2.71 a 115.73,115.73 0 0 1 4,17.94 q 0.76,5.37 1,10.92 c 0.08,1.86 0.15,3.75 0.15,5.63 z"
       fill="#000000"
       data-secondary="true"
       id="path298" />
    <path
       d="M 549,650.63 A 48.34,48.34 0 0 1 546.81,665 h -26.67 a 48.55,48.55 0 0 0 9.29,-22.89 60.8,60.8 0 0 0 0.37,-12.62 c 0,-0.7 -0.1,-1.42 -0.18,-2.14 v -0.3 c -0.17,-1.76 -0.4,-3.5 -0.67,-5.19 a 88.94,88.94 0 0 0 -3.23,-13.71 v 0 a 80.2,80.2 0 0 0 -4.27,-10.71 86.43,86.43 0 0 0 -26.5,-31.62 v 0 c -36.13,-27.16 -87.06,-28.31 -87.06,-28.31 q 2.68,-2 5.36,-3.77 a 118.06,118.06 0 0 1 101.14,33.32 c 2,2 3.83,4 5.64,6 a 119.25,119.25 0 0 1 8.82,11.51 117.56,117.56 0 0 1 14.15,28.86 c 0.3,0.9 0.59,1.8 0.85,2.71 a 115.73,115.73 0 0 1 4,17.94 q 0.76,5.37 1,10.92 c 0.08,1.86 0.15,3.75 0.15,5.63 z"
       opacity="0.2"
       id="path300" />
    <path
       d="M 627.29,612.83 H 626 v -4.13 h -40.16 v 17.39 a 20.07,20.07 0 0 0 19.55,20.06 h 0.51 a 19.9,19.9 0 0 0 10.25,-2.82 20.3,20.3 0 0 0 7.22,-7.39 h 3.92 a 11.56,11.56 0 0 0 0,-23.12 z m 0,18.14 h -1.94 a 20.14,20.14 0 0 0 0.62,-4.88 v -8.29 h 1.32 a 6.59,6.59 0 0 1 0,13.17 z"
       fill="#d1d3d4"
       id="path302" />
    <path
       d="m 580.49,643.06 h 52.43 v 4.06 a 2.13,2.13 0 0 1 -2.13,2.13 h -48.16 a 2.13,2.13 0 0 1 -2.13,-2.13 v -4.06 z"
       fill="#bcbec0"
       id="path304" />
    <path
       d="m 619,608.7 h -5.27 l 8.6,-15.77 a 2.31,2.31 0 0 1 2,-1.21 v 0 a 2.31,2.31 0 0 1 2,3.42 z"
       fill="#ffffff"
       id="path306" />
    <rect
       x="597.78003"
       y="608.70001"
       width="1.16"
       height="13.07"
       fill="#ffffff"
       id="rect308" />
    <rect
       x="593.27002"
       y="616.67999"
       width="10.18"
       height="10.18"
       fill="#ffffff"
       id="rect310" />
    <rect
       x="291.92999"
       y="51.23"
       width="23.610001"
       height="1.48"
       fill="#d1d3d4"
       id="rect312" />
    <rect
       x="291.92999"
       y="54.080002"
       width="23.610001"
       height="1.48"
       fill="#d1d3d4"
       id="rect314" />
    <rect
       x="291.92999"
       y="56.549999"
       width="23.610001"
       height="1.48"
       fill="#d1d3d4"
       id="rect316" />
    <rect
       x="590.45001"
       y="133.28999"
       width="23.610001"
       height="1.48"
       fill="#d1d3d4"
       id="rect318" />
    <rect
       x="590.45001"
       y="136.13"
       width="23.610001"
       height="1.48"
       fill="#d1d3d4"
       id="rect320" />
    <rect
       x="590.45001"
       y="138.60001"
       width="23.610001"
       height="1.48"
       fill="#d1d3d4"
       id="rect322" />
    <rect
       x="345.48001"
       y="244.3"
       width="23.610001"
       height="1.48"
       fill="#d1d3d4"
       id="rect324" />
    <rect
       x="345.48001"
       y="247.14"
       width="23.610001"
       height="1.48"
       fill="#d1d3d4"
       id="rect326" />
    <rect
       x="345.48001"
       y="249.61"
       width="23.610001"
       height="1.48"
       fill="#d1d3d4"
       id="rect328" />
    <rect
       x="610.42999"
       y="294.79001"
       width="23.610001"
       height="1.48"
       fill="#d1d3d4"
       id="rect330" />
    <rect
       x="610.42999"
       y="297.63"
       width="23.610001"
       height="1.48"
       fill="#d1d3d4"
       id="rect332" />
    <rect
       x="610.42999"
       y="300.10001"
       width="23.610001"
       height="1.48"
       fill="#d1d3d4"
       id="rect334" />
  </g>
  <g
     id="g1654"
     transform="translate(-194.09,-17.909931)">
    <path
       d="m 312.24,616.82 h -83.39 c -10,0.2 -5.75,-16.5 -6.59,-22.26 a 6.59,6.59 0 0 1 6.59,-6.59 h 83.39 z"
       fill="#ffffff"
       id="path1322" />
    <rect
       x="223.64999"
       y="596.96002"
       width="88.589996"
       height="1.59"
       fill="#e4e4e4"
       id="rect1324" />
    <rect
       x="223.64999"
       y="601.62"
       width="88.589996"
       height="1.59"
       fill="#e4e4e4"
       id="rect1326" />
    <rect
       x="223.64999"
       y="610.94"
       width="88.589996"
       height="1.59"
       fill="#e4e4e4"
       id="rect1328" />
    <rect
       x="223.64999"
       y="592.29999"
       width="88.589996"
       height="1.59"
       fill="#e4e4e4"
       id="rect1330" />
    <rect
       x="223.64999"
       y="606.28003"
       width="88.589996"
       height="1.59"
       fill="#e4e4e4"
       id="rect1332" />
    <path
       d="M 312.24,618.22 H 229 c -11.48,0.09 -7.53,-16.54 -8.16,-23.49 a 8.17,8.17 0 0 1 8.16,-8.16 h 83.22 v 2.8 H 229 c -8.54,-0.23 -4.49,15.76 -5.37,20.69 a 5.38,5.38 0 0 0 5.37,5.36 h 83.22 z"
       fill="#bcbec0"
       id="path1334" />
    <polygon
       points="300.26,606.76 294.65,612.36 294.65,596.96 305.87,596.96 305.87,612.36 "
       fill="#d1d3d4"
       id="polygon1336" />
    <path
       d="m 301.47,647.06 h -83.39 c -10,0.2 -5.75,-16.5 -6.59,-22.25 a 6.59,6.59 0 0 1 6.59,-6.6 h 83.39 z"
       fill="#ffffff"
       id="path1338" />
    <rect
       x="212.88"
       y="627.21002"
       width="88.589996"
       height="1.59"
       fill="#e4e4e4"
       id="rect1340" />
    <rect
       x="212.88"
       y="631.87"
       width="88.589996"
       height="1.59"
       fill="#e4e4e4"
       id="rect1342" />
    <rect
       x="212.88"
       y="641.19"
       width="88.589996"
       height="1.59"
       fill="#e4e4e4"
       id="rect1344" />
    <rect
       x="212.88"
       y="622.54999"
       width="88.589996"
       height="1.59"
       fill="#e4e4e4"
       id="rect1346" />
    <rect
       x="212.88"
       y="636.53003"
       width="88.589996"
       height="1.59"
       fill="#e4e4e4"
       id="rect1348" />
    <path
       d="m 301.47,648.46 h -83.22 c -11.47,0.1 -7.53,-16.53 -8.16,-23.49 a 8.17,8.17 0 0 1 8.16,-8.15 h 83.22 v 2.79 h -83.22 c -8.54,-0.23 -4.49,15.77 -5.37,20.69 a 5.38,5.38 0 0 0 5.37,5.37 h 83.22 z"
       fill="#bcbec0"
       id="path1350" />
    <polygon
       points="289.49,637.01 283.88,642.6 283.88,627.21 295.1,627.21 295.1,642.6 "
       fill="#d1d3d4"
       id="polygon1352" />
    <rect
       x="284.16"
       y="415.28"
       width="272.89999"
       height="181.39999"
       fill="#000000"
       data-secondary="true"
       id="rect1354" />
    <rect
       x="300.66"
       y="425.87"
       width="239.91"
       height="154.02"
       fill="#e4e4e4"
       id="rect1356" />
    <rect
       x="400.26001"
       y="590.47998"
       width="40.700001"
       height="50.400002"
       fill="#032631"
       id="rect1358" />
    <rect
       x="383.73001"
       y="640.34998"
       width="73.760002"
       height="4.02"
       fill="#032631"
       id="rect1360" />
    <rect
       x="322.20999"
       y="443.20999"
       width="61.189999"
       height="61.34"
       fill="#ffffff"
       id="rect1362" />
    <path
       d="m 342,477.92 h 21.5 a 5.64,5.64 0 0 1 5.64,5.64 v 21.25 h -32.73 v -21.25 a 5.64,5.64 0 0 1 5.59,-5.64 z"
       fill="#e4e4e4"
       id="path1364" />
    <ellipse
       cx="352.79999"
       cy="464.20999"
       rx="10.09"
       ry="10.11"
       fill="#e4e4e4"
       id="ellipse1366" />
    <rect
       x="390.14999"
       y="443.20999"
       width="61.189999"
       height="61.34"
       fill="#ffffff"
       id="rect1368" />
    <path
       d="m 410,477.92 h 21.5 a 5.64,5.64 0 0 1 5.64,5.64 v 21.25 h -32.79 v -21.25 a 5.64,5.64 0 0 1 5.65,-5.64 z"
       fill="#e4e4e4"
       id="path1370" />
    <ellipse
       cx="420.73999"
       cy="464.20999"
       rx="10.09"
       ry="10.11"
       fill="#e4e4e4"
       id="ellipse1372" />
    <rect
       x="458.09"
       y="443.20999"
       width="61.189999"
       height="61.34"
       fill="#ffffff"
       id="rect1374" />
    <path
       d="m 477.94,477.92 h 21.5 a 5.64,5.64 0 0 1 5.64,5.64 v 21.25 H 472.3 v -21.25 a 5.64,5.64 0 0 1 5.64,-5.64 z"
       fill="#e4e4e4"
       id="path1376" />
    <ellipse
       cx="488.69"
       cy="464.20999"
       rx="10.09"
       ry="10.11"
       fill="#e4e4e4"
       id="ellipse1378" />
    <rect
       x="322.20999"
       y="510.72"
       width="61.189999"
       height="61.34"
       fill="#ffffff"
       id="rect1380" />
    <path
       d="m 342,545.44 h 21.5 a 5.64,5.64 0 0 1 5.64,5.64 v 21.25 h -32.73 v -21.25 a 5.64,5.64 0 0 1 5.59,-5.64 z"
       fill="#00516e"
       id="path1382" />
    <ellipse
       cx="352.79999"
       cy="531.71997"
       rx="10.09"
       ry="10.11"
       fill="#00516e"
       id="ellipse1384" />
    <rect
       x="390.14999"
       y="510.72"
       width="61.189999"
       height="61.34"
       fill="#ffffff"
       id="rect1386" />
    <path
       d="m 410,545.44 h 21.5 a 5.64,5.64 0 0 1 5.64,5.64 v 21.25 h -32.79 v -21.25 a 5.64,5.64 0 0 1 5.65,-5.64 z"
       fill="#00516e"
       id="path1388" />
    <ellipse
       cx="420.73999"
       cy="531.71997"
       rx="10.09"
       ry="10.11"
       fill="#00516e"
       id="ellipse1390" />
    <rect
       x="458.09"
       y="510.72"
       width="61.189999"
       height="61.34"
       fill="#ffffff"
       id="rect1392" />
    <path
       d="m 477.94,545.44 h 21.5 a 5.64,5.64 0 0 1 5.64,5.64 v 21.25 H 472.3 v -21.25 a 5.64,5.64 0 0 1 5.64,-5.64 z"
       fill="#00516e"
       id="path1394" />
    <ellipse
       cx="488.69"
       cy="531.71997"
       rx="10.09"
       ry="10.11"
       fill="#00516e"
       id="ellipse1396" />
    <rect
       x="194.09"
       y="649.23999"
       width="477.57999"
       height="15.44"
       fill="#d1d3d4"
       id="rect1398" />
    <path
       d="M 410.76,501.55 A 22.18,22.18 0 0 0 455,499.62 v -4.31 0 -8.47 -5.23 l -0.13,-23.73 -39.7,-1.55 -2,19 -1.43,13.46 -0.88,8.61 a 21.34,21.34 0 0 0 -0.1,4.15 z"
       fill="#f9b499"
       id="path1400" />
    <path
       d="m 652.37,274 v 93.9 A 8.24,8.24 0 0 1 644,376 l -84.86,-0.18 h -14.7 L 523.73,376 a 8.24,8.24 0 0 1 -8.41,-8.06 V 274 a 8.23,8.23 0 0 1 8.41,-8.05 H 644 a 8.24,8.24 0 0 1 8.37,8.05 z"
       fill="#ffffff"
       stroke="#2f2e41"
       stroke-miterlimit="10"
       id="path1402" />
    <rect
       x="523.03998"
       y="273.79001"
       width="119.72"
       height="91.949997"
       rx="5.3299999"
       fill="#e4e4e4"
       id="rect1404" />
    <rect
       x="523.03998"
       y="298.19"
       width="119.72"
       height="25.219999"
       fill="#d1d3d4"
       id="rect1406" />
    <path
       d="m 624.08,365.67 h -13.32 v -14.36 l 10.41,2.41 a 92,92 0 0 1 2.91,11.95 z"
       fill="#f9b499"
       id="path1408" />
    <path
       d="m 560.14,351.31 v 14.36 h -12.57 c 0.41,-3.32 0.81,-5.91 1.18,-8 z"
       fill="#f9b499"
       id="path1410" />
    <path
       d="m 610.83,344.44 c 0,5.67 0,15.53 0,21.23 h -50.78 v -14.38 c -1,-9.14 2,-19.12 11.61,-22 13.87,-3.17 37.82,-3.93 39.17,15.15 z"
       fill="#f34a12"
       data-primary="true"
       id="path1412" />
    <path
       d="m 585.9,336.12 c 8.24,0 11.7,-6.9 11.43,-7.23 -7.41,-1.62 -11,-1 -17.22,-1.12 0,0 -2.47,0.37 -5.64,0.94 0,0 3.2,7.45 11.43,7.41 z"
       fill="#f9b499"
       id="path1414" />
    <path
       d="m 579.4,329 c 0.74,7.75 13,6.91 12.56,-1 -0.11,-3.14 -0.34,-8.67 -0.46,-11.86 l -11.29,-0.07 c -0.21,3.86 -0.85,9.07 -0.81,12.93 z"
       fill="#f9b499"
       id="path1416" />
    <path
       d="m 557.12,314.35 -0.13,-0.1 v 0 z"
       fill="#002e3b"
       id="path1418" />
    <path
       d="m 568.45,297.6 c 3.7,23.69 31.07,25.06 35.36,1.43 2.15,-0.55 -0.06,-13.83 -9,-15.64 -11.91,-5.15 -18.2,0.28 -21.9,4.17 a 30.27,30.27 0 0 0 -1.82,2.67 c -2.34,1.92 -3.57,4.27 -2.64,7.37 z"
       fill="#000000"
       data-secondary="true"
       id="path1420" />
    <path
       d="m 599.43,306.14 c 7.32,-9.12 9.76,9.53 0.24,6.76 -3.26,-1.31 -0.24,-6.76 -0.24,-6.76 z"
       fill="#f9b499"
       id="path1422" />
    <path
       d="m 573.16,305.64 c -7,-9.4 -10.11,9.16 -0.5,6.75 3.34,-1.19 0.5,-6.75 0.5,-6.75 z"
       fill="#f9b499"
       id="path1424" />
    <path
       d="m 586,323.41 c 12.27,-0.13 13.1,-11.46 13.92,-20.91 a 13.6,13.6 0 1 0 -27,-0.52 c 0.39,9.48 0.78,20.84 13.08,21.43 z"
       fill="#f9b499"
       id="path1426" />
    <path
       d="m 573.21,305.64 c 0.92,-4.4 0.92,-17.33 11.5,-14.3 7.35,2.91 16.29,4.54 14.81,14.11 0,0 3.85,-6.62 1.86,-10.44 -1.99,-3.82 -4.66,-9 -8.68,-10.17 -4.02,-1.17 -18,4.2 -18,4.2 a 24.65,24.65 0 0 0 -1.49,16.6 z"
       fill="#000000"
       data-secondary="true"
       id="path1428" />
    <path
       d="m 574.56,297.43 a 15.51,15.51 0 0 1 14.5,-4.52 c 0,0 -9.99,-10.47 -14.5,4.52 z"
       fill="#000000"
       data-secondary="true"
       id="path1430" />
    <path
       d="m 599.81,300.18 c 0,0 -1.65,5.23 -0.51,9.59 0.04,0.23 4.1,-11.69 0.51,-9.59 z"
       fill="#000000"
       data-secondary="true"
       id="path1432" />
    <path
       d="m 573.06,299.67 c 0,0 1.45,5.29 0.14,9.6 -0.04,0.22 -3.65,-11.84 -0.14,-9.6 z"
       fill="#000000"
       data-secondary="true"
       id="path1434" />
    <path
       d="m 571.66,329.25 c 0,0 -16.32,0 -27.08,28.43 l 15.47,7.32 c 0,0 10.73,-29.37 11.61,-35.75 z"
       fill="#f34a12"
       data-primary="true"
       id="path1436" />
    <path
       d="m 599,329.25 c 0,0 17.25,2 26.18,27.33 l -14.32,9.09 c 0,0 -11.01,-30.04 -11.86,-36.42 z"
       fill="#f34a12"
       data-primary="true"
       id="path1438" />
    <path
       d="m 627.68,288.93 h -10.82 c -5.85,-0.05 -9.63,5.36 -8.92,10.91 0.23,9.36 9.2,9.17 16.42,9 v 3.8 l 3.93,-3.88 c 11.3,-0.54 11.1,-20.01 -0.61,-19.83 z"
       fill="#ffffff"
       id="path1440" />
    <line
       x1="511.41"
       y1="415.23999"
       x2="530.90997"
       y2="377.76999"
       fill="none"
       stroke="#2f2e41"
       stroke-linecap="round"
       stroke-linejoin="round"
       stroke-dasharray="4"
       id="line1442" />
    <path
       d="m 638.84,106.51 v 111.2 c 0,5.26 -4.53,9.53 -10.13,9.53 L 526.47,227 H 508.8 l -24.95,0.21 c -5.6,0 -10.13,-4.27 -10.13,-9.53 V 106.51 c 0,-5.27 4.53,-9.54 10.13,-9.54 h 144.86 c 5.6,0.03 10.13,4.27 10.13,9.54 z"
       fill="#ffffff"
       stroke="#2f2e41"
       stroke-miterlimit="10"
       id="path1444" />
    <path
       d="m 489.44,106.43 h 131.39 a 6.43,6.43 0 0 1 6.43,6.43 v 97.93 a 6.43,6.43 0 0 1 -6.43,6.43 H 489.44 a 6.42,6.42 0 0 1 -6.42,-6.42 v -97.94 a 6.43,6.43 0 0 1 6.43,-6.43 z"
       fill="#e4e4e4"
       id="path1446" />
    <rect
       x="483.01999"
       y="135.83"
       width="144.25"
       height="5.4400001"
       fill="#d1d3d4"
       id="rect1448" />
    <rect
       x="483.01999"
       y="158.16"
       width="144.25"
       height="5.4400001"
       fill="#d1d3d4"
       id="rect1450" />
    <path
       d="m 604.87,217.14 h -16.08 v -17.35 c 0,0 12.56,2.91 12.56,2.92 a 108.34,108.34 0 0 1 3.52,14.43 z"
       fill="#f2b5aa"
       id="path1452" />
    <path
       d="m 527.65,199.79 v 17.35 h -15.19 c 0.5,-4 1,-7.14 1.42,-9.63 z"
       fill="#f2b5aa"
       id="path1454" />
    <path
       d="m 588.8,191.56 c 0,6.83 0,18.72 0,25.58 h -61.18 v -17.32 c -1.2,-11 2.42,-23 14,-26.5 16.69,-3.83 45.55,-4.75 47.18,18.24 z"
       fill="#f34a12"
       data-primary="true"
       id="path1456" />
    <path
       d="m 558.76,181.45 c 10,0 14.13,-8.34 13.8,-8.73 -8.95,-2 -13.32,-1.24 -20.79,-1.36 0,0 -3,0.45 -6.82,1.14 0.05,0 3.87,8.99 13.81,8.95 z"
       fill="#f9b499"
       id="path1458" />
    <path
       d="m 550.9,172.81 c 0.91,9.35 15.68,8.34 15.17,-1.17 -0.13,-3.79 -0.4,-10.46 -0.55,-14.32 l -13.64,-0.08 c -0.23,4.66 -1.02,10.94 -0.98,15.57 z"
       fill="#f9b499"
       id="path1460" />
    <path
       d="m 524.09,155.31 -0.17,-0.13 v 0 z"
       fill="#002e3b"
       id="path1462" />
    <path
       d="m 537.73,135.13 c 4.46,28.53 37.44,30.18 42.61,1.71 2.58,-0.65 -0.07,-16.66 -10.89,-18.84 -14.36,-6.2 -21.93,0.34 -26.39,5 0,0 -1.54,2 -2.19,3.22 -2.77,2.34 -4.26,5.17 -3.14,8.91 z"
       fill="#000000"
       data-secondary="true"
       id="path1464" />
    <path
       d="m 575.06,145.42 c 8.82,-11 11.76,11.48 0.29,8.14 -3.93,-1.56 -0.29,-8.14 -0.29,-8.14 z"
       fill="#f9b499"
       id="path1466" />
    <path
       d="m 543.4,144.81 c -8.39,-11.32 -12.18,11 -0.59,8.13 3.98,-1.43 0.59,-8.13 0.59,-8.13 z"
       fill="#f9b499"
       id="path1468" />
    <path
       d="m 558.83,166.22 c 14.79,-0.16 15.78,-13.8 16.78,-25.19 a 16.39,16.39 0 1 0 -32.59,-0.62 c 0.57,11.41 1.04,25.1 15.81,25.81 z"
       fill="#f9b499"
       id="path1470" />
    <path
       d="m 543.47,144.82 c 1.11,-5.31 1.1,-20.88 13.85,-17.24 8.86,3.51 19.63,5.48 17.85,17 0,0 4.64,-8 2.24,-12.57 -2.4,-4.57 -5.62,-10.85 -10.46,-12.26 -4.84,-1.41 -21.66,5.07 -21.66,5.07 a 29.63,29.63 0 0 0 -1.82,20 z"
       fill="#000000"
       data-secondary="true"
       id="path1472" />
    <path
       d="m 545.09,134.92 a 18.71,18.71 0 0 1 17.48,-5.45 c 0,0 -12.05,-12.62 -17.48,5.45 z"
       fill="#000000"
       data-secondary="true"
       id="path1474" />
    <path
       d="m 575.52,138.23 c 0,0 -2,6.3 -0.62,11.56 0.1,0.26 4.94,-14.09 0.62,-11.56 z"
       fill="#000000"
       data-secondary="true"
       id="path1476" />
    <path
       d="m 543.28,137.62 c 0,0 1.75,6.37 0.18,11.57 -0.05,0.25 -4.4,-14.27 -0.18,-11.57 z"
       fill="#000000"
       data-secondary="true"
       id="path1478" />
    <path
       d="m 541.6,173.26 c 0,0 -19.66,0 -32.63,34.25 l 18.65,8.83 c 0,0 12.92,-35.4 13.98,-43.08 z"
       fill="#f34a12"
       data-primary="true"
       id="path1480" />
    <path
       d="m 574.52,173.26 c 0,0 20.78,2.38 31.54,32.92 l -17.26,11 c 0,0 -13.23,-36.24 -14.28,-43.92 z"
       fill="#f34a12"
       data-primary="true"
       id="path1482" />
    <path
       d="m 609.09,148.57 c -8.93,-0.07 -23.45,2.35 -23.78,-10.75 -0.85,-6.68 3.7,-13.21 10.75,-13.14 h 13 c 14.4,-0.22 14.4,24.11 0.03,23.89 z"
       fill="#ffffff"
       id="path1484" />
    <polygon
       points="605.1,147.33 605.1,153.22 613.02,145.41 "
       fill="#ffffff"
       id="polygon1486" />
    <line
       x1="513.13"
       y1="228.75999"
       x2="475.32001"
       y2="351.26999"
       fill="none"
       stroke="#2f2e41"
       stroke-linecap="round"
       stroke-linejoin="round"
       stroke-dasharray="4"
       id="line1488" />
    <line
       x1="327.73999"
       y1="415.20999"
       x2="298.38"
       y2="351.26999"
       fill="none"
       stroke="#2f2e41"
       stroke-linecap="round"
       stroke-linejoin="round"
       stroke-dasharray="4"
       id="line1490" />
    <path
       d="m 398.5,214.24 v 125.27 c 0,5.94 -5.15,10.75 -11.5,10.75 L 270.91,350 h -20.05 l -28.33,0.24 c -6.35,0 -11.5,-4.81 -11.5,-10.75 V 214.24 c 0,-5.94 5.15,-10.75 11.5,-10.75 H 387 c 6.35,0 11.5,4.81 11.5,10.75 z"
       fill="#ffffff"
       stroke="#2f2e41"
       stroke-miterlimit="10"
       id="path1492" />
    <path
       d="m 228.88,214.23 h 149.18 a 7.3,7.3 0 0 1 7.3,7.3 v 111.19 a 7.3,7.3 0 0 1 -7.3,7.3 H 228.88 a 7.29,7.29 0 0 1 -7.29,-7.29 v -111.2 a 7.3,7.3 0 0 1 7.29,-7.3 z"
       fill="#e4e4e4"
       id="path1494" />
    <rect
       x="221.58"
       y="265.94"
       width="163.77"
       height="20.969999"
       fill="#d1d3d4"
       id="rect1496" />
    <rect
       x="221.58"
       y="315.72"
       width="163.77"
       height="6.1700001"
       fill="#ffffff"
       id="rect1498" />
    <path
       d="m 359.93,339.93 h -18.26 v -19.7 l 14.27,3.31 a 123.33,123.33 0 0 1 3.99,16.39 z"
       fill="#f9b499"
       id="path1500" />
    <path
       d="m 272.26,320.23 v 19.7 H 255 c 0.56,-4.55 1.1,-8.11 1.61,-10.94 z"
       fill="#f9b499"
       id="path1502" />
    <path
       d="m 341.69,310.88 c 0,7.76 0,21.25 0,29.05 h -69.47 v -19.67 c -1.36,-12.51 2.76,-26.15 15.88,-30.09 18.97,-4.34 51.73,-5.39 53.59,20.71 z"
       fill="#f34a12"
       data-primary="true"
       id="path1504" />
    <path
       d="m 307.58,299.4 c 11.3,0 16,-9.46 15.67,-9.91 -10.16,-2.22 -15.13,-1.41 -23.61,-1.54 0,0 -3.4,0.51 -7.74,1.3 0,0 4.39,10.2 15.68,10.15 z"
       fill="#f9b499"
       id="path1506" />
    <path
       d="m 298.66,289.59 c 1,10.62 17.8,9.48 17.22,-1.32 -0.15,-4.31 -0.46,-11.88 -0.62,-16.26 l -15.49,-0.09 c -0.26,5.29 -1.16,12.42 -1.11,17.67 z"
       fill="#f9b499"
       id="path1508" />
    <path
       d="m 268.21,269.73 -0.19,-0.15 v 0 z"
       fill="#f58300"
       opacity="0.5"
       id="path1510" />
    <path
       d="m 283.7,246.81 c 5.07,32.4 30,33.41 47.42,5.54 6.49,-10.39 -20,-45.1 -43.86,-15.63 -2.58,3.19 -4.82,5.85 -3.56,10.09 z"
       fill="#000000"
       data-secondary="true"
       id="path1512" />
    <path
       d="m 326.09,258.49 c 10,-12.48 13.34,13 0.33,9.25 -4.42,-1.74 -0.33,-9.25 -0.33,-9.25 z"
       fill="#f9b499"
       id="path1514" />
    <path
       d="m 290.14,257.81 c -9.53,-12.86 -13.83,12.52 -0.67,9.22 4.53,-1.61 0.67,-9.22 0.67,-9.22 z"
       fill="#f9b499"
       id="path1516" />
    <path
       d="m 307.66,282.11 c 16.79,-0.17 17.91,-15.67 19,-28.6 a 18.6,18.6 0 1 0 -37,-0.7 c 0.7,12.96 1.23,28.49 18,29.3 z"
       fill="#f9b499"
       id="path1518" />
    <path
       d="m 290.26,257.85 c 1.26,-6 1.26,-23.71 15.73,-19.57 10.06,4 22.28,6.22 20.26,19.31 0,0 5.27,-9.06 2.56,-14.28 -2.71,-5.22 -6.39,-12.32 -11.89,-13.92 -5.5,-1.6 -24.59,5.75 -24.59,5.75 a 33.72,33.72 0 0 0 -2.07,22.71 z"
       fill="#000000"
       data-secondary="true"
       id="path1520" />
    <path
       d="m 326.61,250.34 c 0,0 -2.26,7.15 -0.71,13.12 0.1,0.29 5.62,-16 0.71,-13.12 z"
       fill="#000000"
       data-secondary="true"
       id="path1522" />
    <path
       d="m 290,249.64 c 0,0 2,7.24 0.2,13.14 -0.05,0.29 -4.99,-16.2 -0.2,-13.14 z"
       fill="#000000"
       data-secondary="true"
       id="path1524" />
    <path
       d="m 288.1,290.11 c 0,0 -22.33,0 -37.05,38.88 l 21.17,10 c 0,0 14.68,-40.16 15.88,-48.88 z"
       fill="#f34a12"
       data-primary="true"
       id="path1526" />
    <path
       d="m 325.47,290.11 c 0,0 23.6,2.7 35.82,37.38 l -19.6,12.44 c 0,0 -15.02,-41.1 -16.22,-49.82 z"
       fill="#f34a12"
       data-primary="true"
       id="path1528" />
    <path
       d="m 295.57,240.29 c 0,0 7.61,4.89 13.77,5.51 6.16,0.62 1.86,-4.21 1.86,-4.21 0,0 6,6.11 9.88,6.11 3.88,0 1.21,-4.19 1.21,-4.19 0,0 -14,-9.62 -16.07,-9.47 -2.07,0.15 -10.66,-0.4 -10.65,6.25 z"
       fill="#000000"
       data-secondary="true"
       id="path1530" />
    <path
       d="m 364.73,235 h -14.8 c -8,-0.07 -13.17,7.33 -12.21,14.92 0.33,12.8 12.59,12.54 22.47,12.28 v 5.2 l 5.36,-5.28 C 381,261.39 380.76,234.71 364.73,235 Z"
       fill="#ffffff"
       id="path1532" />
    <path
       d="m 436.43,28 v 111.75 c 0,5.3 -4.6,9.59 -10.27,9.59 H 279.44 c -5.67,0 -10.27,-4.29 -10.27,-9.59 V 28 c 0,-5.3 4.6,-9.59 10.27,-9.59 h 146.72 c 5.67,-0.02 10.27,4.27 10.27,9.59 z"
       fill="#ffffff"
       stroke="#2f2e41"
       stroke-miterlimit="10"
       id="path1534" />
    <rect
       x="279.73001"
       y="27.940001"
       width="146.14"
       height="112.24"
       rx="6.5100002"
       fill="#e4e4e4"
       id="rect1536" />
    <rect
       x="279.73001"
       y="57.73"
       width="146.14"
       height="34.009998"
       fill="#d1d3d4"
       id="rect1538" />
    <rect
       x="279.73001"
       y="80.349998"
       width="146.14"
       height="34.009998"
       fill="#ffffff"
       id="rect1540" />
    <polygon
       points="313.16,140.19 306.54,140.19 307.24,135.36 "
       fill="#f9b499"
       id="polygon1542" />
    <path
       d="m 367.37,62.7 c 0,0 2,24.24 -1.59,36.13 l -40.88,2.74 c 1.74,-18.88 2.75,-43.43 2.75,-43.43 z"
       fill="#000000"
       data-secondary="true"
       id="path1544" />
    <path
       d="m 332,65.16 c -0.1,8.09 -2.21,29.84 -4.59,33.67 h 34.86 c 0,0 4.85,-11 3,-23.26 C 363.42,63.31 332.06,60.72 332,65.16 Z"
       fill="#000000"
       data-secondary="true"
       id="path1546" />
    <path
       d="m 375.78,116.64 c -0.34,5.68 -1.07,18 -1.4,23.55 H 322 c 0.45,-13.42 -5.49,-40.1 11.94,-44.33 4.36,-1.68 14.73,-0.86 19.44,-1 11.82,-0.25 22.3,9.92 22.4,21.78 z"
       fill="#f34a12"
       data-primary="true"
       id="path1548" />
    <path
       d="m 347.19,106.81 c -12.27,-1 -13.27,-11 -13.27,-11 7,-2.15 22.2,-1.46 26.51,0.15 0,-0.03 -0.97,11.84 -13.24,10.85 z"
       fill="#f9b499"
       id="path1550" />
    <path
       d="m 339.59,95.34 c 0.87,8.94 15,8 14.5,-1.12 -0.12,-3.62 -0.38,-10 -0.52,-13.69 l -13,-0.08 c -0.26,4.46 -1.02,10.47 -0.98,14.89 z"
       fill="#f9b499"
       id="path1552" />
    <path
       d="m 367.37,62.7 c -0.55,26.32 -39.32,25.5 -39.95,-0.27 0,-5.6 0.54,-9.54 6.63,-14 6.51,-14.6 34.16,-4.86 33.32,14.27 z"
       fill="#000000"
       data-secondary="true"
       id="path1554" />
    <path
       d="m 362.69,70.86 c 8.51,-10.52 11.14,11.06 0.27,7.79 -3.75,-1.51 -0.27,-7.79 -0.27,-7.79 z"
       fill="#f9b499"
       id="path1556" />
    <path
       d="m 332.42,70.29 c -8.1,-10.84 -11.55,10.62 -0.57,7.76 3.81,-1.36 0.57,-7.76 0.57,-7.76 z"
       fill="#f9b499"
       id="path1558" />
    <path
       d="m 347.17,90.75 c 14.14,-0.15 15.09,-13.19 16,-24.08 a 15.66,15.66 0 1 0 -31.15,-0.6 c 0.58,10.93 1.04,24 15.15,24.68 z"
       fill="#f9b499"
       id="path1560" />
    <path
       d="m 335,55.56 a 12.68,12.68 0 0 0 10.79,7.55 c 1.88,-0.11 3.11,-1.08 0.65,-4.33 4.64,3.21 14.34,7.69 10.26,-3.71 0,0 4.14,12.65 6.65,10.4 2.51,-2.25 -1.41,-12.8 -9.23,-15.35 -7.82,-2.55 -16.99,-1.56 -19.12,5.44 z"
       fill="#000000"
       data-secondary="true"
       id="path1562" />
    <path
       d="m 331.53,64.69 c 0,0 2.05,5.6 0.4,9 -6.21,-5.87 -1.93,-15.94 -0.4,-9 z"
       fill="#000000"
       data-secondary="true"
       id="path1564" />
    <path
       d="m 362.76,67.07 c 0,0 -1.4,5.13 0.25,8.5 5.67,-6.79 1.73,-16.07 -0.25,-8.5 z"
       fill="#000000"
       data-secondary="true"
       id="path1566" />
    <path
       d="m 335,55.56 a 16.79,16.79 0 0 1 -3,9.1 c -2.06,2.71 -2.8,-9.12 3,-9.1 z"
       fill="#000000"
       data-secondary="true"
       id="path1568" />
    <path
       d="m 333.58,96.32 c -1.15,9.76 -7.78,31.44 -11.17,43.87 h -9.25 c -1.84,-1.51 -6.86,-5.59 -8.63,-7 6.01,-13.67 12.28,-33.54 29.05,-36.87 z"
       fill="#f34a12"
       data-primary="true"
       id="path1570" />
    <polygon
       points="381.68,140.19 388.31,140.19 387.6,135.36 "
       fill="#f9b499"
       id="polygon1572" />
    <path
       d="m 361.26,96.32 c 1.16,9.76 7.78,31.44 11.17,43.87 h 9.25 l 8.63,-7 C 384.3,119.52 378,99.65 361.26,96.32 Z"
       fill="#f34a12"
       data-primary="true"
       id="path1574" />
    <path
       d="m 310.56,67.85 c -10.24,0.15 -24.05,1.86 -23.47,-12.8 0.35,-13.09 14.3,-11.28 23.47,-11.18 14.8,-0.23 14.81,24.2 0,23.98 z"
       fill="#ffffff"
       id="path1576" />
    <polygon
       points="296.2,66.16 306.95,72.41 302.82,62.41 "
       fill="#ffffff"
       id="polygon1578" />
    <line
       x1="407.17001"
       y1="148.87"
       x2="407.39001"
       y2="150.86"
       fill="none"
       stroke="#2f2e41"
       stroke-linecap="round"
       stroke-linejoin="round"
       id="line1580" />
    <line
       x1="407.85001"
       y1="154.87"
       x2="428.45999"
       y2="337.41"
       fill="none"
       stroke="#2f2e41"
       stroke-linecap="round"
       stroke-linejoin="round"
       stroke-dasharray="4.04, 4.04"
       id="line1582" />
    <line
       x1="428.69"
       y1="339.42001"
       x2="428.91"
       y2="341.39999"
       fill="none"
       stroke="#2f2e41"
       stroke-linecap="round"
       stroke-linejoin="round"
       id="line1584" />
    <path
       d="m 563.38,601.21 2.1,3.32 a 26.84,26.84 0 0 1 -8.09,36.85 v 0 a 26.84,26.84 0 0 1 -31.72,-1.88 l -11,-9.11 z"
       fill="#f2b5aa"
       id="path1586" />
    <path
       d="m 565.82,632.64 c 27,-34.7 10.09,-168.41 10.09,-168.41 H 544.77 L 523.15,627.3 c 0,0 36.58,13.16 42.67,5.34 z"
       fill="#f9b499"
       id="path1588" />
    <path
       d="m 480.49,425.81 c 7.24,-13.58 16.8,-14.2 21.13,1.83 4.33,16.03 -8.62,29.27 -19.42,24.43 -10.8,-4.84 -1.71,-26.26 -1.71,-26.26 z"
       fill="#f9b499"
       id="path1590" />
    <path
       d="m 385.74,425.8 c -7.24,-13.57 -16.78,-14.19 -21.11,1.83 -4.33,16.02 8.57,29.24 19.37,24.37 10.8,-4.87 1.74,-26.2 1.74,-26.2 z"
       fill="#f9b499"
       id="path1592" />
    <path
       d="M 525.42,665 H 335.59 l 1.65,-31.93 V 633 l 0.1,-2.1 v 0 l 2.9,-56.27 0.73,-14.14 a 59.37,59.37 0 0 1 40.77,-53.15 c 1.76,-0.57 3.58,-1.07 5.44,-1.48 1.86,-0.41 3.67,-0.77 5.49,-1.11 h 0.12 c 8.6,-1.56 15.42,-2.33 18,-2.61 v 0 L 412,502 h 36.29 c 0,0 2.47,0.23 6.55,0.76 4.08,0.53 10,1.41 16.55,2.71 l 0.57,0.12 v 0 a 53.77,53.77 0 0 1 6.46,1.7 v 0 a 59.29,59.29 0 0 1 40.79,53.14 l 0.75,12.64 1.43,24.34 0.75,12.59 c 0,0 0,0 0,0 l 0.9,15.33 0.11,1.73 v 0.21 0 l 0.27,4.44 0.37,6.2 v 0 l 1.21,19.2 z"
       fill="#f34a12"
       data-primary="true"
       id="path1594" />
    <path
       d="m 375.9,400.35 c 8.86,34.89 0.49,84.14 54.38,85.61 59.41,1.62 55.81,-49.66 61.77,-83.35 7.14,-2 16.95,-6.93 11.39,-11.1 -5.56,-4.17 -16.6,-13.67 -16.6,-13.67 14.41,-4.67 16.64,-22.78 9.05,-19.12 -7.59,3.66 -17.31,0.18 -35.7,-7.64 h -0.05 c -36.46,-15.89 -60.39,2.81 -69.22,11.89 -0.47,0.48 -3.63,4.15 -3.74,4.29 l -0.05,0.08 a 106.93,106.93 0 0 0 -5.79,9.05 58,58 0 0 0 -4.44,11.37 c -1.4,5.1 -2.37,7.18 -1,12.59 z"
       fill="#000000"
       data-secondary="true"
       id="path1596" />
    <path
       d="m 434.65,488.73 v 0 a 43.9,43.9 0 0 0 43.2,-39.3 l 3.32,-35.24 a 47.57,47.57 0 0 0 -47.86,-52 v 0 a 47.56,47.56 0 0 0 -46.74,53 l 4.05,35.17 a 43.91,43.91 0 0 0 44.03,38.37 z"
       fill="#000000"
       data-secondary="true"
       id="path1598" />
    <path
       d="m 443,488.73 v 0 a 43.9,43.9 0 0 0 43.2,-39.3 l 3.32,-35.24 a 47.57,47.57 0 0 0 -47.86,-52 v 0 a 47.56,47.56 0 0 0 -46.74,53 l 4.08,35.16 a 43.91,43.91 0 0 0 44,38.38 z"
       fill="#000000"
       data-secondary="true"
       id="path1600" />
    <path
       d="m 383.68,386.09 c 0,0 -1.37,-9.39 -15.65,-14.71 -14.28,-5.32 3.06,28.18 15.65,14.71 z"
       fill="#000000"
       data-secondary="true"
       id="path1602" />
    <path
       d="m 376.14,375.69 c 0,0 -6,-22.55 2.2,-28.3 8.2,-5.75 14.27,22 4.32,32.56 -9.95,10.56 -6.52,-4.26 -6.52,-4.26 z"
       fill="#000000"
       data-secondary="true"
       id="path1604" />
    <path
       d="m 381.76,507.16 c 0,0 -58.59,5.55 -101.28,96.84 L 341,632.64 c 0,0 37.68,-103.1 40.76,-125.48 z"
       fill="#f34a12"
       data-primary="true"
       id="path1606" />
    <path
       d="m 477.63,507.16 c 0,0 58.74,8.1 91.9,89.35 L 519.19,635 c 0,0 -38.48,-105.46 -41.56,-127.84 z"
       fill="#f34a12"
       data-primary="true"
       id="path1608" />
    <path
       d="m 392.67,504.74 c 0,0 45.27,-11.76 79.27,0.84 0,0 -39.56,37.6 -79.27,-0.84 z"
       fill="#f9b499"
       id="path1610" />
    <path
       d="m 548.24,421.11 c 0,0 1.82,-17 4,-28.46 1,-5.45 8,-5.08 8.61,-0.44 1,-7 7.31,-5.5 8.93,-3.34 a 5.34,5.34 0 0 1 1,3.67 3.86,3.86 0 0 1 5.66,-1.53 c 3.45,2.42 2.12,12.7 2.12,12.7 0,0 1.14,-3.47 4.27,-2.84 2.65,0.54 3.75,3.31 3.48,10.78 -0.27,7.47 -2,18.88 -1.47,25.42 0.53,6.54 2.32,20.66 -10.72,33.58 -11.57,11.46 -33.12,3.15 -35.31,-13.17 -1.33,-9.88 -1.89,-14 -1.15,-23.35 0.81,-10.32 0.58,-21.34 4.95,-21.79 3.93,-0.41 4.84,3.05 5.19,5.43 z"
       fill="#f9b499"
       id="path1612" />
    <path
       d="m 291.29,609.09 v 0 a 23.21,23.21 0 0 0 20.93,33.39 l 24.51,-0.07 0.63,-11.51 z"
       fill="#f9b499"
       id="path1614" />
    <path
       d="M 549,650.63 A 48.34,48.34 0 0 1 546.81,665 H 314.89 a 48.26,48.26 0 0 1 -2,-10.43 l -0.32,-3.94 q 0,-4.11 0.27,-8.15 a 118.3,118.3 0 0 1 57.16,-93.22 118.32,118.32 0 0 1 119,-1.54 118.43,118.43 0 0 1 25.4,19.33 c 2,2 3.83,4 5.64,6 a 119.25,119.25 0 0 1 8.82,11.51 117.56,117.56 0 0 1 14.14,28.87 c 0.3,0.9 0.59,1.8 0.85,2.71 a 115.73,115.73 0 0 1 4,17.94 q 0.76,5.37 1,10.92 c 0.08,1.86 0.15,3.75 0.15,5.63 z"
       fill="#000000"
       data-secondary="true"
       id="path1616" />
    <path
       d="M 549,650.63 A 48.34,48.34 0 0 1 546.81,665 h -26.67 a 48.55,48.55 0 0 0 9.29,-22.89 60.8,60.8 0 0 0 0.37,-12.62 c 0,-0.7 -0.1,-1.42 -0.18,-2.14 v -0.3 c -0.17,-1.76 -0.4,-3.5 -0.67,-5.19 a 88.94,88.94 0 0 0 -3.23,-13.71 v 0 a 80.2,80.2 0 0 0 -4.27,-10.71 86.43,86.43 0 0 0 -26.5,-31.62 v 0 c -36.13,-27.16 -87.06,-28.31 -87.06,-28.31 q 2.68,-2 5.36,-3.77 a 118.06,118.06 0 0 1 101.14,33.32 c 2,2 3.83,4 5.64,6 a 119.25,119.25 0 0 1 8.82,11.51 117.56,117.56 0 0 1 14.15,28.86 c 0.3,0.9 0.59,1.8 0.85,2.71 a 115.73,115.73 0 0 1 4,17.94 q 0.76,5.37 1,10.92 c 0.08,1.86 0.15,3.75 0.15,5.63 z"
       opacity="0.2"
       id="path1618" />
    <path
       d="M 627.29,612.83 H 626 v -4.13 h -40.16 v 17.39 a 20.07,20.07 0 0 0 19.55,20.06 h 0.51 a 19.9,19.9 0 0 0 10.25,-2.82 20.3,20.3 0 0 0 7.22,-7.39 h 3.92 a 11.56,11.56 0 0 0 0,-23.12 z m 0,18.14 h -1.94 a 20.14,20.14 0 0 0 0.62,-4.88 v -8.29 h 1.32 a 6.59,6.59 0 0 1 0,13.17 z"
       fill="#d1d3d4"
       id="path1620" />
    <path
       d="m 580.49,643.06 h 52.43 v 4.06 a 2.13,2.13 0 0 1 -2.13,2.13 h -48.16 a 2.13,2.13 0 0 1 -2.13,-2.13 v -4.06 z"
       fill="#bcbec0"
       id="path1622" />
    <path
       d="m 619,608.7 h -5.27 l 8.6,-15.77 a 2.31,2.31 0 0 1 2,-1.21 v 0 a 2.31,2.31 0 0 1 2,3.42 z"
       fill="#ffffff"
       id="path1624" />
    <rect
       x="597.78003"
       y="608.70001"
       width="1.16"
       height="13.07"
       fill="#ffffff"
       id="rect1626" />
    <rect
       x="593.27002"
       y="616.67999"
       width="10.18"
       height="10.18"
       fill="#ffffff"
       id="rect1628" />
    <rect
       x="291.92999"
       y="51.23"
       width="23.610001"
       height="1.48"
       fill="#d1d3d4"
       id="rect1630" />
    <rect
       x="291.92999"
       y="54.080002"
       width="23.610001"
       height="1.48"
       fill="#d1d3d4"
       id="rect1632" />
    <rect
       x="291.92999"
       y="56.549999"
       width="23.610001"
       height="1.48"
       fill="#d1d3d4"
       id="rect1634" />
    <rect
       x="590.45001"
       y="133.28999"
       width="23.610001"
       height="1.48"
       fill="#d1d3d4"
       id="rect1636" />
    <rect
       x="590.45001"
       y="136.13"
       width="23.610001"
       height="1.48"
       fill="#d1d3d4"
       id="rect1638" />
    <rect
       x="590.45001"
       y="138.60001"
       width="23.610001"
       height="1.48"
       fill="#d1d3d4"
       id="rect1640" />
    <rect
       x="345.48001"
       y="244.3"
       width="23.610001"
       height="1.48"
       fill="#d1d3d4"
       id="rect1642" />
    <rect
       x="345.48001"
       y="247.14"
       width="23.610001"
       height="1.48"
       fill="#d1d3d4"
       id="rect1644" />
    <rect
       x="345.48001"
       y="249.61"
       width="23.610001"
       height="1.48"
       fill="#d1d3d4"
       id="rect1646" />
    <rect
       x="610.42999"
       y="294.79001"
       width="23.610001"
       height="1.48"
       fill="#d1d3d4"
       id="rect1648" />
    <rect
       x="610.42999"
       y="297.63"
       width="23.610001"
       height="1.48"
       fill="#d1d3d4"
       id="rect1650" />
    <rect
       x="610.42999"
       y="300.10001"
       width="23.610001"
       height="1.48"
       fill="#d1d3d4"
       id="rect1652" />
  </g>
</svg>
