<?xml version="1.0" encoding="UTF-8" standalone="no"?>
<svg
   width="661.12231"
   height="564.54352"
   viewBox="0 0 661.12231 564.54351"
   version="1.1"
   id="svg198"
   sodipodi:docname="design.svg"
   inkscape:version="1.1 (c68e22c387, 2021-05-23)"
   xmlns:inkscape="http://www.inkscape.org/namespaces/inkscape"
   xmlns:sodipodi="http://sodipodi.sourceforge.net/DTD/sodipodi-0.dtd"
   xmlns="http://www.w3.org/2000/svg"
   xmlns:svg="http://www.w3.org/2000/svg"
   xmlns:xhtml="http://www.w3.org/1999/xhtml">
  <sodipodi:namedview
     id="namedview200"
     pagecolor="#ffffff"
     bordercolor="#666666"
     borderopacity="1.0"
     inkscape:pageshadow="2"
     inkscape:pageopacity="0.0"
     inkscape:pagecheckerboard="0"
     showgrid="false"
     inkscape:zoom="1.2783903"
     inkscape:cx="279.64855"
     inkscape:cy="247.57696"
     inkscape:window-width="2560"
     inkscape:window-height="1361"
     inkscape:window-x="-9"
     inkscape:window-y="-9"
     inkscape:window-maximized="1"
     inkscape:current-layer="svg198" />
  <defs
     id="defs2">
    <xhtml:style>*, ::after, ::before { box-sizing: border-box; }
img, svg { vertical-align: middle; }
</xhtml:style>
    <xhtml:style>*, body, html { -webkit-font-smoothing: antialiased; }
img, svg { max-width: 100%; }
</xhtml:style>
  </defs>
  <path
     d="m -216.1598,214.03118 -141.16,372.63 h -518.16 a 41.27,41.27 0 0 1 -40.33,-32.55 l -83,-383.51 a 45.38,45.38 0 0 1 28.45,-52.11 l 268.07,-100.670001 9.46,-3.55 10.81,-4.07 127,-47.7 4,-1.51 29,-10.89 a 42.54,42.54 0 0 1 41.68,6.73 l 74.68,60.25 8.37,6.75 0.38,0.31 21.62,17.46 143.9,116.180001 a 49.67,49.67 0 0 1 15.23,56.25 z"
     fill="#fff"
     opacity="0.7"
     id="path6"
     style="fill:#ffffff;fill-opacity:1" />
  <path
     d="M 657.98423,232.67797 539.54277,557.24355 H 104.77635 A 34.627934,35.946708 0 0 1 70.93713,528.89208 L 1.29529,194.84987 A 38.076463,39.526571 0 0 1 25.1665,149.46138 l 224.92634,-87.684881 7.93749,-3.0921 9.07022,-3.54502 106.5604,-41.54732 3.35623,-1.31523 24.33269,-9.485335 a 35.693538,37.052894 0 0 1 34.97195,5.861915 l 62.66087,52.47854 7.02292,5.87934 0.31884,0.27001 18.14044,15.20789 120.74048,101.194291 a 41.676023,43.263217 0 0 1 12.77886,48.99449 z"
     fill="#f34a12"
     data-primary="true"
     id="path4"
     style="fill:#ffffff;fill-opacity:1;stroke:#000000;stroke-width:0.854887;stroke-opacity:1" />
  <line
     x1="612.52277"
     y1="453.85352"
     x2="500.62277"
     y2="453.85352"
     fill="none"
     stroke="#ff0000"
     stroke-miterlimit="10"
     stroke-width="0.25"
     id="line8" />
  <rect
     x="500.62277"
     y="411.28354"
     width="111.9"
     height="108.25"
     fill="#f34a12"
     data-primary="true"
     id="rect10" />
  <rect
     x="500.62277"
     y="411.28354"
     width="111.9"
     height="108.25"
     fill="#ffffff"
     opacity="0.6"
     id="rect12" />
  <g
     opacity="0.5"
     id="g24"
     transform="translate(-131.77724,-94.126451)">
    <rect
       x="632.40002"
       y="532.78003"
       width="111.9"
       height="1.22"
       fill="#ffffff"
       id="rect14" />
    <rect
       x="632.40002"
       y="559.53998"
       width="111.9"
       height="1.22"
       fill="#ffffff"
       id="rect16" />
    <rect
       x="632.40002"
       y="575.34998"
       width="111.9"
       height="1.22"
       fill="#ffffff"
       id="rect18" />
    <rect
       x="632.40002"
       y="588.72998"
       width="111.9"
       height="1.22"
       fill="#ffffff"
       id="rect20" />
    <rect
       x="632.40002"
       y="602.10999"
       width="111.9"
       height="1.22"
       fill="#ffffff"
       id="rect22" />
  </g>
  <path
     d="m 551.88276,448.99355 c 0,0 12,13.38 12,28 l 47.09,-20.62 z"
     fill="#f34a12"
     data-primary="true"
     id="path26" />
  <polygon
     points="610.48,630.83 616.59,631.91 594.83,476.07 586.18,493.25 "
     fill="#5d6166"
     id="polygon28"
     transform="translate(-131.77724,-94.126451)" />
  <path
     d="m 449.55276,194.78355 c 0,0 62,-7.3 62,28 0,0 10.94,175.15 -45.94,185.13 l -69.67,7 -9.67,-31.6 z"
     fill="#3f4347"
     id="path30" />
  <path
     d="m 404.81276,529.60355 -0.53,0.69 a 31.82,31.82 0 0 1 -16.59,11.28 c -18.6,5.12 -37.89,-0.14 -37.89,-0.14 -10.95,-2.43 -9.13,-9.31 -9.13,-9.31 v 0 a 3.86,3.86 0 0 0 1.24,2.3 6.08,6.08 0 0 0 3.32,1.61 c 7.75,1.3 42.27,6.31 52,-5.54 l 7.45,-6.3 v 0 a 4.28,4.28 0 0 1 0.13,5.41 z"
     fill="#000000"
     data-secondary="true"
     id="path32" />
  <path
     d="m 275.64276,529.55355 c 0,0 -1.25,7 7.26,7 a 98.4,98.4 0 0 0 35.62,-4.76 l 24.12,-4.34 a 5.6,5.6 0 0 0 4.48,-4.3 10,10 0 0 0 0.31,-2.21 l -8.58,-3.85 z"
     fill="#000000"
     data-secondary="true"
     id="path34" />
  <path
     d="m 336.40276,341.99355 c 0,0 -66.88,10.91 -62,35.24 0,0 0.41,13.65 13,44.53 l 33.25,72 c 0,0 21.69,2.11 29.68,-4.89 0,0 -17.11,-75.8 -27.68,-93.7 0,0 22.11,-8.57 36.18,-16.28 l 54.46,-31.76 -6.33,-19.73 -24.15,-5.64 z"
     fill="#000000"
     data-secondary="true"
     id="path36" />
  <path
     d="m 336.40276,341.99355 c 0,0 -66.88,10.91 -62,35.24 0,0 0.41,13.65 13,44.53 l 33.25,72 c 0,0 21.69,2.11 29.68,-4.89 0,0 -17.11,-75.8 -27.68,-93.7 0,0 22.11,-8.57 36.18,-16.28 l 54.46,-31.76 -6.33,-19.73 -24.15,-5.64 z"
     opacity="0.2"
     id="path38" />
  <path
     d="m 404.68276,524.18355 -7.45,6.3 c -10.94,13.38 -53.51,5.27 -53.51,5.27 -1.95,-1.17 -2.86,-2.4 -3,-3.64 -0.61,-4.83 10.47,-9.84 18.05,-12.67 a 35.2,35.2 0 0 1 10.58,-2.24 c 9.66,-0.47 9.73,-7 9.73,-7 l 21.81,-6.45 c 2.42,7.27 3.79,20.43 3.79,20.43 z"
     fill="#f34a12"
     data-primary="true"
     id="path40" />
  <path
     d="m 461.55276,310.33355 v 0 c -5.87,9.5 -27,17 -27,17 -11.38,4.86 -27.57,0 -27.57,0 l -43.76,-39.8 -3.93,-3.57 c -4.33,-3.8 -12.54,-21.62 -14.91,-26.89 a 1.07,1.07 0 0 0 -1.76,-0.28 c -15.33,16.23 -28.09,24.35 -28.09,24.35 l -16.17,-1.75 h -0.14 l -10.89,-1.18 c 5.68,-5.37 5.27,-27.48 5.27,-27.48 13.38,-10.95 21.89,-40.14 21.89,-40.14 1.25,-13.38 11.73,-15.92 11.73,-15.92 l 54,-20.57 13.07,-4.43 c 35,-2 52.76,20.38 52.76,20.38 20.82,24.44 12,69.19 12,69.19 0,12.17 4.86,45 4.86,45 a 8.25,8.25 0 0 1 -1.36,6.09 z"
     fill="#f34a12"
     data-primary="true"
     id="path42" />
  <path
     d="m 369.22276,192.35355 c -8.52,14.59 -7.3,32.84 -7.3,32.84 -2.43,-4.87 -3.65,-14.6 -3.65,-14.6 q -0.42,-3.81 -0.83,-6.64 a 33.86,33.86 0 0 0 -6.45,-15.63 l -2.45,-3.27 6.61,-30.18 8,2.17 17,17 z"
     fill="#f9b499"
     id="path44" />
  <path
     d="m 348.58276,185.05355 7.3,9.73 c 0,0 4.8,-7.65 3,-25.11 z"
     fill="#f7a48b"
     id="path46" />
  <path
     d="m 398.45276,203.29355 c 0,0 -31.62,-25.54 -36.49,21.9 0,0 -1.22,-18.25 7.3,-32.84 l 10.96,-18.25 -3.29,-3.29 c 0,0 16.43,-9.26 16.73,2.8 a 36.72,36.72 0 0 0 0.67,5.73 l 3.28,18.95 z"
     fill="#f34a12"
     data-primary="true"
     id="path48" />
  <path
     d="m 398.45276,203.29355 c 0,0 -31.62,-25.54 -36.49,21.9 0,0 -1.22,-18.25 7.3,-32.84 l 10.96,-18.25 -3.29,-3.29 c 0,0 16.43,-9.26 16.73,2.8 a 36.72,36.72 0 0 0 0.67,5.73 l 3.28,18.95 z"
     fill="#ffffff"
     opacity="0.3"
     id="path50" />
  <path
     d="m 398.45276,203.29355 c 0,0 -31.62,-25.54 -36.49,21.9 0,0 1.22,-35 18.24,-33.32 0,0 10.44,1.42 17.39,6.42 z"
     fill="#ffffff"
     opacity="0.3"
     id="path52" />
  <path
     d="m 358.83276,213.98355 v 0 c -4.33,-8.67 -6.6,-9.5 -6.6,-9.5 -6.08,-3.65 -10.41,13 -10.41,13 a 46.69,46.69 0 0 1 0,-22.77 50.84,50.84 0 0 0 9.76,-5.73 l 4.3,5.73 c 1.21,4.93 2.83,18.34 2.95,19.27 z"
     fill="#f34a12"
     data-primary="true"
     id="path54" />
  <path
     d="m 358.83276,213.98355 v 0 c -4.33,-8.67 -6.6,-9.5 -6.6,-9.5 -6.08,-3.65 -10.41,13 -10.41,13 a 46.69,46.69 0 0 1 0,-22.77 50.84,50.84 0 0 0 9.76,-5.73 l 4.3,5.73 c 1.21,4.93 2.83,18.34 2.95,19.27 z"
     fill="#ffffff"
     opacity="0.3"
     id="path56" />
  <path
     d="m 358.84276,214.01355 v 0 c -4.33,-8.67 -6.6,-9.5 -6.6,-9.5 -6.08,-3.65 -10.41,13 -10.41,13 0,0 -0.4,-11.61 5,-17.09 a 4.5,4.5 0 0 1 6.89,0.57 c 1.55,2.19 3.37,6.07 5.12,13.02 z"
     fill="#ffffff"
     opacity="0.3"
     id="path58" />
  <path
     d="m 377.94276,196.74355 c 0,0 -5.72,31.54 -10.27,39.13 h -5.77 l -12.27,-31.74 c 0,0 -1.83,-0.61 -5.09,6 a 138.53,138.53 0 0 1 17.42,37.51 l 1.26,39.89 20.18,18.34 -10.49,-57.61 v -12.13 c 0,0 16.73,-26.59 18.7,-37 a 19.34,19.34 0 0 0 -13.67,-2.39 z"
     fill="#000000"
     data-secondary="true"
     id="path60" />
  <path
     d="m 367.67276,235.87355 c 0,0 12.88,-20.58 15.14,-39.34 a 18.41,18.41 0 0 0 -4.87,0.22 c 0,0 -4.55,26.66 -10.27,39.12 z"
     opacity="0.2"
     id="path62" />
  <path
     d="m 361.90276,235.87355 -15.22,-29.43 c 0,0 1.57,-2.7 3,-2.31 z"
     opacity="0.2"
     id="path64" />
  <path
     d="m 361.96276,247.60355 a 57.81,57.81 0 0 0 10.95,0 l 0.51,3.52 c 0,0 -6.53,-1.43 -5.34,18.55 l 3.61,25.72 -8.47,-7.86 z"
     opacity="0.2"
     id="path66" />
  <path
     d="m 292.47276,257.87355 3.81,6.22 c 0,0 5.92,-1.6 -1.91,-11.75 0,0 9.21,5.67 14.07,14.18 0,0 4.87,-1.43 0,-11.66 0,0 -4.4,-8 -12.54,-7.28 l -3.27,3.13 z"
     opacity="0.2"
     id="path68" />
  <path
     d="m 363.22276,287.53355 -3.93,-3.57 c -4.33,-3.79 -12.54,-21.62 -14.91,-26.89 a 1.08,1.08 0 0 0 -1.77,-0.29 c -15.32,16.24 -28.08,24.36 -28.08,24.36 l -16.17,-1.75 c 1.31,0 15.24,-0.34 27.94,-14.32 a 46.32,46.32 0 0 0 9.26,-16 c 2,-5.58 5.48,-12.38 9,-2.87 l 18.47,34.92 z"
     opacity="0.2"
     id="path70" />
  <path
     d="m 393.58276,272.62355 8.52,-13.38 a 54.81,54.81 0 0 1 6.28,-8.12 16.31,16.31 0 0 0 4.67,-13.77 c 0,0 -4.83,-48.65 4.86,-53.48 l -1.51,57.64 c 0,0 8.81,0.74 10,11.69 0,0 -4.07,-8.77 -12.37,-5.6 0,0 9.61,4 9.77,16.94 0,0 -11.16,-16.94 -15.83,-7.45 0.02,-0.04 1.43,11.88 -14.39,15.53 z"
     opacity="0.2"
     id="path72" />
  <polygon
     points="511.95,429.81 572.26,390.47 391.57,369.19 257.2,400.04 "
     fill="#e1e1e2"
     id="polygon74"
     transform="translate(-131.77724,-94.126451)" />
  <polygon
     points="362.76,298.21 386.7,404.46 306.51,398.38 287.36,302.63 "
     fill="#f34a12"
     data-primary="true"
     id="polygon76"
     transform="translate(-131.77724,-94.126451)" />
  <polygon
     points="437.76,394.42 437.76,398.38 386.7,404.46 385.71,400.04 "
     fill="#f34a12"
     data-primary="true"
     id="polygon78"
     transform="translate(-131.77724,-94.126451)" />
  <polygon
     points="437.76,394.42 437.76,398.38 386.7,404.46 385.71,400.04 "
     opacity="0.2"
     id="polygon80"
     transform="translate(-131.77724,-94.126451)" />
  <polygon
     points="385.71,400.04 437.76,394.42 382.87,387.43 "
     fill="#000000"
     data-secondary="true"
     id="polygon82"
     transform="translate(-131.77724,-94.126451)" />
  <path
     d="m 396.02276,390.61355 c 7.29,17 4.86,113.11 4.86,113.11 -3.95,6.78 -10.53,8 -16.44,7.46 a 38.79,38.79 0 0 1 -12.75,-3.81 l -25.54,-114.33 c -12.17,-41.36 29.07,-43.39 29.07,-43.39 27.84,-3.25 31.75,-22.29 31.75,-22.29 0,0 16.19,4.86 27.57,0 0,0 12.46,-4.43 20.9,-10.79 a 24.13,24.13 0 0 0 6.12,-6.23 l 5,29.18 c 12.17,51.09 -70.54,51.09 -70.54,51.09 z"
     fill="#000000"
     data-secondary="true"
     id="path84" />
  <path
     d="m 396.02276,390.61355 c 7.29,17 4.86,113.11 4.86,113.11 -3.95,6.78 -10.53,8 -16.44,7.46 23,-3.82 1.85,-95 1.85,-95 -6.09,-9.73 -2.44,-12.48 -2.44,-12.48 a 14.87,14.87 0 0 0 4.87,-7 c 2.43,-9.73 -4.87,-3.65 -4.87,-3.65 0,-8.52 34.06,-14.6 34.06,-14.6 7.2,-0.6 17.07,-4.75 25.22,-8.81 15.31,-7.61 23,-25.32 17.42,-41.5 a 74.32,74.32 0 0 0 -5.12,-11.56 24.13,24.13 0 0 0 6.12,-6.23 l 5,29.18 c 12.18,51.08 -70.53,51.08 -70.53,51.08 z"
     opacity="0.2"
     id="path86" />
  <path
     d="m 320.61276,493.76355 c 0,0 0.47,11.76 -13.75,17.55 0,0 -38.56,15.52 -30,20.39 0,0 24.32,1.21 41.35,-4.87 0,0 23.25,-6.89 29.26,-5.88 v -30.23 c 0,0 -7.4,5.24 -26.86,3.04 z"
     fill="#f34a12"
     data-primary="true"
     id="path88" />
  <polygon
     points="280.16,411.76 296.34,411.76 260.26,618.31 250.31,618.31 "
     fill="#e1e1e2"
     id="polygon90"
     transform="translate(-131.77724,-94.126451)" />
  <polygon
     points="519.47,635.7 527.74,635.7 499.86,438.18 485.23,433.65 "
     fill="#e1e1e2"
     id="polygon92"
     transform="translate(-131.77724,-94.126451)" />
  <ellipse
     cx="154.05028"
     cy="329.66565"
     rx="28.969999"
     ry="37.720001"
     transform="rotate(-38.66)"
     fill="#f9b499"
     id="ellipse102" />
  <path
     d="m 295.22276,163.35355 c 0,0 -7.43,1 -7.43,-6.28 v -11.64 c 0,0 -6.08,-44.31 29.2,-34.58 0,0 -2.44,-4.69 0,-6.6 0,0 1.21,-1.91 6.08,4.17 0,0 -3.34,-8.910001 3.19,-4.45 0,0 5.32,5.67 9,10.53 0,0 10.95,-12.16 15.81,-6.08 0,0 1.22,4.52 -2.43,10.17 0,0 6.08,-6.52 10.95,-2.87 0,0 2.43,2.43 -3.65,9.73 0,0 21.47,1 6.48,18.14 0,0 -13.78,8.62 -21.08,-4.76 0,0 -4.41,7.92 -13.76,-5.77 0,0 -8.13,19.15 -10.56,4.55 0,0 -3.65,14.6 -9.73,4.87 0,0 -4.79,-4.68 -13.34,14.69 a 30.57,30.57 0 0 0 1.27,6.18 z"
     fill="#000000"
     data-secondary="true"
     id="path104" />
  <path
     d="m 296.07276,140.76355 -8.2,4.2 v 12.13 c 0,0 -0.5,4.19 3.38,5.75 a 9.41,9.41 0 0 0 4,0.55 c 1.41,-0.12 1.4,4.06 1.4,4.06 -0.89,4.26 -7.39,14.8 -7.39,14.8 l 1.47,31.71 a 0.25,0.25 0 0 1 0,0.09 l 1.83,34.25 c 0,30.4 -6.08,31.62 -6.08,31.62 -1.9,2 -3.6,1.36 -5.92,1.9 a 14.86,14.86 0 0 1 -17.5,-10.74 c -7.52,-27.64 7.69,-95.79 7.69,-95.79 l 1.29,-28 c 0,0 0,-7.29 3.68,-9.72 0,0 14.63,-13.33 20.71,-13.32 0,0 8,-0.67 0.31,6.34 0,0 10.94,-3.47 4.08,3 0.07,0.02 7.04,1.81 -4.75,7.17 z"
     fill="#f9b499"
     id="path106" />
  <path
     d="m 270.74276,175.32355 c 6.88,-1.65 13.23,-7.12 13.3,-14.56 -0.14,-5.1 -0.08,-10.22 0.05,-15.33 v -0.41 l 0.38,-0.05 3.17,-0.4 c 2.14,-1.09 5.61,-2.68 8.24,-3.84 -2.69,1.56 -5.37,3.16 -8.13,4.59 l -3.14,0.57 0.4,-0.46 c 0.11,4.08 0.13,8.17 0.14,12.25 a 19.35,19.35 0 0 1 -0.43,6.32 c -1.5,6.36 -7.79,10.5 -14,11.32 z"
     fill="#f7a48b"
     id="path108" />
  <ellipse
     cx="236.48468"
     cy="307.64975"
     rx="6.9000001"
     ry="10.57"
     transform="rotate(-30)"
     fill="#f9b499"
     id="ellipse110" />
  <path
     d="m 290.82276,213.94355 a 66.09,66.09 0 0 0 -12.53,-31.71 h 11 z"
     fill="#f7a48b"
     id="path112" />
  <path
     d="m 125.42276,305.87355 c 0.57,-0.45 0,11.72 0,11.72 l 255.19,29.46 -0.39,-11.37 z"
     fill="#c2c4c6"
     id="path114" />
  <polygon
     points="511.95,429.81 573.5,389.76 573.5,399.5 512.39,441.22 "
     fill="#9ea0a3"
     id="polygon116"
     transform="translate(-131.77724,-94.126451)" />
  <path
     d="m 449.53276,292.08355 c 0,0 1.45,1.45 -3.35,3.56 -4,1.75 -12.35,4 -29.49,6.17 l -46.22,1.22 c 0,0 -14.17,6 -25.93,1.19 a 11.08,11.08 0 0 0 -6.43,1.69 c 0,0 -6.89,4.1 -7.32,0 0,0 -10.18,2 -11.4,-1.66 0,0 -3.65,2.43 -4.87,-4.87 0,0 -3,1.16 -3.91,-3.08 a 5.64,5.64 0 0 1 1.48,-5.43 l 9.73,-7.3 c 0,0 2.43,-3.65 9.73,-1.22 l 13,1.12 a 89.88,89.88 0 0 0 11.75,0.63 c 5.67,-0.06 12.26,-0.73 17.13,-3 0,0 44.49,-18.23 56.65,-13.36 -0.01,0.02 26.75,13.4 19.45,24.34 z"
     fill="#f9b499"
     id="path118" />
  <path
     d="m 449.53276,292.08355 c 0,0 1.45,1.45 -3.35,3.56 l -0.46,-0.26 c 2.26,-13.72 -8.35,-19.11 -8.35,-19.11 -13.38,-13.38 -49.87,3.65 -49.87,3.65 -19.46,9.73 -31.21,4.18 -31.21,4.18 5.67,-0.06 12.26,-0.73 17.13,-3 0,0 44.49,-18.23 56.65,-13.36 0,0.02 26.76,13.4 19.46,24.34 z"
     fill="#f7a48b"
     id="path120" />
  <path
     d="m 320.61276,293.30355 a 15,15 0 0 1 -6.09,6.08 15.11,15.11 0 0 1 6.09,-6.08 z"
     fill="#f7a48b"
     id="path122" />
  <path
     d="m 325.92276,296.34355 a 21.32,21.32 0 0 1 -6.53,7.91 21.24,21.24 0 0 1 6.53,-7.91 z"
     fill="#f7a48b"
     id="path124" />
  <path
     d="m 330.78276,305.87355 a 5.74,5.74 0 0 1 3.2,-4.1 5.7,5.7 0 0 1 -3.2,4.1 z"
     fill="#f7a48b"
     id="path126" />
  <line
     x1="651.44275"
     y1="491.56354"
     x2="539.54279"
     y2="491.56354"
     fill="none"
     stroke="#ff0000"
     stroke-miterlimit="10"
     stroke-width="0.25"
     id="line128" />
  <rect
     x="539.54279"
     y="448.99353"
     width="111.9"
     height="108.25"
     fill="#f34a12"
     data-primary="true"
     id="rect130" />
  <rect
     x="539.54279"
     y="448.99353"
     width="111.9"
     height="108.25"
     fill="#ffffff"
     opacity="0.5"
     id="rect132" />
  <g
     opacity="0.5"
     id="g144"
     transform="translate(-131.77724,-94.126451)">
    <rect
       x="671.32001"
       y="570.48999"
       width="111.9"
       height="1.22"
       fill="#ffffff"
       id="rect134" />
    <rect
       x="671.32001"
       y="597.23999"
       width="111.9"
       height="1.22"
       fill="#ffffff"
       id="rect136" />
    <rect
       x="671.32001"
       y="613.06"
       width="111.9"
       height="1.22"
       fill="#ffffff"
       id="rect138" />
    <rect
       x="671.32001"
       y="626.44"
       width="111.9"
       height="1.22"
       fill="#ffffff"
       id="rect140" />
    <rect
       x="671.32001"
       y="639.82001"
       width="111.9"
       height="1.22"
       fill="#ffffff"
       id="rect142" />
  </g>
  <path
     d="m 590.80276,486.69355 c 0,0 12,13.38 12,28 l 47.09,-20.62 z"
     fill="#f34a12"
     data-primary="true"
     id="path146" />
  <rect
     x="470.21274"
     y="456.29352"
     width="111.9"
     height="108.25"
     fill="#e6e6e6"
     id="rect148" />
  <g
     opacity="0.08"
     id="g160"
     transform="translate(-131.77724,-94.126451)">
    <rect
       x="601.98999"
       y="577.78003"
       width="111.9"
       height="1.22"
       id="rect150" />
    <rect
       x="601.98999"
       y="604.53998"
       width="111.9"
       height="1.22"
       id="rect152" />
    <rect
       x="601.98999"
       y="620.34998"
       width="111.9"
       height="1.22"
       id="rect154" />
    <rect
       x="601.98999"
       y="633.72998"
       width="111.9"
       height="1.22"
       id="rect156" />
    <rect
       x="601.98999"
       y="647.10999"
       width="111.9"
       height="1.22"
       id="rect158" />
  </g>
  <path
     d="m 576.03276,491.56355 -99.74,10.95 79.76,18.44 c 0,0 5.39,-19.66 19.98,-29.39 z"
     fill="#cccccc"
     id="path162" />
  <path
     d="m 484.81276,467.93355 c 0,0 10.94,10.25 10.94,18.76 0,0 26.76,-13.38 40.14,-13.38 z"
     fill="#cccccc"
     id="path164" />
  <rect
     x="80.992767"
     y="380.87354"
     width="172.72"
     height="124.06"
     fill="#f34a12"
     data-primary="true"
     id="rect166" />
  <rect
     x="76.132767"
     y="355.33353"
     width="182.45"
     height="30.41"
     fill="#f34a12"
     data-primary="true"
     id="rect168" />
  <rect
     x="76.132767"
     y="355.33353"
     width="182.45"
     height="30.41"
     fill="#ffffff"
     opacity="0.3"
     id="rect170" />
  <line
     x1="261.01276"
     y1="459.94354"
     x2="149.10277"
     y2="459.94354"
     fill="none"
     stroke="#ff0000"
     stroke-miterlimit="10"
     stroke-width="0.25"
     id="line172" />
  <rect
     x="149.10277"
     y="417.36353"
     width="111.9"
     height="108.25"
     fill="#f34a12"
     data-primary="true"
     id="rect174" />
  <rect
     x="149.10277"
     y="417.36353"
     width="111.9"
     height="108.25"
     fill="#ffffff"
     opacity="0.5"
     id="rect176" />
  <g
     opacity="0.5"
     id="g188"
     transform="translate(-131.77724,-94.126451)">
    <rect
       x="280.88"
       y="538.85999"
       width="111.9"
       height="1.22"
       fill="#ffffff"
       id="rect178" />
    <rect
       x="280.88"
       y="565.62"
       width="111.9"
       height="1.22"
       fill="#ffffff"
       id="rect180" />
    <rect
       x="280.88"
       y="581.42999"
       width="111.9"
       height="1.22"
       fill="#ffffff"
       id="rect182" />
    <rect
       x="280.88"
       y="594.81"
       width="111.9"
       height="1.22"
       fill="#ffffff"
       id="rect184" />
    <rect
       x="280.88"
       y="608.19"
       width="111.9"
       height="1.22"
       fill="#ffffff"
       id="rect186" />
  </g>
  <path
     d="m 200.36276,455.07355 c 0,0 12,13.38 12,28 l 47.09,-20.63 z"
     fill="#f34a12"
     data-primary="true"
     id="path190" />
</svg>
