<?xml version="1.0" encoding="UTF-8" standalone="no"?>
<svg
   width="710.65582"
   height="541.99756"
   viewBox="0 0 710.65581 541.99755"
   version="1.1"
   id="svg286"
   sodipodi:docname="report.svg"
   inkscape:version="1.1 (c68e22c387, 2021-05-23)"
   xmlns:inkscape="http://www.inkscape.org/namespaces/inkscape"
   xmlns:sodipodi="http://sodipodi.sourceforge.net/DTD/sodipodi-0.dtd"
   xmlns="http://www.w3.org/2000/svg"
   xmlns:svg="http://www.w3.org/2000/svg"
   xmlns:xhtml="http://www.w3.org/1999/xhtml">
  <sodipodi:namedview
     id="namedview288"
     pagecolor="#ffffff"
     bordercolor="#666666"
     borderopacity="1.0"
     inkscape:pageshadow="2"
     inkscape:pageopacity="0.0"
     inkscape:pagecheckerboard="0"
     showgrid="false"
     inkscape:zoom="1.2783903"
     inkscape:cx="534.26561"
     inkscape:cy="258.52824"
     inkscape:window-width="2560"
     inkscape:window-height="1361"
     inkscape:window-x="-9"
     inkscape:window-y="-9"
     inkscape:window-maximized="1"
     inkscape:current-layer="svg286" />
  <defs
     id="defs2">
    <xhtml:style>*, ::after, ::before { box-sizing: border-box; }
img, svg { vertical-align: middle; }
</xhtml:style>
    <xhtml:style>*, body, html { -webkit-font-smoothing: antialiased; }
img, svg { max-width: 100%; }
</xhtml:style>
  </defs>
  <path
     d="m -139.79026,199.85068 -141.17,372.6 h -518.16 a 41.26,41.26 0 0 1 -40.33,-32.56 l -83,-383.51 a 45.38,45.38 0 0 1 28.45,-52.07 l 268.1,-100.6700006 9.46,-3.56000103 10.81,-4.05999997 127,-47.7000004 4.05,-1.51 29,-10.9 a 42.58,42.58 0 0 1 41.68,6.73 l 74.6,60.2600014 8.4,6.75 0.38,0.31 21.62,17.4599996 143.87,116.180001 a 49.67,49.67 0 0 1 15.24,56.25 z"
     fill="#fff"
     opacity="0.7"
     id="path6"
     style="fill:#ffffff;fill-opacity:1" />
  <path
     d="M 704.3938,226.15344 583.68321,541.57219 H 140.61888 A 35.280289,34.928013 0 0 1 106.1338,514.00903 L 35.162788,189.35458 A 38.803188,38.415736 0 0 1 59.48959,145.27553 l 229.24494,-85.220631 8.08898,-3.01366 9.24333,-3.43693 108.59421,-40.3797 3.46303,-1.27826 24.79711,-9.22723 a 36.408985,36.045439 0 0 1 35.63942,5.69718 l 63.78839,51.01217 7.18262,5.7141 0.32492,0.26243 18.48668,14.78049 123.01926,98.350381 a 42.471448,42.047369 0 0 1 13.03132,47.61757 z"
     fill="#f34a12"
     data-primary="true"
     id="path4"
     style="fill:#fdffff;fill-opacity:1;stroke:#000000;stroke-width:0.850792;stroke-opacity:1" />
  <g
     id="g6226"
     transform="matrix(1.140164,0,0,1.2605714,-79.6231,-140.14349)">
    <polygon
       points="667.54,632.27 661.96,610 626,610 629.57,632.27 "
       fill="#f34a12"
       data-primary="true"
       id="polygon8"
       transform="translate(-61,-97.677811)" />
    <polygon
       points="667.54,632.27 661.96,610 626,610 629.57,632.27 "
       opacity="0.2"
       id="polygon10"
       transform="translate(-61,-97.677811)" />
    <g
       opacity="0.2"
       id="g14"
       transform="translate(-61,-97.677811)">
      <path
         d="m 631.11,621.63 a 0.5,0.5 0 0 1 -0.49,-0.42 L 629,610.07 a 0.50559371,0.50559371 0 1 1 1,-0.15 l 1.64,11.14 a 0.51,0.51 0 0 1 -0.42,0.57 z"
         id="path12" />
    </g>
    <path
       d="M 667.08,512.32219 H 451.25 a 11,11 0 0 1 -11,-12.18 l 13.68,-130 a 11,11 0 0 1 11,-9.87 h 216.42 a 10.48,10.48 0 0 1 10.43,11.59 l -13.78,130.58 a 11,11 0 0 1 -10.92,9.88 z"
       fill="#f34a12"
       data-primary="true"
       id="path16" />
    <rect
       x="84"
       y="357.59216"
       width="132"
       height="184"
       fill="#000000"
       data-secondary="true"
       id="rect18" />
    <path
       d="m 178,351.59219 h 39.61 a 6.39,6.39 0 0 1 6.39,6.39 v 14.71 a 6.39,6.39 0 0 1 -6.39,6.39 H 178 v -27.5 z"
       fill="#f34a12"
       data-primary="true"
       id="path20" />
    <path
       d="m 178,351.59219 h 39.61 a 6.39,6.39 0 0 1 6.39,6.39 v 14.71 a 6.39,6.39 0 0 1 -6.39,6.39 H 178 v -27.5 z"
       fill="#ffffff"
       opacity="0.4"
       id="path22" />
    <path
       d="M 182.11,351.59219 H 76.89 a 4.89,4.89 0 0 0 -4.89,4.89 v 17.72 a 4.89,4.89 0 0 0 4.89,4.89 H 115 v -2.43 a 4.07,4.07 0 0 1 4.07,-4.07 h 39.86 a 4.07,4.07 0 0 1 4.07,4.07 v 2.43 h 19.11 a 4.89,4.89 0 0 0 4.89,-4.89 v -17.72 a 4.89,4.89 0 0 0 -4.89,-4.89 z"
       fill="#f34a12"
       data-primary="true"
       id="path24" />
    <path
       d="M 182.11,351.59219 H 76.89 a 4.89,4.89 0 0 0 -4.89,4.89 v 17.72 a 4.89,4.89 0 0 0 4.89,4.89 H 115 v -2.43 a 4.07,4.07 0 0 1 4.07,-4.07 h 39.86 a 4.07,4.07 0 0 1 4.07,4.07 v 2.43 h 19.11 a 4.89,4.89 0 0 0 4.89,-4.89 v -17.72 a 4.89,4.89 0 0 0 -4.89,-4.89 z"
       fill="#ffffff"
       opacity="0.3"
       id="path26" />
    <path
       d="m 98,363.59219 h -4.18 a 3,3 0 1 0 0,2 H 98 a 1,1 0 0 0 0,-2 z"
       fill="#000000"
       data-secondary="true"
       id="path28" />
    <circle
       cx="82"
       cy="364.59216"
       r="3"
       fill="#000000"
       data-secondary="true"
       id="circle30" />
    <circle
       cx="82"
       cy="364.59216"
       r="2"
       opacity="0.2"
       id="circle32" />
    <circle
       cx="91"
       cy="364.59216"
       r="2"
       fill="#ffffff"
       id="circle34" />
    <path
       d="m 176,361.59219 a 2,2 0 0 1 -2,2 h -65 a 2,2 0 0 1 -2,-2 2,2 0 0 1 2,-2 h 65 a 2,2 0 0 1 2,2 z"
       fill="#ffffff"
       id="path36" />
    <path
       d="m 176,361.59219 a 2,2 0 0 1 -2,2 h -51 v -4 h 51 a 2,2 0 0 1 2,2 z"
       fill="#f34a12"
       data-primary="true"
       id="path38" />
    <path
       d="m 176,367.59219 a 2,2 0 0 1 -2,2 h -65 a 2,2 0 0 1 -2,-2 2,2 0 0 1 2,-2 h 65 a 2,2 0 0 1 2,2 z"
       fill="#ffffff"
       id="path40" />
    <path
       d="m 176,367.59219 a 2,2 0 0 1 -2,2 h -59 v -4 h 59 a 2,2 0 0 1 2,2 z"
       fill="#000000"
       data-secondary="true"
       id="path42" />
    <path
       d="m 178,383.59219 h 39.61 a 6.39,6.39 0 0 1 6.39,6.39 v 14.71 a 6.39,6.39 0 0 1 -6.39,6.39 H 178 v -27.5 z"
       fill="#f34a12"
       data-primary="true"
       id="path44" />
    <path
       d="m 178,383.59219 h 39.61 a 6.39,6.39 0 0 1 6.39,6.39 v 14.71 a 6.39,6.39 0 0 1 -6.39,6.39 H 178 v -27.5 z"
       fill="#ffffff"
       opacity="0.4"
       id="path46" />
    <path
       d="M 182.11,383.59219 H 76.89 a 4.89,4.89 0 0 0 -4.89,4.89 v 17.72 a 4.89,4.89 0 0 0 4.89,4.89 H 115 v -2.43 a 4.07,4.07 0 0 1 4.07,-4.07 h 39.86 a 4.07,4.07 0 0 1 4.07,4.07 v 2.43 h 19.11 a 4.89,4.89 0 0 0 4.89,-4.89 v -17.72 a 4.89,4.89 0 0 0 -4.89,-4.89 z"
       fill="#f34a12"
       data-primary="true"
       id="path48" />
    <path
       d="M 182.11,383.59219 H 76.89 a 4.89,4.89 0 0 0 -4.89,4.89 v 17.72 a 4.89,4.89 0 0 0 4.89,4.89 H 115 v -2.43 a 4.07,4.07 0 0 1 4.07,-4.07 h 39.86 a 4.07,4.07 0 0 1 4.07,4.07 v 2.43 h 19.11 a 4.89,4.89 0 0 0 4.89,-4.89 v -17.72 a 4.89,4.89 0 0 0 -4.89,-4.89 z"
       fill="#ffffff"
       opacity="0.3"
       id="path50" />
    <path
       d="m 98,395.59219 h -4.18 a 3,3 0 1 0 0,2 H 98 a 1,1 0 0 0 0,-2 z"
       fill="#000000"
       data-secondary="true"
       id="path52" />
    <circle
       cx="82"
       cy="396.59216"
       r="3"
       fill="#000000"
       data-secondary="true"
       id="circle54" />
    <circle
       cx="82"
       cy="396.59216"
       r="2"
       opacity="0.2"
       id="circle56" />
    <circle
       cx="91"
       cy="396.59216"
       r="2"
       fill="#ffffff"
       id="circle58" />
    <path
       d="m 176,393.59219 a 2,2 0 0 1 -2,2 h -65 a 2,2 0 0 1 -2,-2 2,2 0 0 1 2,-2 h 65 a 2,2 0 0 1 2,2 z"
       fill="#ffffff"
       id="path60" />
    <path
       d="m 176,393.59219 a 2,2 0 0 1 -2,2 h -51 v -4 h 51 a 2,2 0 0 1 2,2 z"
       fill="#f34a12"
       data-primary="true"
       id="path62" />
    <path
       d="m 176,399.59219 a 2,2 0 0 1 -2,2 h -65 a 2,2 0 0 1 -2,-2 2,2 0 0 1 2,-2 h 65 a 2,2 0 0 1 2,2 z"
       fill="#ffffff"
       id="path64" />
    <path
       d="m 176,399.59219 a 2,2 0 0 1 -2,2 h -59 v -4 h 59 a 2,2 0 0 1 2,2 z"
       fill="#000000"
       data-secondary="true"
       id="path66" />
    <path
       d="m 178,414.59219 h 39.61 a 6.39,6.39 0 0 1 6.39,6.39 v 14.71 a 6.39,6.39 0 0 1 -6.39,6.39 H 178 v -27.5 z"
       fill="#f34a12"
       data-primary="true"
       id="path68" />
    <path
       d="m 178,414.59219 h 39.61 a 6.39,6.39 0 0 1 6.39,6.39 v 14.71 a 6.39,6.39 0 0 1 -6.39,6.39 H 178 v -27.5 z"
       fill="#ffffff"
       opacity="0.4"
       id="path70" />
    <path
       d="M 182.11,414.59219 H 76.89 a 4.89,4.89 0 0 0 -4.89,4.89 v 17.72 a 4.89,4.89 0 0 0 4.89,4.89 H 115 v -2.43 a 4.07,4.07 0 0 1 4.07,-4.07 h 39.86 a 4.07,4.07 0 0 1 4.07,4.07 v 2.43 h 19.11 a 4.89,4.89 0 0 0 4.89,-4.89 v -17.72 a 4.89,4.89 0 0 0 -4.89,-4.89 z"
       fill="#f34a12"
       data-primary="true"
       id="path72" />
    <path
       d="M 182.11,414.59219 H 76.89 a 4.89,4.89 0 0 0 -4.89,4.89 v 17.72 a 4.89,4.89 0 0 0 4.89,4.89 H 115 v -2.43 a 4.07,4.07 0 0 1 4.07,-4.07 h 39.86 a 4.07,4.07 0 0 1 4.07,4.07 v 2.43 h 19.11 a 4.89,4.89 0 0 0 4.89,-4.89 v -17.72 a 4.89,4.89 0 0 0 -4.89,-4.89 z"
       fill="#ffffff"
       opacity="0.3"
       id="path74" />
    <path
       d="m 98,426.59219 h -4.18 a 3,3 0 1 0 0,2 H 98 a 1,1 0 0 0 0,-2 z"
       fill="#000000"
       data-secondary="true"
       id="path76" />
    <circle
       cx="82"
       cy="427.59219"
       r="3"
       fill="#000000"
       data-secondary="true"
       id="circle78" />
    <circle
       cx="82"
       cy="427.59219"
       r="2"
       opacity="0.2"
       id="circle80" />
    <circle
       cx="91"
       cy="427.59219"
       r="2"
       fill="#ffffff"
       id="circle82" />
    <path
       d="m 176,424.59219 a 2,2 0 0 1 -2,2 h -65 a 2,2 0 0 1 -2,-2 2,2 0 0 1 2,-2 h 65 a 2,2 0 0 1 2,2 z"
       fill="#ffffff"
       id="path84" />
    <path
       d="m 176,424.59219 a 2,2 0 0 1 -2,2 h -51 v -4 h 51 a 2,2 0 0 1 2,2 z"
       fill="#f34a12"
       data-primary="true"
       id="path86" />
    <path
       d="m 176,430.59219 a 2,2 0 0 1 -2,2 h -65 a 2,2 0 0 1 -2,-2 2,2 0 0 1 2,-2 h 65 a 2,2 0 0 1 2,2 z"
       fill="#ffffff"
       id="path88" />
    <path
       d="m 176,430.59219 a 2,2 0 0 1 -2,2 h -59 v -4 h 59 a 2,2 0 0 1 2,2 z"
       fill="#000000"
       data-secondary="true"
       id="path90" />
    <path
       d="m 178,446.59219 h 39.61 a 6.39,6.39 0 0 1 6.39,6.39 v 14.71 a 6.39,6.39 0 0 1 -6.39,6.39 H 178 v -27.5 z"
       fill="#f34a12"
       data-primary="true"
       id="path92" />
    <path
       d="m 178,446.59219 h 39.61 a 6.39,6.39 0 0 1 6.39,6.39 v 14.71 a 6.39,6.39 0 0 1 -6.39,6.39 H 178 v -27.5 z"
       fill="#ffffff"
       opacity="0.4"
       id="path94" />
    <path
       d="M 182.11,446.59219 H 76.89 a 4.89,4.89 0 0 0 -4.89,4.89 v 17.72 a 4.89,4.89 0 0 0 4.89,4.89 H 115 v -2.43 a 4.07,4.07 0 0 1 4.07,-4.07 h 39.86 a 4.07,4.07 0 0 1 4.07,4.07 v 2.43 h 19.11 a 4.89,4.89 0 0 0 4.89,-4.89 v -17.72 a 4.89,4.89 0 0 0 -4.89,-4.89 z"
       fill="#f34a12"
       data-primary="true"
       id="path96" />
    <path
       d="M 182.11,446.59219 H 76.89 a 4.89,4.89 0 0 0 -4.89,4.89 v 17.72 a 4.89,4.89 0 0 0 4.89,4.89 H 115 v -2.43 a 4.07,4.07 0 0 1 4.07,-4.07 h 39.86 a 4.07,4.07 0 0 1 4.07,4.07 v 2.43 h 19.11 a 4.89,4.89 0 0 0 4.89,-4.89 v -17.72 a 4.89,4.89 0 0 0 -4.89,-4.89 z"
       fill="#ffffff"
       opacity="0.3"
       id="path98" />
    <path
       d="m 98,458.59219 h -4.18 a 3,3 0 1 0 0,2 H 98 a 1,1 0 0 0 0,-2 z"
       fill="#000000"
       data-secondary="true"
       id="path100" />
    <circle
       cx="82"
       cy="459.59219"
       r="3"
       fill="#000000"
       data-secondary="true"
       id="circle102" />
    <circle
       cx="82"
       cy="459.59219"
       r="2"
       opacity="0.2"
       id="circle104" />
    <circle
       cx="91"
       cy="459.59219"
       r="2"
       fill="#ffffff"
       id="circle106" />
    <path
       d="m 176,456.59219 a 2,2 0 0 1 -2,2 h -65 a 2,2 0 0 1 -2,-2 2,2 0 0 1 2,-2 h 65 a 2,2 0 0 1 2,2 z"
       fill="#ffffff"
       id="path108" />
    <path
       d="m 176,456.59219 a 2,2 0 0 1 -2,2 h -51 v -4 h 51 a 2,2 0 0 1 2,2 z"
       fill="#f34a12"
       data-primary="true"
       id="path110" />
    <path
       d="m 176,462.59219 a 2,2 0 0 1 -2,2 h -65 a 2,2 0 0 1 -2,-2 2,2 0 0 1 2,-2 h 65 a 2,2 0 0 1 2,2 z"
       fill="#ffffff"
       id="path112" />
    <path
       d="m 176,462.59219 a 2,2 0 0 1 -2,2 h -59 v -4 h 59 a 2,2 0 0 1 2,2 z"
       fill="#000000"
       data-secondary="true"
       id="path114" />
    <path
       d="m 178,478.59219 h 39.61 a 6.39,6.39 0 0 1 6.39,6.39 v 14.71 a 6.39,6.39 0 0 1 -6.39,6.39 H 178 v -27.5 z"
       fill="#f34a12"
       data-primary="true"
       id="path116" />
    <path
       d="m 178,478.59219 h 39.61 a 6.39,6.39 0 0 1 6.39,6.39 v 14.71 a 6.39,6.39 0 0 1 -6.39,6.39 H 178 v -27.5 z"
       fill="#ffffff"
       opacity="0.4"
       id="path118" />
    <path
       d="M 182.11,478.59219 H 76.89 a 4.89,4.89 0 0 0 -4.89,4.89 v 17.72 a 4.89,4.89 0 0 0 4.89,4.89 H 115 v -2.43 a 4.07,4.07 0 0 1 4.07,-4.07 h 39.86 a 4.07,4.07 0 0 1 4.07,4.07 v 2.43 h 19.11 a 4.89,4.89 0 0 0 4.89,-4.89 v -17.72 a 4.89,4.89 0 0 0 -4.89,-4.89 z"
       fill="#f34a12"
       data-primary="true"
       id="path120" />
    <path
       d="M 182.11,478.59219 H 76.89 a 4.89,4.89 0 0 0 -4.89,4.89 v 17.72 a 4.89,4.89 0 0 0 4.89,4.89 H 115 v -2.43 a 4.07,4.07 0 0 1 4.07,-4.07 h 39.86 a 4.07,4.07 0 0 1 4.07,4.07 v 2.43 h 19.11 a 4.89,4.89 0 0 0 4.89,-4.89 v -17.72 a 4.89,4.89 0 0 0 -4.89,-4.89 z"
       fill="#ffffff"
       opacity="0.3"
       id="path122" />
    <path
       d="m 98,490.59219 h -4.18 a 3,3 0 1 0 0,2 H 98 a 1,1 0 0 0 0,-2 z"
       fill="#000000"
       data-secondary="true"
       id="path124" />
    <circle
       cx="82"
       cy="491.59219"
       r="3"
       fill="#000000"
       data-secondary="true"
       id="circle126" />
    <circle
       cx="82"
       cy="491.59219"
       r="2"
       opacity="0.2"
       id="circle128" />
    <circle
       cx="91"
       cy="491.59219"
       r="2"
       fill="#ffffff"
       id="circle130" />
    <path
       d="m 176,488.59219 a 2,2 0 0 1 -2,2 h -65 a 2,2 0 0 1 -2,-2 2,2 0 0 1 2,-2 h 65 a 2,2 0 0 1 2,2 z"
       fill="#ffffff"
       id="path132" />
    <path
       d="m 176,488.59219 a 2,2 0 0 1 -2,2 h -51 v -4 h 51 a 2,2 0 0 1 2,2 z"
       fill="#f34a12"
       data-primary="true"
       id="path134" />
    <path
       d="m 176,494.59219 a 2,2 0 0 1 -2,2 h -65 a 2,2 0 0 1 -2,-2 2,2 0 0 1 2,-2 h 65 a 2,2 0 0 1 2,2 z"
       fill="#ffffff"
       id="path136" />
    <path
       d="m 176,494.59219 a 2,2 0 0 1 -2,2 h -59 v -4 h 59 a 2,2 0 0 1 2,2 z"
       fill="#000000"
       data-secondary="true"
       id="path138" />
    <path
       d="m 178,510.59219 h 39.61 a 6.39,6.39 0 0 1 6.39,6.39 v 14.71 a 6.39,6.39 0 0 1 -6.39,6.39 H 178 v -27.5 z"
       fill="#f34a12"
       data-primary="true"
       id="path140" />
    <path
       d="m 178,510.59219 h 39.61 a 6.39,6.39 0 0 1 6.39,6.39 v 14.71 a 6.39,6.39 0 0 1 -6.39,6.39 H 178 v -27.5 z"
       fill="#ffffff"
       opacity="0.4"
       id="path142" />
    <path
       d="M 182.11,510.59219 H 76.89 a 4.89,4.89 0 0 0 -4.89,4.89 v 17.72 a 4.89,4.89 0 0 0 4.89,4.89 H 115 v -2.43 a 4.07,4.07 0 0 1 4.07,-4.07 h 39.86 a 4.07,4.07 0 0 1 4.07,4.07 v 2.43 h 19.11 a 4.89,4.89 0 0 0 4.89,-4.89 v -17.72 a 4.89,4.89 0 0 0 -4.89,-4.89 z"
       fill="#f34a12"
       data-primary="true"
       id="path144" />
    <path
       d="M 182.11,510.59219 H 76.89 a 4.89,4.89 0 0 0 -4.89,4.89 v 17.72 a 4.89,4.89 0 0 0 4.89,4.89 H 115 v -2.43 a 4.07,4.07 0 0 1 4.07,-4.07 h 39.86 a 4.07,4.07 0 0 1 4.07,4.07 v 2.43 h 19.11 a 4.89,4.89 0 0 0 4.89,-4.89 v -17.72 a 4.89,4.89 0 0 0 -4.89,-4.89 z"
       fill="#ffffff"
       opacity="0.3"
       id="path146" />
    <path
       d="m 98,522.59219 h -4.18 a 3,3 0 1 0 0,2 H 98 a 1,1 0 0 0 0,-2 z"
       fill="#000000"
       data-secondary="true"
       id="path148" />
    <circle
       cx="82"
       cy="523.59222"
       r="3"
       fill="#000000"
       data-secondary="true"
       id="circle150" />
    <circle
       cx="82"
       cy="523.59222"
       r="2"
       opacity="0.2"
       id="circle152" />
    <circle
       cx="91"
       cy="523.59222"
       r="2"
       fill="#ffffff"
       id="circle154" />
    <path
       d="m 176,520.59219 a 2,2 0 0 1 -2,2 h -65 a 2,2 0 0 1 -2,-2 2,2 0 0 1 2,-2 h 65 a 2,2 0 0 1 2,2 z"
       fill="#ffffff"
       id="path156" />
    <path
       d="m 176,520.59219 a 2,2 0 0 1 -2,2 h -51 v -4 h 51 a 2,2 0 0 1 2,2 z"
       fill="#f34a12"
       data-primary="true"
       id="path158" />
    <path
       d="m 176,526.59219 a 2,2 0 0 1 -2,2 h -65 a 2,2 0 0 1 -2,-2 2,2 0 0 1 2,-2 h 65 a 2,2 0 0 1 2,2 z"
       fill="#ffffff"
       id="path160" />
    <path
       d="m 176,526.59219 a 2,2 0 0 1 -2,2 h -59 v -4 h 59 a 2,2 0 0 1 2,2 z"
       fill="#000000"
       data-secondary="true"
       id="path162" />
    <path
       d="m 444,496.32219 13.43,-124.37 c 0.57,-4.91 5.11,-8.63 10.57,-8.63 h 207.92 c 6,0 10.65,4.72 10,10.14 l -11.92,122.86 z"
       fill="#ebebeb"
       id="path164" />
    <rect
       x="498.57001"
       y="534.59222"
       width="122"
       height="6"
       fill="#f34a12"
       data-primary="true"
       id="rect172" />
    <path
       d="m 580.41,535.09219 h -81.84 a 0.5,0.5 0 0 1 0,-1 h 81.84 a 0.5,0.5 0 0 1 0,1 z"
       fill="#000000"
       data-secondary="true"
       id="path174" />
    <path
       d="m 312.77,514.22219 0.22,23.51 a 2.79,2.79 0 0 0 2.79,2.8 h 35.45 a 1.27,1.27 0 0 0 0.77,-2.28 l -16.64,-12.77 a 3.55,3.55 0 0 1 -1.38,-2.81 l 0.27,-9.21 z"
       fill="#f34a12"
       data-primary="true"
       id="path176" />
    <path
       d="m 312.77,514.22219 0.22,23.51 a 2.79,2.79 0 0 0 2.79,2.8 h 35.45 a 1.27,1.27 0 0 0 0.77,-2.28 l -16.64,-12.77 a 3.55,3.55 0 0 1 -1.38,-2.81 l 0.27,-9.21 z"
       opacity="0.2"
       id="path178" />
    <rect
       x="221"
       y="439.07217"
       width="4"
       height="93.839996"
       fill="#2e3135"
       id="rect180" />
    <path
       d="m 336.55,513.46219 h -6.9 L 288,392.40219 c 0,0 43.22,-10.36 44.76,23.51 z"
       fill="#000000"
       data-secondary="true"
       id="path182" />
    <path
       d="m 336.55,513.46219 h -6.9 L 288,392.40219 c 0,0 43.22,-10.36 44.76,23.51 z"
       opacity="0.2"
       id="path184" />
    <path
       d="m 211,386.39219 56.51,1.24 c 0,0 5.37,-5.37 9.21,-48.34 a 37.48,37.48 0 0 1 8.44,-6.14 c 0,0 -5.37,-30.69 -23.79,-33 l -27.62,1.54 c 0,0 -18.41,-2.3 -23,21.48 l -10.34,49.88 a 11.09,11.09 0 0 0 10.59,13.34 z"
       fill="#f34a12"
       data-primary="true"
       id="path186" />
    <path
       d="m 214.56,335.46219 13.81,33 c 0,0 6.91,17.53 23.79,16.44 v 2.42 H 234.5 c 0,0 -15.34,-10.43 -19.94,-51.86 z"
       opacity="0.2"
       id="path188" />
    <path
       d="m 242.65,315.42219 c 5.2,3.56 13.82,8.44 18.63,1.91 a 16.61,16.61 0 0 0 1.62,-2.59 c -3,10.83 -14.47,6.79 -20.25,0.68 z"
       opacity="0.2"
       id="path190" />
    <path
       d="m 274.41,316.32219 c 1.51,5.05 1.54,10.42 1.8,15.64 0.12,3.79 0.05,8 -0.08,11.81 -0.08,1.31 -0.12,2.62 -0.24,3.93 -0.36,-4.53 -0.51,-11.1 -0.68,-15.71 -0.17,-4.61 -0.07,-11.17 -0.8,-15.67 z"
       opacity="0.2"
       id="path192" />
    <path
       d="m 274.41,359.90219 18.49,9.47 21.69,5.68 c 0,0 3.77,-1.84 6.73,0 l 2.19,2.6 h 3.18 l -2.41,-5.33 4.6,4.61 3.84,-6.91 c 0,0 -4.61,-6.14 -10,-6.14 a 27.45,27.45 0 0 1 -8.44,-3.06 l -25.54,-16.88 -3.61,-10.75 a 36.88,36.88 0 0 0 -8.44,6.14 c 0,0 -1.52,14.33 -2.28,20.57 z"
       fill="#f7a48b"
       id="path194" />
    <path
       d="m 288.76,343.90219 a 6.84,6.84 0 0 1 -3.61,3.75 6.84,6.84 0 0 1 3.61,-3.75 z"
       fill="#f48e76"
       id="path196" />
    <path
       d="m 240.65,281.75219 v 18.57 a 7.21,7.21 0 0 0 1.24,4.08 c 2,2.94 6.32,8.09 11.8,8.09 0,0 6.14,1.53 7.67,-6.91 v -10.36 z"
       fill="#f9b499"
       id="path198" />
    <path
       d="m 274.41,284.82219 a 26.53,26.53 0 0 1 -3.27,9.12 10.16,10.16 0 0 1 -10.94,4.53 c -10.19,-2.31 -17.55,-14.42 -17.55,-14.42 l 0.21,-3.7 3.79,-2.4 c 0,0 8.57,-1.57 10.11,-12.31 0,0 11.06,8.5 18.57,7.16 a 74.89,74.89 0 0 1 -0.92,12.02 z"
       fill="#f9b499"
       id="path200" />
    <path
       d="m 261.36,305.53219 v -6.87 a 23.87,23.87 0 0 1 -13.36,-7.84 c 0,0 2.62,10.88 13.36,14.71 z"
       fill="#f7a48b"
       id="path202" />
    <path
       d="m 211,386.39219 -3.34,21.93 c 0,0 -3.07,21.49 16.87,22.25 h 46.7 l 27,85.94 34.53,-1.65 -20.72,-95 c 0,0 -1.53,-22.25 -21.48,-26.85 l -23,-5.37 z"
       fill="#000000"
       data-secondary="true"
       id="path204" />
    <polygon
       points="336.15,540.78 332.23,528.27 342.42,528.27 "
       opacity="0.2"
       id="polygon206"
       transform="translate(-61,-97.677811)" />
    <path
       d="m 301.48,516.53219 v 21.2 a 2.79,2.79 0 0 0 2.79,2.8 h 35.45 a 1.27,1.27 0 0 0 0.77,-2.28 l -16.64,-12.77 a 3.55,3.55 0 0 1 -1.38,-2.81 v -7.3 z"
       fill="#f34a12"
       data-primary="true"
       id="path208" />
    <rect
       x="190.00999"
       y="430.59219"
       width="65.980003"
       height="12.28"
       rx="6.1399999"
       fill="#3f4347"
       id="rect210" />
    <path
       d="m 211.49,530.32219 h 23.78 a 10,10 0 0 1 10,10 v 0 h -43.75 v 0 a 10,10 0 0 1 9.97,-10 z"
       fill="#3f4347"
       id="path212" />
    <polygon
       points="355.52,492.7 444.26,636.94 440.86,639.04 349.37,489.97 "
       fill="#2e3135"
       id="polygon214"
       transform="translate(-61,-97.677811)" />
    <polygon
       points="438.29,492.69 444.37,489.97 351.46,639.27 348.07,637.15 "
       fill="#2e3135"
       id="polygon216"
       transform="translate(-61,-97.677811)" />
    <polygon
       points="449.22,481.47 479.37,425.46 415.97,425.46 386.09,481.47 "
       fill="#f34a12"
       data-primary="true"
       id="polygon218"
       transform="translate(-61,-97.677811)" />
    <polygon
       points="449.22,481.47 479.37,425.46 415.97,425.46 386.09,481.47 "
       fill="#ffffff"
       opacity="0.3"
       id="polygon220"
       transform="translate(-61,-97.677811)" />
    <path
       d="m 301.94,383.79219 v -5.16 a 1,1 0 0 1 1,-1 h 25.46 l -3.28,6.14 z"
       fill="#000000"
       data-secondary="true"
       id="path222" />
    <path
       d="m 278.73,270.86219 a 4,4 0 0 1 -1.65,1.41 7,7 0 0 1 -1.75,0.53 c -7.51,1.34 -18.57,-7.16 -18.57,-7.16 -1.54,10.74 -10.11,12.31 -10.11,12.31 l -3.79,2.4 -2.21,1.4 v 10 h -12 c -2.06,0 -3.3,-6.14 -3.3,-6.14 h -1.53 l -0.82,6.11 h -4.6 c -3.84,-4.6 -4.07,-12.66 -4.07,-12.66 2.07,-15.73 14,-16.49 14,-16.49 a 10.26,10.26 0 0 1 2.3,-8.44 c 7.67,-8.44 17.65,-0.77 17.65,-0.77 13.81,-5.37 26.85,5.37 26.85,5.37 7.1,5.3 4.98,10.15 3.6,12.13 z"
       fill="#000000"
       data-secondary="true"
       id="path224" />
    <path
       d="m 236.81,262.90219 c 0,0 5.37,-8.77 11.51,-9.54 l -2.27,-1.38 c 0,0 -11.54,2.81 -9.24,10.92 z"
       fill="#f34a12"
       data-primary="true"
       id="path226" />
    <circle
       cx="241.79999"
       cy="279.06216"
       r="4.9899998"
       fill="#f9b499"
       id="circle228" />
    <path
       d="m 220.71,350.15219 7.66,18.3 c 0,0 6.91,17.53 23.79,16.44 16.88,-1.09 39.34,-1.1 39.34,-1.1 l 6.69,-3.83 c 0,0 10.74,5.37 11.51,0.76 0,0 2.3,1.54 3.83,0.77 0,0 1.54,-0.77 0,-2 a 2.89,2.89 0 0 0 2.64,0.29 1.6,1.6 0 0 0 0.83,-2.46 14.68,14.68 0 0 0 -4.24,-3.51 l -6.14,-4.61 c 0,0 -6.91,-4.6 -16.11,1.54 0,0 -26.86,-6.14 -36.83,-8.44 l -12.28,-22.25 z"
       fill="#f9b499"
       id="path230" />
    <path
       d="m 309.7,380.72219 a 11.59,11.59 0 0 1 -6.14,-3.07 11.74,11.74 0 0 1 6.14,3.07 z"
       fill="#f7a48b"
       id="path232" />
    <path
       d="m 313.53,379.49219 a 19.54,19.54 0 0 1 -6.9,-5.64 19.56,19.56 0 0 1 6.9,5.64 z"
       fill="#f7a48b"
       id="path234" />
    <path
       d="m 232.21,317.81219 c 3.41,7.18 6.76,15.16 9.85,22.5 -7,3.3 -14.24,6.74 -21.36,9.72 6.63,-3.62 13.7,-7.09 20.5,-10.42 l -0.24,0.64 c -2.95,-7.22 -6.15,-15.1 -8.75,-22.44 z"
       fill="#f34a12"
       data-primary="true"
       id="path236" />
    <path
       d="m 232.21,317.81219 c 3.41,7.18 6.76,15.16 9.85,22.5 -7,3.3 -14.24,6.74 -21.36,9.72 6.63,-3.62 13.7,-7.09 20.5,-10.42 l -0.24,0.64 c -2.95,-7.22 -6.15,-15.1 -8.75,-22.44 z"
       opacity="0.2"
       id="path238" />
    <rect
       x="252.16"
       y="383.79218"
       width="164.96001"
       height="12.28"
       fill="#3f4347"
       id="rect240" />
    <g
       id="g6104"
       transform="translate(-3.9111685,2.3467013)">
      <g
         id="g2184"
         transform="translate(-76.644675,31.700364)">
        <path
           d="M 666.94,229.93 H 403.1 c 9.1,-62.17 51.55,-42.46 51.55,-42.46 6.07,-18.2 23,-15.6 23,-15.6 a 96.47,96.47 0 0 1 1.58,-18.64 29.27,29.27 0 0 1 5.77,-12.72 0.14,0.14 0 0 0 0,-0.06 27.71,27.71 0 0 1 20.37,-10.65 c 25.8,-1.25 40.25,33.41 40.25,33.41 a 25.08,25.08 0 0 1 15.8,-8.08 33.18,33.18 0 0 1 25.81,7.44 c 13.42,11.27 11.47,27.93 11.47,27.93 16.67,6.07 15.16,18.2 15.16,18.2 40.95,-21.23 53.08,21.23 53.08,21.23 z"
           fill="#e6e6e6"
           id="path272" />
        <path
           d="m 678.57,229.93 h -11.63 c 0,0 -12.13,-42.46 -53.07,-21.23 0,0 1.51,-12.13 -15.16,-18.2 0,0 1.95,-16.66 -11.47,-27.93 a 33.18,33.18 0 0 0 -25.81,-7.44 25.08,25.08 0 0 0 -15.8,8.08 c 0,0 -14.45,-34.66 -40.25,-33.41 A 27.71,27.71 0 0 0 485,140.45 c 0.58,-1.5 11.47,-28.58 42.43,-21.21 0,0 18.19,3 27.29,30.32 0,0 20.09,-19.71 43.4,0 0,0 11.19,9.1 12.71,27.3 0,0 13.64,6.06 15.16,18.19 0.01,0 44.5,-24.26 52.58,34.88 z"
           fill="#cccccc"
           id="path274" />
      </g>
      <path
         d="m 468.87548,236.28036 6.73,2.51 3.95,-10.69 -6.87,-2.56 a 28.36,28.36 0 0 0 -1.2,-12.69 l 7,-3.24 -5.35,-10.38 -7.45,3.44 a 30.71,30.71 0 0 0 -7.94,-6.54 l 3,-8 -11.13996,-4.16 -3.09,8.34 a 30.19,30.19 0 0 0 -11.19,0.48 l -3.24,-6.84 -10.72,4.54 3.38,7.12 a 28.15,28.15 0 0 0 -7,7.43 l -6.88,-2.57 -3.95,10.69 6.72,2.51 a 28.13,28.13 0 0 0 0.41,10.94 l -8.18,3.79 5.35,10.38 7.73,-3.58 a 30.55,30.55 0 0 0 8.12,7.68 l -2.71,7.33 11.14,4.16 2.6,-7 a 30.59,30.59 0 0 0 11.28,0.11 l 2.99996,6.41 10.71,-4.54 -2.91,-6.13 a 27.79,27.79 0 0 0 8.7,-8.94 z m -32.65996,3.25 a 20.38,20.38 0 1 1 27.07996,-10.81 20.64,20.64 0 0 1 -27.07996,10.81 z"
         fill="#f34a12"
         data-primary="true"
         id="path276-6" />
    </g>
    <path
       d="m 452.35,508.77219 a 8.92,8.92 0 0 1 -8.87,-9.84 l 13.09,-126 a 11.14,11.14 0 0 1 11.13,-10.11 h 145.45 a 0.5,0.5 0 0 1 0.5,0.5 0.51,0.51 0 0 1 -0.5,0.5 H 467.7 a 10.15,10.15 0 0 0 -10.14,9.19 l -13.09,126 a 7.92,7.92 0 0 0 7.91,8.73 l 214.62,-1 v 0 a 0.5,0.5 0 0 1 0,1 l -214.62,1 z"
       fill="#000000"
       data-secondary="true"
       id="path284" />
  </g>
</svg>
