<?xml version="1.0" encoding="UTF-8" standalone="no"?>
<svg
   width="816.39954"
   height="459.11002"
   viewBox="0 0 816.39953 459.11001"
   version="1.1"
   id="svg274"
   sodipodi:docname="sec1.svg"
   inkscape:version="1.1 (c68e22c387, 2021-05-23)"
   xmlns:inkscape="http://www.inkscape.org/namespaces/inkscape"
   xmlns:sodipodi="http://sodipodi.sourceforge.net/DTD/sodipodi-0.dtd"
   xmlns:xlink="http://www.w3.org/1999/xlink"
   xmlns="http://www.w3.org/2000/svg"
   xmlns:svg="http://www.w3.org/2000/svg"
   xmlns:xhtml="http://www.w3.org/1999/xhtml">
  <sodipodi:namedview
     id="namedview276"
     pagecolor="#ffffff"
     bordercolor="#666666"
     borderopacity="1.0"
     inkscape:pageshadow="2"
     inkscape:pageopacity="0.0"
     inkscape:pagecheckerboard="0"
     showgrid="false"
     inkscape:zoom="0.90395849"
     inkscape:cx="-177.5524"
     inkscape:cy="256.09583"
     inkscape:window-width="2560"
     inkscape:window-height="1361"
     inkscape:window-x="-9"
     inkscape:window-y="-9"
     inkscape:window-maximized="1"
     inkscape:current-layer="svg274" />
  <defs
     id="defs2">
    <inkscape:path-effect
       effect="perspective-envelope"
       up_left_point="345.51162,226.13313"
       up_right_point="551.78514,243.91466"
       down_left_point="356.60852,276.64112"
       down_right_point="555.29845,276.64112"
       id="path-effect31984"
       is_visible="true"
       lpeversion="1"
       deform_type="perspective"
       horizontal_mirror="false"
       vertical_mirror="false"
       overflow_perspective="false" />
    <inkscape:path-effect
       effect="perspective-envelope"
       up_left_point="351.11961,236.49977"
       up_right_point="557.4777,236.49977"
       down_left_point="351.11961,277.06669"
       down_right_point="557.4777,277.06669"
       id="path-effect31964"
       is_visible="true"
       lpeversion="1"
       deform_type="perspective"
       horizontal_mirror="false"
       vertical_mirror="false"
       overflow_perspective="false" />
    <inkscape:path-effect
       effect="perspective-envelope"
       up_left_point="347.16338,227.61493"
       up_right_point="552.61101,242.43287"
       down_left_point="353.77039,271.40283"
       down_right_point="557.56628,277.33001"
       id="path-effect31697"
       is_visible="true"
       lpeversion="1"
       deform_type="perspective"
       horizontal_mirror="false"
       vertical_mirror="false"
       overflow_perspective="false" />
    <inkscape:path-effect
       effect="perspective-envelope"
       up_left_point="495.33554,541.83333"
       up_right_point="694.42509,568.42928"
       down_left_point="509.41575,632.80426"
       down_right_point="703.02966,639.06213"
       id="path-effect30708"
       is_visible="true"
       lpeversion="1"
       deform_type="perspective"
       horizontal_mirror="false"
       vertical_mirror="false"
       overflow_perspective="false" />
    <inkscape:path-effect
       effect="perspective-envelope"
       up_left_point="295.99762,115.25504"
       up_right_point="472.66647,132.23849"
       down_left_point="318.86313,204.77681"
       down_right_point="484.22973,204.77681"
       id="path-effect15722"
       is_visible="true"
       lpeversion="1"
       deform_type="perspective"
       horizontal_mirror="false"
       vertical_mirror="false"
       overflow_perspective="false" />
    <inkscape:path-effect
       effect="perspective-envelope"
       up_left_point="278.03366,250.77896"
       up_right_point="502.23272,270.18043"
       down_left_point="298.7451,361.17156"
       down_right_point="517.63353,369.85116"
       id="path-effect12127"
       is_visible="true"
       lpeversion="1"
       deform_type="perspective"
       horizontal_mirror="false"
       vertical_mirror="false"
       overflow_perspective="false" />
    <xhtml:style>*, ::after, ::before { box-sizing: border-box; }
img, svg { vertical-align: middle; }
</xhtml:style>
    <xhtml:style>*, body, html { -webkit-font-smoothing: antialiased; }
img, svg { max-width: 100%; }
</xhtml:style>
    <clipPath
       clipPathUnits="userSpaceOnUse"
       id="clipPath12046">
      <path
         style="fill:#000000;fill-opacity:0;fill-rule:evenodd;stroke:#000000;stroke-width:1.5;stroke-miterlimit:4;stroke-dasharray:none;stroke-opacity:1"
         id="path12048"
         sodipodi:type="arc"
         sodipodi:cx="56.310787"
         sodipodi:cy="92.858963"
         sodipodi:rx="64.402"
         sodipodi:ry="64.525253"
         sodipodi:start="0.10242276"
         sodipodi:end="0.10239066"
         sodipodi:open="true"
         sodipodi:arc-type="arc" />
    </clipPath>
    <linearGradient
       inkscape:collect="always"
       xlink:href="#linearGradient4195"
       id="linearGradient11664"
       gradientUnits="userSpaceOnUse"
       gradientTransform="matrix(1,0,0,1.7469724,6.4641288,-17.192799)"
       x1="0.41157943"
       y1="83.585648"
       x2="107.49119"
       y2="83.585648" />
    <linearGradient
       inkscape:collect="always"
       id="linearGradient4195">
      <stop
         style="stop-color:#ffa76b;stop-opacity:1;"
         offset="0"
         id="stop4191" />
      <stop
         style="stop-color:#ffa76b;stop-opacity:0;"
         offset="1"
         id="stop4193" />
    </linearGradient>
    <linearGradient
       inkscape:collect="always"
       xlink:href="#linearGradient4195"
       id="linearGradient11153"
       gradientUnits="userSpaceOnUse"
       gradientTransform="matrix(1,0,0,1.6292785,6.4641288,-5.3824994)"
       x1="0.41157943"
       y1="83.585648"
       x2="107.49119"
       y2="83.585648" />
    <linearGradient
       inkscape:collect="always"
       xlink:href="#linearGradient4195"
       id="linearGradient11157"
       gradientUnits="userSpaceOnUse"
       gradientTransform="matrix(1,0,0,2.6215078,6.4641288,-105.01008)"
       x1="0.41157943"
       y1="83.585648"
       x2="107.49119"
       y2="83.585648" />
    <linearGradient
       inkscape:collect="always"
       xlink:href="#linearGradient4195"
       id="linearGradient11159"
       gradientUnits="userSpaceOnUse"
       gradientTransform="matrix(1,0,0,3.335228,6.4641288,-176.71695)"
       x1="0.41157943"
       y1="83.585648"
       x2="107.49119"
       y2="83.585648" />
    <linearGradient
       inkscape:collect="always"
       xlink:href="#linearGradient4195"
       id="linearGradient11161"
       gradientUnits="userSpaceOnUse"
       gradientTransform="matrix(1,0,0,2.3558436,6.4641288,-78.327821)"
       x1="0.41157943"
       y1="83.585648"
       x2="107.49119"
       y2="83.585648" />
    <linearGradient
       inkscape:collect="always"
       xlink:href="#linearGradient4195"
       id="linearGradient11163"
       gradientUnits="userSpaceOnUse"
       gradientTransform="matrix(1,0,0,2.004795,6.4641288,-43.07936)"
       x1="0.41157943"
       y1="83.585648"
       x2="107.49119"
       y2="83.585648" />
    <linearGradient
       inkscape:collect="always"
       xlink:href="#linearGradient4195"
       id="linearGradient11165"
       gradientUnits="userSpaceOnUse"
       gradientTransform="matrix(1,0,0,1.873558,6.4641288,-29.896989)"
       x1="0.41157943"
       y1="83.585648"
       x2="107.49119"
       y2="83.585648" />
    <linearGradient
       inkscape:collect="always"
       xlink:href="#linearGradient4195"
       id="linearGradient1025"
       gradientUnits="userSpaceOnUse"
       gradientTransform="matrix(1,0,0,1.7469724,6.4641288,-17.192799)"
       x1="0.41157943"
       y1="83.585648"
       x2="107.49119"
       y2="83.585648" />
  </defs>
  <path
     d="m 691.33745,169.37 c -4.76,20.77 -18.67,39.95 -18.67,39.95 a 29.76,29.76 0 0 1 -12.49,10.34 c -15,6.34 -30.72,-3.81 -30.72,-3.81 l -4.77,-10.57 20.74,-12.57 a 12.25,12.25 0 0 0 2.31,1.71 v 0 c 12.38,7 23.83,-19.22 23.83,-19.22 a 7,7 0 0 1 -3,-5.86 z"
     fill="#f9b499"
     id="path92" />
  <rect
     style="fill:#f4cca9;fill-opacity:1;fill-rule:evenodd;stroke:none;stroke-width:8.97216;stroke-opacity:0.157005"
     id="rect22126"
     width="196.03999"
     height="106.12357"
     x="618.46167"
     y="66.228851"
     rx="6.7948318" />
  <path
     d="m 682.2625,117.60406 c 0,0.50218 0.066,1.02772 0.066,1.54158 a 17.27848,18.347101 0 0 1 -6.44506,14.3063 l 9.6236,15.68438 a 34.853917,37.009525 0 0 0 14.4079,-29.99068 36.294707,38.539423 0 0 0 -0.36295,-5.34881 z"
     fill="#000000"
     data-secondary="true"
     id="path74"
     style="stroke-width:1.13334" />
  <path
     d="m 698.80409,109.86114 a 34.974899,37.137989 0 0 0 -15.7717,-22.43462 l -8.56775,16.35006 a 17.322474,18.393815 0 0 1 7.11596,10.03193 z"
     fill="#f1f2f2"
     id="path76"
     style="stroke-width:1.13334" />
  <rect
     x="720.44891"
     y="103.02525"
     width="17.872393"
     height="55.465637"
     rx="3.8824337"
     fill="#f34a12"
     data-primary="true"
     id="rect78"
     style="stroke-width:0.974406" />
  <rect
     x="720.44891"
     y="115.35804"
     width="17.872393"
     height="43.121174"
     rx="3.8824337"
     opacity="0.2"
     id="rect80"
     style="stroke-width:1.01198" />
  <rect
     x="749.0777"
     y="131.52548"
     width="17.872393"
     height="26.953733"
     rx="3.8824337"
     opacity="0.2"
     id="rect84"
     style="stroke-width:0.991918" />
  <rect
     x="777.38757"
     y="83.455788"
     width="17.872393"
     height="75.035088"
     rx="3.8824337"
     fill="#f34a12"
     data-primary="true"
     id="rect86"
     style="stroke-width:1.13334" />
  <rect
     x="777.38757"
     y="137.50443"
     width="17.872393"
     height="20.986467"
     rx="3.8824337"
     opacity="0.2"
     id="rect88"
     style="stroke-width:1.13334" />
  <path
     d="m 679.62289,85.511227 a 34.875914,37.032882 0 1 0 2.7056,65.797313 l -9.6016,-15.71941 a 17.27848,18.347101 0 1 1 -1.79273,-33.6928 z"
     fill="#f34a12"
     data-primary="true"
     id="path190"
     style="stroke-width:1.13334" />
  <polygon
     points="639.91,481.52 594.5,185.39 148.17,111.89 205.69,481.52 "
     fill="#3f4347"
     id="polygon8"
     transform="translate(-24.662547,-111.89)" />
  <polygon
     points="613.45,466.61 585.98,198.17 166.28,135.32 220.6,466.61 "
     fill="#ebebeb"
     id="polygon10"
     transform="translate(-24.662547,-111.89)"
     style="fill:#ffffff;fill-opacity:1" />
  <polygon
     points="192.91,479.39 205.69,481.52 148.17,111.89 139.65,125.74 "
     fill="#2e3135"
     id="polygon12"
     transform="translate(-24.662547,-111.89)" />
  <path
     d="m 556.52745,244.47 c 4.26,1.06 68.13,-2.21 68.13,-2.21 v -37 l 24.54,-14.88 -18,-22.88 c 0,0 -3.26,-11.28 -28.83,-10.84 l -18.39,-1.06 c 0,0 -30.62,-1.7 -33.82,30.26 a 169.47,169.47 0 0 0 3.2,30.89 l 3.2,9.59 z"
     fill="#f34a12"
     data-primary="true"
     id="path90" />
  <path
     d="m 660.14745,219.65 v 0 c -15,6.34 -30.72,-3.81 -30.72,-3.81 l -4.77,-10.57 20.74,-12.57 2.31,1.71 v 0 c 0,0 -4.3,18.54 12.44,25.24 z"
     fill="#f7a48b"
     id="path94" />
  <path
     d="m 571.43745,215.71 -18.1,1.06 c 0,0 2.43,21.49 19.86,23.53 0,0 12.1,1 17.42,-6.48 l -9.51,-7 -5.38,0.17 c 0,0 -5.39,-1.69 -4.29,-11.28 z"
     fill="#f7a48b"
     id="path96" />
  <polygon
     points="428.86,552.36 453.76,481.52 371.82,481.52 346.83,552.36 "
     fill="#3f4347"
     id="polygon98"
     transform="translate(-24.662547,-111.89)" />
  <polygon
     points="361.38,481.52 371.82,481.52 346.83,552.36 337.46,552.36 "
     fill="#2e3135"
     id="polygon100"
     transform="translate(-24.662547,-111.89)" />
  <rect
     x="364.18747"
     y="439.94"
     width="101.26"
     height="19.17"
     fill="#2e3135"
     id="rect102" />
  <rect
     x="264.11746"
     y="439.94"
     width="100.13"
     height="19.17"
     fill="#2e3135"
     id="rect104" />
  <rect
     x="264.11746"
     y="439.94"
     width="100.13"
     height="19.17"
     opacity="0.2"
     id="rect106" />
  <rect
     x="71.007454"
     y="352.59"
     width="205.59"
     height="25.57"
     fill="#cccccc"
     id="rect116" />
  <rect
     x="71.007454"
     y="372.82999"
     width="205.59"
     height="5.3299999"
     fill="#b3b3b3"
     id="rect118" />
  <rect
     x="84.85746"
     y="352.59"
     width="42.610001"
     height="20.24"
     fill="#e6e6e6"
     id="rect120" />
  <rect
     x="59.287453"
     y="378.19998"
     width="205.59"
     height="25.57"
     fill="#cccccc"
     id="rect126" />
  <rect
     x="59.287453"
     y="398.42999"
     width="205.59"
     height="5.3299999"
     fill="#b3b3b3"
     id="rect128" />
  <rect
     x="73.137459"
     y="378.19998"
     width="42.610001"
     height="20.24"
     fill="#e6e6e6"
     id="rect130" />
  <rect
     x="52.897453"
     y="432.01001"
     width="205.59"
     height="25.57"
     fill="#cccccc"
     id="rect136" />
  <rect
     x="52.897453"
     y="452.25"
     width="205.59"
     height="5.3299999"
     fill="#b3b3b3"
     id="rect138" />
  <rect
     x="66.747459"
     y="432.01001"
     width="42.610001"
     height="20.24"
     fill="#e6e6e6"
     id="rect140" />
  <rect
     x="561.31744"
     y="392.53998"
     width="205.59"
     height="21.84"
     fill="#cccccc"
     id="rect146" />
  <rect
     x="561.31744"
     y="409.82996"
     width="205.59"
     height="4.5500002"
     fill="#b3b3b3"
     id="rect148" />
  <rect
     x="575.16748"
     y="392.53998"
     width="42.610001"
     height="17.290001"
     fill="#e6e6e6"
     id="rect150" />
  <rect
     x="673.16748"
     y="392.53998"
     width="8.5200005"
     height="17.290001"
     fill="#e6e6e6"
     id="rect152" />
  <rect
     x="706.18744"
     y="392.53998"
     width="7.46"
     height="17.290001"
     fill="#e6e6e6"
     id="rect154" />
  <rect
     x="549.57745"
     y="414.39001"
     width="180.56"
     height="21.84"
     fill="#cccccc"
     id="rect156" />
  <rect
     x="549.06744"
     y="432.20001"
     width="180.56"
     height="4.5500002"
     fill="#b3b3b3"
     id="rect158" />
  <rect
     x="561.22748"
     y="414.90997"
     width="37.419998"
     height="17.290001"
     fill="#e6e6e6"
     id="rect160" />
  <rect
     x="647.29749"
     y="414.90997"
     width="7.48"
     height="17.290001"
     fill="#e6e6e6"
     id="rect162" />
  <rect
     x="676.29749"
     y="414.90997"
     width="6.5500002"
     height="17.290001"
     fill="#e6e6e6"
     id="rect164" />
  <rect
     x="511.78748"
     y="436.76001"
     width="188.55"
     height="21.84"
     fill="#cccccc"
     id="rect166" />
  <rect
     x="524.48749"
     y="436.76001"
     width="39.080002"
     height="17.290001"
     fill="#e6e6e6"
     id="rect168" />
  <rect
     x="614.35748"
     y="436.76001"
     width="7.8200002"
     height="17.290001"
     fill="#e6e6e6"
     id="rect170" />
  <rect
     x="644.64746"
     y="436.76001"
     width="6.8400002"
     height="17.290001"
     fill="#e6e6e6"
     id="rect172" />
  <rect
     x="84.85746"
     y="403.76001"
     width="184.82001"
     height="28.23"
     fill="#cccccc"
     id="rect174" />
  <rect
     x="84.85746"
     y="426.10999"
     width="184.82001"
     height="5.8800001"
     fill="#b3b3b3"
     id="rect176" />
  <rect
     x="97.297462"
     y="403.76001"
     width="38.299999"
     height="22.35"
     fill="#e6e6e6"
     id="rect178" />
  <polygon
     points="646.7,354.29 583.2,356.53 571.07,511.35 604.6,513.07 615.27,387.96 623.31,513.07 656.28,511.35 "
     fill="#000000"
     data-secondary="true"
     id="polygon184"
     transform="translate(-24.662547,-111.89)" />
  <polygon
     points="630.98,502.27 656.28,502.27 656.28,511.35 623.31,513.07 615.27,387.96 "
     opacity="0.2"
     id="polygon186"
     transform="translate(-24.662547,-111.89)" />
  <polygon
     points="605.86,498.33 604.6,513.07 571.07,511.35 571.75,502.58 "
     opacity="0.2"
     id="polygon188"
     transform="translate(-24.662547,-111.89)" />
  <polygon
     points="599.85,528.48 569.01,526.8 569.03,510.85 605.86,513.07 605.99,528.82 "
     fill="#000000"
     data-secondary="true"
     id="polygon190"
     transform="translate(-24.662547,-111.89)" />
  <path
     d="m 577.75745,436.75 -66,0.53 a 3.44,3.44 0 0 1 0.33,-2.66 c 3.96,-8.17 32.25,-19.71 32.25,-19.71 l 30.84,1.68 2.31,18 z"
     fill="#f34a12"
     data-primary="true"
     id="path192" />
  <path
     d="m 577.76745,436.74 -66,0.54 a 3.42,3.42 0 0 1 0.32,-2.67 h 65.39 z"
     opacity="0.2"
     id="path194" />
  <line
     x1="540.30743"
     y1="416.64001"
     x2="546.40747"
     y2="425.82996"
     fill="none"
     stroke="#020202"
     stroke-miterlimit="10"
     id="line196" />
  <path
     d="m 598.98745,436.71 66,-0.5 a 3.4,3.4 0 0 0 -0.32,-2.66 c -3.94,-8.16 -32.24,-19.71 -32.24,-19.71 l -30.82,1.38 -2.33,18.33 z"
     fill="#f34a12"
     data-primary="true"
     id="path198" />
  <path
     d="m 598.98745,436.71 66,-0.5 a 3.4,3.4 0 0 0 -0.32,-2.66 h -65.41 z"
     opacity="0.2"
     id="path200" />
  <line
     x1="636.43744"
     y1="415.57996"
     x2="630.34747"
     y2="424.76001"
     fill="none"
     stroke="#020202"
     stroke-miterlimit="10"
     id="line202" />
  <polygon
     points="621.13,513.07 621.13,528.61 658.06,525.73 658.06,510.98 623.31,513.07 "
     fill="#000000"
     data-secondary="true"
     id="polygon204"
     transform="translate(-24.662547,-111.89)" />
  <path
     d="m 585.97745,145.84 -2.58,12.43 a 4.29,4.29 0 0 0 0.59,3.2 14.21,14.21 0 0 0 5.07,4.66 10.79,10.79 0 0 0 13.07,-1.84 l 0.11,-0.12 a 5.58,5.58 0 0 0 0.66,-6.32 c -1,-1.87 -1.93,-4.47 -1.06,-6.58 0,0 -8.78,4.59 -15.86,-5.43 z"
     fill="#f9b499"
     id="path206" />
  <path
     d="m 584.43745,153.26 1.54,-7.42 c 0,0 10.19,6.21 15.86,5.43 0,0 -5.05,6.29 -17.4,1.99 z"
     fill="#f7a48b"
     id="path208" />
  <ellipse
     cx="596.99744"
     cy="134.22"
     rx="14.38"
     ry="18.110001"
     fill="#f9b499"
     id="ellipse210" />
  <path
     d="m 610.89745,129.53 1.6,-1.13 a 9.51,9.51 0 0 0 3.2,-3.78 c 3.3,-7.42 -7.38,-9.58 -7.38,-9.58 -2.54,-2.66 1.83,-4.42 1.83,-4.42 -2.83,-3.89 -12.08,-0.37 -12.08,-0.37 -2.13,-1.07 1.07,-4.26 1.07,-4.26 -8.53,-3.2 -16.52,8.53 -16.52,8.53 -20.77,4.27 -3.71,23.43 -3.71,23.43 a 9.67,9.67 0 0 1 5.27,-0.64 c 0,0 -0.93,-5.22 5.43,-10.32 a 6.31,6.31 0 0 0 1.32,-1.41 c 0.49,-0.74 1.55,-1.65 3.4,0.15 0,0 5,3.12 6.59,0.31 a 2.89,2.89 0 0 1 1.88,-1.35 11.07,11.07 0 0 1 6.74,0.66 28.81,28.81 0 0 1 1.36,4.18 z"
     fill="#000000"
     data-secondary="true"
     id="path212" />
  <path
     d="m 610.89745,129.53 1.6,-1.13 a 9.51,9.51 0 0 0 3.2,-3.78 c 3.3,-7.42 -7.38,-9.58 -7.38,-9.58 -2.54,-2.66 1.83,-4.42 1.83,-4.42 -2.83,-3.89 -12.08,-0.37 -12.08,-0.37 -2.13,-1.07 1.07,-4.26 1.07,-4.26 -8.53,-3.2 -16.52,8.53 -16.52,8.53 -20.77,4.27 -3.71,23.43 -3.71,23.43 a 9.67,9.67 0 0 1 5.27,-0.64 c 0,0 -0.93,-5.22 5.43,-10.32 a 6.31,6.31 0 0 0 1.32,-1.41 c 0.49,-0.74 1.55,-1.65 3.4,0.15 0,0 5,3.12 6.59,0.31 a 2.89,2.89 0 0 1 1.88,-1.35 11.07,11.07 0 0 1 6.74,0.66 28.81,28.81 0 0 1 1.36,4.18 z"
     opacity="0.2"
     id="path214" />
  <circle
     cx="582.08746"
     cy="142.21001"
     r="5.3299999"
     fill="#f9b499"
     id="circle216" />
  <polygon
     points="652.56,337.19 658.95,297.77 604.62,299.9 600.38,338.9 "
     fill="#f34a12"
     data-primary="true"
     id="polygon218"
     transform="translate(-24.662547,-111.89)" />
  <polygon
     points="652.56,337.19 658.95,297.77 604.62,299.9 600.38,338.9 "
     fill="#ffffff"
     opacity="0.2"
     id="polygon220"
     transform="translate(-24.662547,-111.89)" />
  <path
     d="m 550.12745,229.2 25.59,-2.19 4.24,-39 54.38,-2.13 -1.57,-1.56 a 1.82,1.82 0 0 0 -1.36,-0.54 l -52.46,2.1 -7.51,36.23 -21.31,4.91 z"
     fill="#f34a12"
     data-primary="true"
     id="path222" />
  <path
     d="m 550.12745,229.2 25.59,-2.19 4.24,-39 54.38,-2.13 -1.57,-1.56 a 1.82,1.82 0 0 0 -1.36,-0.54 l -52.46,2.1 -7.51,36.23 -21.31,4.91 z"
     opacity="0.2"
     id="path224" />
  <ellipse
     cx="-90.705528"
     cy="634.60608"
     rx="7.6799998"
     ry="6.3400002"
     transform="rotate(-79.18)"
     fill="#ffffff"
     opacity="0.2"
     id="ellipse226" />
  <path
     d="m 575.80745,233.85 c -2,-0.34 -3.35,-2.41 -3.71,-4.42 -0.31,-1.65 -0.12,-3.36 1.83,-3.62 0,0 1.81,-0.93 2,2.16 a 2,2 0 0 0 1.85,1.87 c 1,0 2.09,-0.57 2.47,-3 v -8.17 a 1.52,1.52 0 0 1 1.52,-1.52 v 0 a 1.52,1.52 0 0 1 1.52,1.52 v 6.88 l 2,-0.27 v -8.87 a 1.42,1.42 0 0 1 1.42,-1.42 v 0 a 1.42,1.42 0 0 1 1.43,1.42 v 8.7 l 1.41,0.16 v -7.9 a 1.69,1.69 0 0 1 1.69,-1.69 v 0 a 1.69,1.69 0 0 1 1.69,1.69 v 7.86 h 0.88 v -5.1 a 2.36,2.36 0 0 1 2.36,-2.36 v 0 a 2.35,2.35 0 0 1 2.33,2 c 0.81,4.66 1.4,15.92 -12.15,15.07 a 72.1,72.1 0 0 1 -10.54,-0.99 z"
     fill="#f9b499"
     id="path228" />
  <rect
     x="511.78748"
     y="454.04999"
     width="188.55"
     height="4.5500002"
     fill="#b3b3b3"
     id="rect272" />
  <path
     d="m 1184.2512,-27.660632 -206.89111,-5.92038 -24.80114,-0.70177 -34.01682,-0.98247 a 9.3157158,10.6924 0 0 1 -8.98222,-8.9316 L 883.32472,-221.32322 a 9.3268324,10.705159 0 0 1 10.20505,-12.44044 l 274.58013,34.18251 a 10.182811,11.687635 0 0 1 9.0045,10.07994 l 17.4975,148.583528 a 10.216161,11.725913 0 0 1 -10.3607,13.25705 z"
     fill="#f34a12"
     data-primary="true"
     id="path14"
     style="fill:#a54a1c;fill-opacity:0.347826;stroke:none;stroke-width:1.19097;stroke-opacity:0.157005" />
  <g
     aria-label="CapGos"
     id="text3715"
     style="font-size:53.3333px;line-height:1.25;font-family:'Century Gothic';-inkscape-font-specification:'Century Gothic, Normal'"
     inkscape:path-effect="#path-effect12127"
     transform="matrix(1.1578391,0,0,1.0844719,-63.967407,-503.13598)">
    <path
       d="m 324.06435,272.3462 -2.44917,4.85231 c -2.74025,-4.93982 -5.6558,-8.7517 -8.74737,-11.43036 -3.08841,-2.7238 -6.22131,-4.22029 -9.39818,-4.48379 -3.48288,-0.28889 -6.41223,1.09416 -8.78297,4.15341 -2.38172,3.02524 -3.88463,7.25412 -4.50575,12.68203 -0.60826,5.38929 -0.26767,11.53217 1.01965,18.41895 1.94038,10.3805 5.37813,19.12696 10.29846,26.23578 4.91435,7.07287 10.10774,10.73794 15.57982,11.02184 5.98742,0.31064 10.13918,-3.99843 12.47738,-12.92107 l 4.2451,5.17332 c -1.15051,5.16131 -3.04491,9.11048 -5.68671,11.85042 -2.63445,2.70839 -5.91386,3.96948 -9.84456,3.77893 -7.51144,-0.36413 -14.38233,-5.54574 -20.60725,-15.5939 -5.26336,-8.53594 -9.01697,-18.74192 -11.24419,-30.61307 -2.35193,-12.53585 -2.0657,-22.93384 0.86245,-31.15031 2.93702,-8.24297 7.80452,-12.06611 14.57562,-11.48016 4.07134,0.35232 8.02547,2.2563 11.86223,5.70308 3.81531,3.39531 7.2629,7.99805 10.34544,13.80259 z"
       id="path11585"
       inkscape:original-d="m 334.59981,294.59141 -3.02083,2.31771 q -2.5,-3.25521 -6.01562,-4.92188 -3.48959,-1.6927 -7.68229,-1.6927 -4.58333,0 -8.48958,2.21354 -3.90625,2.1875 -6.0677,5.91145 -2.13542,3.69792 -2.13542,8.33333 0,7.0052 4.79166,11.6927 4.81771,4.6875 12.13541,4.6875 8.04687,0 13.46354,-6.30208 l 3.02083,2.29166 q -2.86458,3.64584 -7.16145,5.65104 -4.27084,1.97917 -9.55729,1.97917 -10.05208,0 -15.85937,-6.69271 -4.86979,-5.65103 -4.86979,-13.64582 0,-8.41146 5.88542,-14.14062 5.91145,-5.7552 14.79166,-5.7552 5.36458,0 9.68749,2.13541 4.32291,2.10938 7.08333,5.9375 z" />
    <path
       d="m 363.93714,281.61099 10.66923,60.76838 -3.82759,-0.18902 -1.82902,-10.38346 c -0.93519,3.87944 -2.24854,6.7677 -3.94143,8.66578 -1.6763,1.9013 -3.72857,2.79371 -6.15924,2.67534 -4.33208,-0.21096 -8.60721,-3.5064 -12.82753,-9.90789 -4.22766,-6.46773 -7.16371,-14.2309 -8.79677,-23.28556 -1.60338,-8.89006 -1.39566,-16.40213 0.62505,-22.51435 2.01897,-6.10691 5.2419,-8.98827 9.65721,-8.64902 2.54242,0.19535 5.02416,1.44823 7.44504,3.75473 2.43378,2.30224 4.79703,5.65173 7.08969,10.04398 l -1.98597,-11.27445 z m -14.75395,4.86375 c -2.22002,-0.16317 -4.07716,0.7835 -5.56927,2.84181 -1.50038,2.02252 -2.46103,4.96341 -2.88074,8.82056 -0.40056,3.85767 -0.20703,7.97686 0.57975,12.35384 0.77897,4.33356 2.08397,8.50648 3.91278,12.51645 1.82482,4.00127 3.86951,7.15376 6.13308,9.45998 2.27048,2.26456 4.47457,3.45037 6.61318,3.56122 2.15327,0.11161 3.99936,-0.86031 5.54015,-2.914 1.53916,-2.05153 2.49557,-4.88711 2.8705,-8.5089 0.39363,-3.62144 0.18399,-7.74048 -0.62981,-12.36145 -1.24257,-7.05569 -3.45283,-13.0455 -6.63716,-17.9711 -3.17672,-4.9416 -6.48771,-7.54521 -9.93246,-7.79841 z"
       id="path11587"
       inkscape:original-d="m 369.91229,297.45599 v 28.33332 h -3.59375 v -4.86979 q -2.29167,2.78645 -5.15625,4.1927 -2.83854,1.40625 -6.22395,1.40625 -6.01562,0 -10.28645,-4.34895 -4.24479,-4.375 -4.24479,-10.625 0,-6.11978 4.29687,-10.46874 4.29687,-4.34896 10.33853,-4.34896 3.48959,0 6.30208,1.48438 2.83854,1.48437 4.97396,4.45312 v -5.20833 z m -14.58333,2.78646 q -3.04687,0 -5.62499,1.51041 -2.57813,1.48438 -4.11458,4.19271 -1.51042,2.70833 -1.51042,5.72916 0,2.99479 1.53646,5.72916 1.53645,2.73438 4.11458,4.27084 2.60416,1.51041 5.57291,1.51041 2.99479,0 5.67708,-1.51041 2.68229,-1.51042 4.11458,-4.08854 1.45833,-2.57813 1.45833,-5.80729 0,-4.92187 -3.2552,-8.22916 -3.22917,-3.30729 -7.96875,-3.30729 z" />
    <path
       d="m 372.80255,282.28603 3.86538,0.29432 1.94341,11.1894 c 0.79488,-4.13553 2.00418,-7.19125 3.62657,-9.16575 1.62052,-1.97227 3.6515,-2.86371 6.0903,-2.67632 4.24141,0.32589 8.38541,3.69511 12.43025,10.08669 4.02647,6.36255 6.76404,13.84328 8.22357,22.44706 1.48668,8.76384 1.28089,16.11343 -0.61558,22.0698 -1.88628,5.9257 -4.90528,8.78928 -9.06758,8.58659 -2.34931,-0.11441 -4.68359,-1.20665 -7.00321,-3.28024 -2.32516,-2.07854 -4.63303,-5.12529 -6.92397,-9.14447 l 5.58129,32.13478 -3.79314,-0.15041 z m 16.51658,7.13874 c -3.33385,-0.24504 -5.74519,1.9091 -7.22724,6.46516 -1.46458,4.56022 -1.58782,10.34921 -0.37096,17.3537 0.79696,4.58749 2.01703,8.73674 3.65857,12.44692 1.65653,3.70373 3.60791,6.66992 5.85271,8.90027 2.25774,2.2261 4.42709,3.39122 6.50909,3.49914 2.04199,0.10584 3.77272,-0.85333 5.19398,-2.87589 1.43163,-2.05613 2.35033,-4.96985 2.75719,-8.74324 0.40694,-3.77412 0.25256,-7.7641 -0.46388,-11.97337 -0.7236,-4.2513 -1.94269,-8.32307 -3.65931,-12.21741 -1.70214,-3.90132 -3.63163,-6.97009 -5.78944,-9.20393 -2.16901,-2.27588 -4.32279,-3.49421 -6.46071,-3.65135 z"
       id="path11589"
       inkscape:original-d="m 378.16749,297.45599 h 3.61979 v 5.20833 q 2.16146,-2.96875 4.97396,-4.45312 2.81249,-1.48438 6.27603,-1.48438 6.04167,0 10.33854,4.34896 4.29687,4.34896 4.29687,10.46874 0,6.25 -4.27083,10.625 -4.24479,4.34895 -10.26041,4.34895 -3.38541,0 -6.22395,-1.40625 -2.83854,-1.40625 -5.13021,-4.1927 v 15.23436 h -3.61979 z m 14.58333,2.78646 q -4.73959,0 -7.99479,3.30729 -3.22917,3.30729 -3.22917,8.22916 0,3.22916 1.43229,5.80729 1.45834,2.57812 4.14063,4.08854 2.70833,1.51041 5.70312,1.51041 2.94271,0 5.52083,-1.51041 2.60416,-1.53646 4.14062,-4.27084 1.53646,-2.73437 1.53646,-5.72916 0,-3.02083 -1.53646,-5.72916 -1.51041,-2.70833 -4.08854,-4.19271 -2.57812,-1.51041 -5.62499,-1.51041 z" />
    <path
       d="m 447.93902,280.72176 -2.01354,5.6314 c -2.85796,-4.55056 -5.75927,-8.06061 -8.70357,-10.5245 -2.9417,-2.50645 -5.6405,-3.86408 -8.0938,-4.06751 -3.0611,-0.25382 -5.72921,1.06232 -8.00066,3.95245 -2.25729,2.8962 -3.70579,6.96496 -4.34272,12.20196 -0.64294,5.19926 -0.46605,10.76234 0.52923,16.68209 1.01802,6.05496 2.77563,11.85704 5.26845,17.40166 2.47909,5.49134 5.35911,9.86144 8.63723,13.11446 3.2608,3.20581 6.51893,4.88929 9.7755,5.05832 3.9401,0.20452 6.88584,-1.90914 8.84628,-6.33671 1.95826,-4.42264 2.59061,-10.26486 1.8978,-17.53989 l -12.20352,-0.77128 -1.26899,-7.68854 16.49297,1.10001 c 1.95008,12.20316 1.78222,21.77249 -0.49998,28.74673 -2.27317,6.94665 -6.30775,10.28219 -12.12531,10.00017 -7.10632,-0.3445 -13.60256,-5.62142 -19.48403,-15.88183 -4.55143,-7.94636 -7.70007,-17.05465 -9.43177,-27.31696 -1.29147,-7.65347 -1.55448,-14.72209 -0.7866,-21.19397 0.76809,-6.4737 2.47879,-11.43656 5.12822,-14.8824 2.63837,-3.47625 6.01009,-5.03418 10.10729,-4.67963 3.30558,0.28606 6.61219,1.79749 9.91887,4.52796 3.28949,2.6848 6.74134,6.8437 10.35265,12.46601 z"
       id="path11591"
       inkscape:original-d="m 452.04766,293.91433 -2.96875,2.81249 q -3.20312,-3.15104 -7.03125,-4.76562 -3.80208,-1.64062 -7.42187,-1.64062 -4.5052,0 -8.59374,2.21354 -4.0625,2.21354 -6.30208,6.01562 -2.23958,3.77604 -2.23958,7.99479 0,4.32291 2.3177,8.22916 2.31771,3.8802 6.40625,6.11979 4.08854,2.21354 8.95833,2.21354 5.91145,0 9.99999,-3.33333 4.08854,-3.33334 4.84375,-8.64583 h -12.21354 v -3.69792 h 16.51041 q -0.0521,8.88021 -5.28646,14.11458 -5.20833,5.20833 -13.95832,5.20833 -10.62499,0 -16.82291,-7.23958 -4.76562,-5.57291 -4.76562,-12.89062 0,-5.4427 2.73437,-10.1302 2.73438,-4.6875 7.5,-7.3177 4.76562,-2.65625 10.78124,-2.65625 4.86979,0 9.16666,1.77083 4.29688,1.74479 8.38542,5.625 z" />
    <path
       d="m 471.00053,288.2798 c 4.25401,0.32685 8.28005,3.83722 12.07777,10.50925 3.44056,6.05853 5.78653,13.08456 7.04624,21.08231 1.26221,8.01358 1.04479,14.93611 -0.6508,20.78508 -1.68563,5.81872 -4.60415,8.62847 -8.76687,8.42575 -4.19584,-0.20433 -8.12211,-3.36849 -11.77829,-9.51181 -3.66078,-6.20455 -6.15313,-13.37132 -7.46754,-21.49506 -1.30607,-8.07221 -1.15573,-14.99939 0.45268,-20.76419 1.76585,-6.35172 4.79879,-9.3608 9.08681,-9.03133 z m 1.17182,7.34053 c -2.95405,-0.21698 -5.12856,1.90277 -6.51801,6.36168 -1.39029,4.46157 -1.55903,9.95976 -0.50716,16.48292 0.67715,4.19938 1.79211,8.13778 3.34319,11.81367 1.548,3.66856 3.30038,6.53499 5.25632,8.60147 1.94614,2.02684 3.89295,3.08932 5.84087,3.19053 1.94436,0.10102 3.57271,-0.77236 4.88678,-2.6187 1.30728,-1.87974 2.15197,-4.58393 2.53506,-8.11438 0.38315,-3.53114 0.2466,-7.37334 -0.41032,-11.53 -1.02042,-6.45671 -2.9471,-12.04267 -5.78569,-16.7603 -2.83129,-4.73229 -5.71201,-7.21175 -8.64104,-7.42689 z"
       id="path11593"
       inkscape:original-d="m 474.41743,296.72682 q 6.53645,0 10.83333,4.73958 3.90624,4.32292 3.90624,10.23437 0,5.9375 -4.14062,10.39062 -4.11458,4.42708 -10.59895,4.42708 -6.51041,0 -10.65104,-4.42708 -4.11458,-4.45312 -4.11458,-10.39062 0,-5.88541 3.90625,-10.20832 4.29687,-4.76563 10.85937,-4.76563 z m 0,3.56771 q -4.53125,0 -7.78645,3.35937 -3.25521,3.35938 -3.25521,8.125 0,3.07291 1.48437,5.72916 1.48438,2.65625 4.01042,4.11458 2.52604,1.43229 5.54687,1.43229 3.02083,0 5.54687,-1.43229 2.52604,-1.45833 4.01042,-4.11458 1.48437,-2.65625 1.48437,-5.72916 0,-4.76562 -3.28125,-8.125 -3.2552,-3.35937 -7.76041,-3.35937 z" />
    <path
       d="m 506.61054,298.67029 -1.45979,4.73431 c -2.43564,-3.95948 -4.53888,-6.00851 -6.30665,-6.13861 -1.12497,-0.0828 -1.97,0.63925 -2.5343,2.16656 -0.54789,1.52894 -0.65667,3.35085 -0.32639,5.46439 0.29158,1.86584 0.90031,3.66526 1.82554,5.39758 0.92966,1.76549 2.63049,3.87479 5.0983,6.32446 3.00172,2.9963 5.15976,5.82753 6.47985,8.49772 1.30697,2.69959 2.21476,5.69876 2.7246,8.99838 0.71829,4.64863 0.56184,8.54085 -0.46897,11.68269 -1.03131,3.14335 -2.69639,4.65962 -4.99863,4.5475 -1.53762,-0.0749 -3.12311,-0.85861 -4.75696,-2.35311 -1.62028,-1.49633 -3.08921,-3.52323 -4.40627,-6.08186 l 1.3562,-5.11838 c 2.4217,4.31476 4.6146,6.51855 6.58127,6.62073 1.37449,0.0714 2.39741,-0.80513 3.06994,-2.62908 0.67229,-1.82331 0.81184,-4.00251 0.41859,-6.53952 -0.32345,-2.08666 -0.93082,-3.96696 -1.82271,-5.64129 -0.88745,-1.64131 -2.64485,-3.75201 -5.27712,-6.33633 -2.83771,-2.81245 -4.90107,-5.54847 -6.18502,-8.20472 -1.28604,-2.66054 -2.19204,-5.66534 -2.71685,-9.01371 -0.68582,-4.3756 -0.55722,-7.96322 0.38615,-10.75758 0.95956,-2.79188 2.50986,-4.10507 4.64799,-3.94079 2.48078,0.19061 5.37298,2.96932 8.67123,8.32066 z"
       id="path11595"
       inkscape:original-d="m 510.17262,300.55495 -2.34375,2.42187 q -2.91666,-2.83854 -5.70312,-2.83854 -1.77083,0 -3.04687,1.17187 -1.25,1.17188 -1.25,2.73438 0,1.38021 1.04167,2.6302 1.04166,1.27605 4.37499,2.99479 4.0625,2.10938 5.52083,4.0625 1.43229,1.97917 1.43229,4.45312 0,3.48959 -2.44791,5.91146 -2.44792,2.42187 -6.11979,2.42187 -2.44791,0 -4.6875,-1.0677 -2.21354,-1.06771 -3.67187,-2.94271 l 2.29167,-2.60417 q 2.78645,3.15104 5.91145,3.15104 2.1875,0 3.72396,-1.40625 1.53645,-1.40625 1.53645,-3.30729 0,-1.56249 -1.01562,-2.78645 -1.01562,-1.19792 -4.58333,-3.02083 -3.82812,-1.97917 -5.20833,-3.90625 -1.38021,-1.92708 -1.38021,-4.40104 0,-3.22917 2.1875,-5.36458 2.21354,-2.13542 5.57291,-2.13542 3.90625,0 7.86458,3.82813 z" />
  </g>
  <path
     d="m 176.46745,198.11 -4.27,9.59 c 0,0 11.72,-2.13 19.18,5.33 l 1.39,-9 -12,-8 z"
     fill="#f7a48b"
     id="path108" />
  <polygon
     points="309.55,428.07 336.94,367.89 332.87,367.89 306.89,422.94 247.23,412.36 247.23,416.55 "
     fill="#f34a12"
     data-primary="true"
     id="polygon110"
     transform="translate(-52.662547,-111.89)" />
  <polygon
     points="309.55,428.07 336.94,367.89 332.87,367.89 306.89,422.94 247.23,412.36 247.23,416.55 "
     fill="#ffffff"
     opacity="0.2"
     id="polygon112"
     transform="translate(-52.662547,-111.89)" />
  <polygon
     points="306.89,422.94 332.87,367.89 292.09,370.36 273.69,417.05 "
     fill="#e6e6e6"
     id="polygon114"
     transform="translate(-52.662547,-111.89)"
     style="stroke:#000000;stroke-opacity:1" />
  <rect
     x="182.85745"
     y="352.59"
     width="8.5200005"
     height="20.24"
     fill="#e6e6e6"
     id="rect122" />
  <rect
     x="215.87746"
     y="352.59"
     width="7.46"
     height="20.24"
     fill="#e6e6e6"
     id="rect124" />
  <rect
     x="171.13745"
     y="378.19998"
     width="8.5200005"
     height="20.24"
     fill="#e6e6e6"
     id="rect132" />
  <rect
     x="204.15746"
     y="378.19998"
     width="7.46"
     height="20.24"
     fill="#e6e6e6"
     id="rect134" />
  <rect
     x="164.74745"
     y="432.01001"
     width="8.5200005"
     height="20.24"
     fill="#e6e6e6"
     id="rect142" />
  <rect
     x="197.76744"
     y="432.01001"
     width="7.46"
     height="20.24"
     fill="#e6e6e6"
     id="rect144" />
  <rect
     x="185.39745"
     y="403.76001"
     width="7.6599998"
     height="22.35"
     fill="#e6e6e6"
     id="rect180" />
  <rect
     x="215.08745"
     y="403.76001"
     width="6.6999998"
     height="22.35"
     fill="#e6e6e6"
     id="rect182" />
  <ellipse
     cx="116.98472"
     cy="243.47098"
     rx="16.120001"
     ry="20.110001"
     transform="rotate(-19.87)"
     fill="#f9b499"
     id="ellipse230" />
  <path
     d="m 174.23745,203.11 c 0,0 -34,-27.38 4.36,-38 0,0 7.45,-17 30.89,4.26 l -3.59,0.77 c 0,0 18.68,9.73 3.15,17.8 a 36.79,36.79 0 0 0 -2.35,-7 c 0,0 -4.17,7.77 -10,3.25 a 9.1,9.1 0 0 0 -3.78,-1.85 c -2.09,-0.4 -4.8,-0.19 -5.88,3.07 a 7,7 0 0 0 -0.17,3.59 c 0.31,1.6 0.26,4.46 -4.23,3.75 l -6.17,5.36 z"
     fill="#000000"
     data-secondary="true"
     id="path232" />
  <path
     d="m 174.23745,203.11 c 0,0 -34,-27.38 4.36,-38 0,0 7.45,-17 30.89,4.26 l -3.59,0.77 c 0,0 18.68,9.73 3.15,17.8 a 36.79,36.79 0 0 0 -2.35,-7 c 0,0 -4.17,7.77 -10,3.25 a 9.1,9.1 0 0 0 -3.78,-1.85 c -2.09,-0.4 -4.8,-0.19 -5.88,3.07 a 7,7 0 0 0 -0.17,3.59 c 0.31,1.6 0.26,4.46 -4.23,3.75 l -6.17,5.36 z"
     opacity="0.2"
     id="path234" />
  <circle
     cx="177.13745"
     cy="194.73"
     r="5.8600001"
     fill="#f9b499"
     id="circle236" />
  <path
     d="m 172.19745,207.72 a 5.71,5.71 0 0 0 -6.39,3.19 c 0,0 -15.43,-2.24 -25.82,20.72 0,0 -12,23.72 -14.38,67 l 69,6 v -26.52 c 0,0 5.87,14.83 17.32,15.36 l 47.74,-3.73 -3.37,-21.73 -32.85,0.3 c 0,0 -9.66,-49.94 -27.77,-49.94 a 5.61,5.61 0 0 0 -4.26,-5.32 c 0,0 -5.37,-7.46 -19.22,-5.33 z"
     fill="#f34a12"
     data-primary="true"
     id="path238" />
  <path
     d="m 165.48745,302.11 22.55,-46.12 6.53,22.12 v 26.55 c 0,0 -30.47,-4.01 -29.08,-2.55 z"
     opacity="0.2"
     id="path240" />
  <path
     d="m 256.56745,269.99 c 0,0 6.18,-8.59 14.68,-8.23 a 1.18,1.18 0 0 1 0.9,1.88 40.62,40.62 0 0 0 -3.46,5.59 0.29,0.29 0 0 0 0.37,0.4 c 2.92,-1.35 13.55,-6 18.65,-3.76 0,0 1.67,1.5 -12.18,5.76 0,0 12.56,-2.13 13.2,-0.53 0,0 1.95,1.47 -8.29,4.73 0,0 6.88,-1.13 8.44,0 0,0 3.23,1.81 -7.72,4.67 0,0 6,-0.12 5.52,1.37 0,0 0,4 -27.44,5.39 z"
     fill="#f9b499"
     id="path242" />
  <path
     d="m 264.87745,348.33 -12.88,78.83 h -40.38 l 9.94,-75 h -68.53 c -33,-14.27 -23.09,-53.16 -23.09,-53.16 l 21.18,1.84 43.45,3.8 42.61,8.52 c 39.42,5.34 27.7,35.17 27.7,35.17 z"
     fill="#000000"
     data-secondary="true"
     id="path244" />
  <path
     d="m 210.08745,352.18 h -57.06 c -33,-14.27 -23.09,-53.16 -23.09,-53.16 l 21.18,1.84 c 0,0 -3.27,45.57 58.97,51.32 z"
     opacity="0.2"
     id="path246" />
  <g
     opacity="0.2"
     id="g254"
     transform="translate(-52.662547,-111.89)">
    <path
       d="m 212.5,415.29 -0.49,-0.16 a 10.46,10.46 0 0 1 0.71,-1.7 l 0.45,0.25 a 9.66,9.66 0 0 0 -0.67,1.61 z"
       id="path248" />
    <path
       d="m 280,533.68 c 0,-0.8 0,-1.65 0,-2.53 V 530 h 0.52 c 0,0.38 0,0.75 0,1.12 0,0.87 0,1.72 0,2.52 z m 0.57,-7.29 h -0.51 c 0,-1.16 0.1,-2.39 0.17,-3.65 h 0.51 c -0.05,1.26 -0.11,2.5 -0.15,3.65 z m 0.39,-7.27 h -0.51 c 0.08,-1.19 0.18,-2.4 0.28,-3.64 h 0.51 c -0.08,1.24 -0.17,2.45 -0.24,3.64 z m 0.59,-7.26 -0.51,-0.05 c 0.11,-1.2 0.23,-2.41 0.35,-3.63 l 0.51,0.05 c -0.1,1.22 -0.22,2.43 -0.33,3.63 z m 0.73,-7.26 -0.51,-0.05 c 0.13,-1.21 0.27,-2.42 0.4,-3.63 l 0.51,0.06 c -0.11,1.21 -0.25,2.42 -0.38,3.62 z m 0.83,-7.24 -0.51,-0.06 c 0.15,-1.21 0.29,-2.42 0.45,-3.62 l 0.5,0.06 c -0.13,1.2 -0.28,2.41 -0.42,3.62 z m 0.91,-7.23 -0.51,-0.07 0.48,-3.62 0.51,0.07 c -0.14,1.2 -0.3,2.4 -0.5,3.62 z m 1,-7.23 -0.5,-0.07 c 0.17,-1.22 0.34,-2.43 0.51,-3.61 l 0.5,0.07 c -0.18,1.19 -0.35,2.39 -0.53,3.61 z m 1,-7.22 -0.51,-0.07 c 0.18,-1.23 0.36,-2.44 0.53,-3.61 l 0.51,0.08 c -0.14,1.17 -0.32,2.37 -0.5,3.6 z m 1.08,-7.21 -0.51,-0.08 c 0.2,-1.25 0.38,-2.46 0.56,-3.6 l 0.51,0.08 c -0.15,1.13 -0.34,2.35 -0.53,3.6 z m 1.13,-7.2 -0.5,-0.09 c 0.21,-1.31 0.4,-2.52 0.58,-3.6 l 0.51,0.09 c -0.15,1.07 -0.34,2.33 -0.56,3.6 z m -0.2,-7.1 a 5.06,5.06 0 0 0 -2.37,-2.44 l 0.22,-0.46 a 5.53,5.53 0 0 1 2.61,2.68 z m -5.81,-3.17 -3.62,-0.49 0.08,-0.51 c 1.17,0.17 2.38,0.33 3.6,0.49 z m -7.22,-1 -3.61,-0.54 0.08,-0.51 3.6,0.54 z m -7.21,-1.11 -3.59,-0.6 0.09,-0.51 3.59,0.6 z m -7.18,-1.23 -3.61,-0.66 0.1,-0.51 3.58,0.66 z m -7.16,-1.35 -3.57,-0.74 0.1,-0.5 c 1.12,0.24 2.31,0.48 3.57,0.73 z m -7.14,-1.51 -3.55,-0.82 0.12,-0.5 3.55,0.82 z m -7.09,-1.71 c -1.79,-0.46 -2.7,-0.74 -2.71,-0.74 l -0.81,-0.23 0.15,-0.5 0.8,0.23 c 0,0 0.92,0.28 2.7,0.75 z m -7,-2.07 c -1.19,-0.41 -2.34,-0.84 -3.42,-1.28 l 0.19,-0.48 c 1.08,0.44 2.22,0.87 3.4,1.27 z m -6.76,-2.77 c -1.14,-0.55 -2.22,-1.14 -3.22,-1.74 l 0.26,-0.44 c 1,0.59 2.06,1.17 3.18,1.72 z m -6.26,-3.79 a 24.43,24.43 0 0 1 -2.77,-2.41 l 0.36,-0.36 a 24.39,24.39 0 0 0 2.72,2.36 z m -5.13,-5.23 a 16.79,16.79 0 0 1 -1.76,-3.24 l 0.47,-0.2 a 16.4,16.4 0 0 0 1.71,3.15 z m -2.73,-6.81 a 14.88,14.88 0 0 1 -0.16,-2.22 c 0,-0.48 0,-1 0.06,-1.47 l 0.52,0.05 a 13.5,13.5 0 0 0 -0.07,1.42 15.43,15.43 0 0 0 0.15,2.15 z"
       id="path250" />
    <path
       d="m 280.42,539.08 c -0.08,-0.55 -0.15,-1.15 -0.2,-1.79 h 0.51 c 0.06,0.63 0.12,1.23 0.2,1.77 z"
       id="path252" />
  </g>
  <path
     d="m 220.10745,363.11 c 0,0 -2.26,53.72 31.17,63.86 a 0.11,0.11 0 0 1 0,0.21 h -39.66 z"
     opacity="0.2"
     id="path256" />
  <path
     d="m 218.33745,427.16 -2.42,23.43 h 72.82 c 0,0 6,-7.45 -20.66,-13.85 0,0 -13.55,-5.32 -21.16,-9.58 z"
     fill="#f34a12"
     data-primary="true"
     id="path258" />
  <rect
     x="213.74745"
     y="450.58997"
     width="75.629997"
     height="8.5200005"
     fill="#000000"
     data-secondary="true"
     id="rect260" />
  <g
     id="g1073"
     transform="matrix(0.51067046,0,0,0.46654952,514.62921,-275.86982)">
    <text
       xml:space="preserve"
       style="font-style:normal;font-variant:normal;font-weight:normal;font-stretch:normal;font-size:99.9999px;line-height:1.25;font-family:'Century Gothic';-inkscape-font-specification:'Century Gothic, Normal';font-variant-ligatures:normal;font-variant-caps:normal;font-variant-numeric:normal;font-variant-east-asian:normal;fill:#000000;fill-opacity:1;stroke:none;stroke-width:3.26141"
       x="521.31549"
       y="54.357449"
       id="text26334"
       transform="scale(0.99911158,1.0008892)"><tspan
         sodipodi:role="line"
         id="tspan26332"
         style="font-style:normal;font-variant:normal;font-weight:normal;font-stretch:normal;font-size:99.9999px;font-family:'Century Gothic';-inkscape-font-specification:'Century Gothic, Normal';font-variant-ligatures:normal;font-variant-caps:normal;font-variant-numeric:normal;font-variant-east-asian:normal;stroke-width:3.26141"
         x="521.31549"
         y="54.357449">GSM</tspan></text>
    <text
       xml:space="preserve"
       style="font-style:normal;font-variant:normal;font-weight:normal;font-stretch:normal;font-size:53.3333px;line-height:1.25;font-family:'Century Gothic';-inkscape-font-specification:'Century Gothic, Normal';font-variant-ligatures:normal;font-variant-caps:normal;font-variant-numeric:normal;font-variant-east-asian:normal;fill:#000000;fill-opacity:1;stroke:none;stroke-width:3.26141"
       x="502.57437"
       y="109.63662"
       id="text26334-6"
       transform="scale(0.99911158,1.0008892)"><tspan
         sodipodi:role="line"
         id="tspan26332-9"
         style="font-style:normal;font-variant:normal;font-weight:normal;font-stretch:normal;font-size:53.3333px;font-family:'Century Gothic';-inkscape-font-specification:'Century Gothic, Normal';font-variant-ligatures:normal;font-variant-caps:normal;font-variant-numeric:normal;font-variant-east-asian:normal;stroke-width:3.26141"
         x="502.57437"
         y="109.63662">academia</tspan></text>
    <ellipse
       style="fill:none;fill-opacity:1;fill-rule:evenodd;stroke:#636363;stroke-width:7.55906;stroke-miterlimit:4;stroke-dasharray:none;stroke-opacity:1"
       id="path2073"
       cx="498.97275"
       cy="198.78326"
       rx="20.612474"
       ry="20.612476" />
    <ellipse
       style="fill:none;fill-opacity:1;fill-rule:evenodd;stroke:#636363;stroke-width:7.55906;stroke-miterlimit:4;stroke-dasharray:none;stroke-opacity:1"
       id="path2073-1"
       cx="592.40753"
       cy="212.45486"
       rx="20.612474"
       ry="20.612476" />
    <ellipse
       style="fill:none;fill-opacity:1;fill-rule:evenodd;stroke:#636363;stroke-width:7.55906;stroke-miterlimit:4;stroke-dasharray:none;stroke-opacity:1"
       id="path2073-1-5"
       cx="705.78595"
       cy="161.31337"
       rx="20.612474"
       ry="20.612476" />
    <ellipse
       style="fill:none;fill-opacity:1;fill-rule:evenodd;stroke:#636363;stroke-width:7.55906;stroke-miterlimit:4;stroke-dasharray:none;stroke-opacity:1"
       id="path2073-1-5-8"
       cx="810.24438"
       cy="177.44632"
       rx="20.612474"
       ry="20.612476" />
    <path
       style="fill:none;fill-opacity:1;stroke:#636363;stroke-width:7.55906;stroke-linecap:butt;stroke-linejoin:miter;stroke-miterlimit:4;stroke-dasharray:none;stroke-opacity:1"
       d="m 518.33651,196.41528 55.48072,16.81254"
       id="path2306" />
    <path
       style="fill:none;fill-opacity:1;stroke:#636363;stroke-width:7.55906;stroke-linecap:butt;stroke-linejoin:miter;stroke-miterlimit:4;stroke-dasharray:none;stroke-opacity:1"
       d="m 479.91309,200.19223 -34.14414,13.85583"
       id="path2308" />
    <path
       style="fill:none;fill-opacity:1;stroke:#636363;stroke-width:6.79499;stroke-linecap:butt;stroke-linejoin:miter;stroke-miterlimit:4;stroke-dasharray:none;stroke-opacity:1"
       d="m 611.53522,203.56062 75.39206,-37.85459"
       id="path2310" />
    <path
       style="fill:none;fill-opacity:1;stroke:#636363;stroke-width:5.87645;stroke-linecap:butt;stroke-linejoin:miter;stroke-miterlimit:4;stroke-dasharray:none;stroke-opacity:1"
       d="m 727.50013,160.38883 63.61339,12.94236"
       id="path2312" />
    <path
       style="fill:none;fill-opacity:1;stroke:#636363;stroke-width:7.55906;stroke-linecap:butt;stroke-linejoin:miter;stroke-miterlimit:4;stroke-dasharray:none;stroke-opacity:1"
       d="M 826.98621,172.35191 860.9735,156.18512"
       id="path2312-8" />
    <g
       id="g11834"
       clip-path="url(#clipPath12046)"
       transform="matrix(3.7795276,0,0,3.7795276,430.64756,-194.05577)">
      <rect
         style="fill:url(#linearGradient1025);fill-opacity:1;fill-rule:evenodd;stroke:#000000;stroke-width:0.477605;stroke-miterlimit:4;stroke-dasharray:none;stroke-opacity:1"
         id="rect20548-9-6-3-6-9-0"
         width="8.3587551"
         height="48.282288"
         x="63.25872"
         y="109.86143" />
      <rect
         style="fill:url(#linearGradient11153);fill-opacity:1;fill-rule:evenodd;stroke:#000000;stroke-width:0.508119;stroke-miterlimit:4;stroke-dasharray:none;stroke-opacity:1"
         id="rect20548-9-6-3-6-9-8-1"
         width="8.3587551"
         height="54.648746"
         x="77.298599"
         y="103.46288" />
      <rect
         style="fill:url(#linearGradient11664);fill-opacity:1;fill-rule:evenodd;stroke:#000000;stroke-width:0.437203;stroke-miterlimit:4;stroke-dasharray:none;stroke-opacity:1"
         id="rect20548-9-0"
         width="8.3587551"
         height="40.459267"
         x="7.0410986"
         y="117.71114" />
      <rect
         style="fill:url(#linearGradient11157);fill-opacity:1;fill-rule:evenodd;stroke:#000000;stroke-width:0.423227;stroke-miterlimit:4;stroke-dasharray:none;stroke-opacity:1"
         id="rect20548-9-6-8"
         width="8.3587551"
         height="37.914047"
         x="21.13402"
         y="120.31699" />
      <rect
         style="fill:url(#linearGradient11159);fill-opacity:1;fill-rule:evenodd;stroke:#000000;stroke-width:0.389959;stroke-miterlimit:4;stroke-dasharray:none;stroke-opacity:1"
         id="rect20548-9-6-3-2"
         width="8.3587551"
         height="32.187473"
         x="35.216187"
         y="126.08535" />
      <rect
         style="fill:url(#linearGradient11161);fill-opacity:1;fill-rule:evenodd;stroke:#000000;stroke-width:0.428077;stroke-miterlimit:4;stroke-dasharray:none;stroke-opacity:1"
         id="rect20548-9-6-3-6-8"
         width="8.3587551"
         height="38.787598"
         x="49.241718"
         y="119.42812" />
      <rect
         style="fill:url(#linearGradient11163);fill-opacity:1;fill-rule:evenodd;stroke:#000000;stroke-width:0.452855;stroke-miterlimit:4;stroke-dasharray:none;stroke-opacity:1"
         id="rect20548-9-6-3-6-9-8-3-9"
         width="8.3587551"
         height="43.407867"
         x="91.413795"
         y="114.80329" />
      <rect
         style="fill:url(#linearGradient11165);fill-opacity:1;fill-rule:evenodd;stroke:#000000;stroke-width:0.461495;stroke-miterlimit:4;stroke-dasharray:none;stroke-opacity:1"
         id="rect20548-9-6-3-6-9-8-3-4-5"
         width="8.3587551"
         height="45.079971"
         x="105.42799"
         y="113.05421" />
    </g>
    <path
       style="fill:#000000;fill-opacity:0;fill-rule:evenodd;stroke:#000000;stroke-width:1.5;stroke-miterlimit:4;stroke-dasharray:none;stroke-opacity:1"
       id="path19773"
       sodipodi:type="arc"
       sodipodi:cx="646.04736"
       sodipodi:cy="158.1931"
       sodipodi:rx="243.40913"
       sodipodi:ry="243.87497"
       sodipodi:start="0.10242276"
       sodipodi:end="0.10239066"
       sodipodi:open="true"
       sodipodi:arc-type="arc"
       d="M 888.18088,183.1278 A 243.40913,243.87497 0 0 1 621.16224,400.79021 243.40913,243.87497 0 0 1 403.91345,133.2623 243.40913,243.87497 0 0 1 670.9286,-84.404412 243.40913,243.87497 0 0 1 888.18168,183.12001" />
  </g>
  <g
     aria-label="academia"
     transform="matrix(0.90609097,0.02006002,-0.01976379,0.89271018,-12.984987,12.947961)"
     id="text6563"
     style="font-size:46.6667px;line-height:1.25;font-family:'Century Gothic';-inkscape-font-specification:'Century Gothic, Normal';stroke-width:0.947155"
     inkscape:path-effect="#path-effect31984">
    <path
       d="m 381.30083,242.89011 6.64615,32.91968 -3.65439,-0.006 -1.14415,-5.60982 c -1.13628,2.13176 -2.58404,3.73734 -4.34832,4.81623 -1.75663,1.08539 -3.83105,1.63051 -6.23084,1.63051 -4.3157,0 -8.43012,-1.72544 -12.33671,-5.21532 -3.95084,-3.56362 -6.50805,-7.91131 -7.63142,-13.02438 -1.10623,-5.03506 -0.40138,-9.28552 2.10528,-12.71103 2.48826,-3.40034 5.99228,-4.94858 10.47239,-4.66678 2.55575,0.16076 4.96817,0.90268 7.2399,2.21837 2.27094,1.30559 4.3952,3.17525 6.37534,5.60265 l -1.26161,-6.18571 z m -14.90638,2.42854 c -2.2391,-0.12412 -4.19082,0.37576 -5.84849,1.50493 -1.67117,1.11396 -2.85009,2.75395 -3.53078,4.91798 -0.66205,2.16821 -0.72516,4.4877 -0.18971,6.95094 0.52938,2.43532 1.6113,4.77182 3.23887,7.00357 1.61706,2.21731 3.50438,3.94677 5.65675,5.19156 2.14964,1.21439 4.28727,1.82541 6.41368,1.84029 2.1288,0.0149 4.00921,-0.55926 5.64663,-1.71763 1.62852,-1.15207 2.73072,-2.71789 3.31265,-4.70012 0.59912,-1.97915 0.6428,-4.22152 0.1306,-6.73451 -0.78347,-3.84395 -2.57756,-7.11986 -5.4033,-9.83796 -2.83898,-2.74775 -5.97876,-4.2279 -9.4269,-4.41905 z"
       id="path31497"
       inkscape:original-d="m 362.24406,244.49134 v 24.79168 h -3.14454 v -4.26107 q -2.0052,2.43815 -4.51172,3.66862 -2.48372,1.23047 -5.44596,1.23047 -5.26368,0 -9.00066,-3.80534 -3.7142,-3.82813 -3.7142,-9.29688 0,-5.35482 3.75977,-9.16016 3.75977,-3.80534 9.04623,-3.80534 3.05339,0 5.51433,1.29882 2.48372,1.29883 4.35221,3.89649 v -4.55729 z m -12.76043,2.43815 q -2.66601,0 -4.92188,1.32161 -2.25586,1.29883 -3.60026,3.66863 -1.32161,2.36979 -1.32161,5.01302 0,2.62045 1.3444,5.01303 1.3444,2.39258 3.60026,3.73698 2.27865,1.32161 4.87631,1.32161 2.62044,0 4.96745,-1.32161 2.347,-1.32162 3.60026,-3.57748 1.27604,-2.25586 1.27604,-5.08138 0,-4.30665 -2.84831,-7.20053 -2.82552,-2.89388 -6.97266,-2.89388 z" />
    <path
       d="m 417.31673,251.52002 -2.27381,1.85439 c -2.98303,-3.78373 -6.51383,-5.80672 -10.61073,-6.03451 -3.32067,-0.18463 -5.86945,0.92978 -7.62218,3.35511 -1.7454,2.43967 -2.2653,5.48323 -1.55461,9.10947 0.4606,2.35017 1.40399,4.56818 2.82453,6.64906 1.42869,2.06845 3.12799,3.67252 5.09283,4.81499 1.96593,1.13366 4.01462,1.70465 6.14462,1.71955 3.85771,0.027 6.63241,-1.7495 8.3599,-5.3151 l 2.97487,2.0952 c -0.81072,2.17389 -2.13436,3.86406 -3.97877,5.07282 -1.84445,1.19808 -4.11024,1.80012 -6.80901,1.80012 -4.19963,0 -8.04154,-1.58188 -11.51179,-4.77974 -3.5205,-3.24416 -5.76002,-7.20744 -6.68383,-11.87276 -0.62384,-3.15046 -0.51592,-6.05263 0.3241,-8.69407 0.85167,-2.6551 2.32758,-4.67518 4.41773,-6.05692 2.07516,-1.37183 4.55711,-1.96286 7.43341,-1.78194 1.79017,0.1126 3.56312,0.54314 5.31876,1.28827 1.75964,0.74093 3.29355,1.6555 4.60554,2.74312 1.30484,1.08167 2.48714,2.42643 3.54844,4.03294 z"
       id="path31499"
       inkscape:original-d="m 393.48431,249.64108 -2.52929,1.57227 q -3.28126,-4.35222 -8.95509,-4.35222 -4.53451,0 -7.54232,2.91667 -2.98503,2.91667 -2.98503,7.08659 0,2.71159 1.36719,5.10417 1.38997,2.39258 3.78255,3.7142 2.41537,1.32161 5.4004,1.32161 5.46875,0 8.9323,-4.35221 l 2.52929,1.66341 q -1.77734,2.66602 -4.78516,4.14714 -2.98502,1.45833 -6.81315,1.45833 -5.87891,0 -9.75261,-3.73698 -3.8737,-3.73698 -3.8737,-9.0918 0,-3.60027 1.80013,-6.67644 1.82292,-3.09896 4.99024,-4.83073 3.16732,-1.73177 7.08659,-1.73177 2.46094,0 4.73959,0.75195 2.30143,0.75195 3.89648,1.95964 1.59506,1.20768 2.71159,3.07617 z" />
    <path
       d="m 446.43232,246.88602 4.82086,29.02061 -2.85038,-0.004 -0.83032,-4.95038 c -0.90817,1.88202 -2.0526,3.29931 -3.43676,4.25149 -1.37731,0.95724 -2.99441,1.43774 -4.85643,1.43774 -3.3438,0 -6.50659,-1.51669 -9.48342,-4.58016 -3.00465,-3.12254 -4.92331,-6.92984 -5.729,-11.40754 -0.79285,-4.4063 -0.20298,-8.132 1.76296,-11.14606 1.95327,-2.99464 4.67054,-4.37496 8.12512,-4.15766 1.97369,0.12414 3.83214,0.76009 5.57719,1.90212 1.74635,1.13432 3.3744,2.76716 4.88594,4.89359 l -0.91227,-5.43893 z m -11.58588,2.22726 c -1.72862,-0.0958 -3.24084,0.35428 -4.53217,1.35435 -1.30073,0.98616 -2.22744,2.43033 -2.77607,4.33096 -0.53423,1.90384 -0.60904,3.93769 -0.22461,6.09572 0.3802,2.1343 1.1874,4.18125 2.41702,6.13629 1.22263,1.94394 2.66045,3.46041 4.30988,4.55187 1.64925,1.06579 3.2975,1.60166 4.94521,1.61319 1.65107,0.0115 3.1172,-0.49574 4.40205,-1.51812 1.27869,-1.01748 2.15319,-2.39967 2.62768,-4.14865 0.48793,-1.74659 0.54643,-3.72407 0.17529,-5.9382 -0.56747,-3.38538 -1.92646,-6.264 -4.09127,-8.64368 -2.17186,-2.40253 -4.58776,-3.68598 -7.25301,-3.83373 z"
       id="path31501"
       inkscape:original-d="m 424.31441,244.49134 v 24.79168 h -3.14453 v -4.26107 q -2.00521,2.43815 -4.51172,3.66862 -2.48373,1.23047 -5.44597,1.23047 -5.26368,0 -9.00066,-3.80534 -3.71419,-3.82813 -3.71419,-9.29688 0,-5.35482 3.75977,-9.16016 3.75976,-3.80534 9.04623,-3.80534 3.05338,0 5.51432,1.29882 2.48373,1.29883 4.35222,3.89649 v -4.55729 z m -12.76042,2.43815 q -2.66602,0 -4.92188,1.32161 -2.25586,1.29883 -3.60026,3.66863 -1.32162,2.36979 -1.32162,5.01302 0,2.62045 1.3444,5.01303 1.3444,2.39258 3.60027,3.73698 2.27864,1.32161 4.8763,1.32161 2.62045,0 4.96745,-1.32161 2.34701,-1.32162 3.60026,-3.57748 1.27605,-2.25586 1.27605,-5.08138 0,-4.30665 -2.84831,-7.20053 -2.82552,-2.89388 -6.97266,-2.89388 z" />
    <path
       d="m 472.64301,237.80667 5.75102,38.14147 -2.53641,-0.004 -0.71056,-4.66814 c -0.81824,1.77506 -1.84373,3.11173 -3.07938,4.00967 -1.22923,0.90244 -2.66831,1.35533 -4.32151,1.35533 -2.967,0 -5.76243,-1.42784 -8.38196,-4.31019 -2.64177,-2.93564 -4.31696,-6.51417 -5.00317,-10.72289 -0.67506,-4.14038 -0.13155,-7.64362 1.62486,-10.4823 1.74576,-2.82147 4.15924,-4.12866 7.21828,-3.93624 1.74883,0.11 3.39332,0.7022 4.93501,1.77151 1.54356,1.06251 2.97989,2.59542 4.31051,4.59435 l -2.431,-15.97083 z m -8.67045,12.92121 c -1.53147,-0.0849 -2.87382,0.34312 -4.02331,1.28761 -1.15741,0.93116 -1.98616,2.29177 -2.48285,4.08043 -0.48392,1.7915 -0.56205,3.70419 -0.2345,5.73294 0.324,2.00673 1.02656,3.93102 2.10388,5.76886 1.07156,1.82801 2.33666,3.25415 3.79228,4.28059 1.45621,1.00268 2.9152,1.50666 4.3773,1.51689 1.46564,0.0103 2.77056,-0.46836 3.91777,-1.43253 1.14203,-0.95981 1.92715,-2.26337 2.35886,-3.91254 0.44366,-1.64705 0.50688,-3.51126 0.18948,-5.59777 -0.48522,-3.18967 -1.67652,-5.89926 -3.58584,-8.13568 -1.91437,-2.25665 -4.05055,-3.45783 -6.41307,-3.5888 z"
       id="path31503"
       inkscape:original-d="m 456.23826,234.92102 v 34.362 h -3.14453 v -4.26107 q -2.00521,2.43815 -4.51172,3.66862 -2.48373,1.23047 -5.44597,1.23047 -5.26368,0 -9.00066,-3.80534 -3.71419,-3.82813 -3.71419,-9.29688 0,-5.35482 3.75977,-9.16016 3.75976,-3.80534 9.04623,-3.80534 3.05338,0 5.51432,1.29882 2.48373,1.29883 4.35222,3.89649 v -14.12761 z m -12.76042,12.00847 q -2.66602,0 -4.92188,1.32161 -2.25586,1.29883 -3.60026,3.66863 -1.32162,2.36979 -1.32162,5.01302 0,2.62045 1.3444,5.01303 1.3444,2.39258 3.60027,3.73698 2.27864,1.32161 4.8763,1.32161 2.62045,0 4.96745,-1.32161 2.34701,-1.32162 3.60026,-3.57748 1.27605,-2.25586 1.27605,-5.08138 0,-4.30665 -2.84831,-7.20053 -2.82552,-2.89388 -6.97266,-2.89388 z" />
    <path
       d="m 498.67604,267.42552 2.1651,1.51032 c -0.39232,1.78804 -0.93253,3.22993 -1.62171,4.32659 -0.69102,1.09958 -1.52643,1.94093 -2.50796,2.5237 -0.98794,0.56939 -2.16221,0.85499 -3.52601,0.85499 -3.05366,0 -5.67608,-1.40682 -7.8533,-4.24399 -2.20406,-2.8854 -3.58406,-6.15466 -4.12303,-9.79454 -0.50914,-3.43843 -0.19491,-6.47925 0.94091,-9.10501 1.43219,-3.32491 3.75266,-4.88032 6.93217,-4.68033 3.22664,0.20296 6.00843,2.07581 8.35849,5.58781 1.65073,2.45434 2.72559,5.45058 3.23384,8.99395 l -16.84396,-0.51782 c 0.50584,3.12663 1.59768,5.69734 3.26632,7.70805 1.65229,1.97769 3.46843,2.96731 5.44539,2.98114 0.94767,0.007 1.83015,-0.21832 2.64833,-0.67362 0.82657,-0.45358 1.49432,-1.05795 2.0047,-1.81321 0.50937,-0.75376 1.00286,-1.97331 1.48072,-3.65803 z m -0.97124,-7.00497 c -0.56335,-1.80701 -1.22497,-3.26492 -1.98567,-4.37235 -0.7524,-1.11133 -1.67799,-2.02663 -2.77893,-2.74547 -1.10685,-0.72271 -2.22422,-1.11669 -3.35198,-1.17927 -1.87289,-0.10392 -3.37213,0.65742 -4.48934,2.28986 -0.81959,1.19287 -1.30575,3.02119 -1.4565,5.48132 z"
       id="path31505"
       inkscape:original-d="m 484.33398,261.0571 2.68881,1.41276 q -1.32162,2.59766 -3.05339,4.19272 -1.73177,1.59505 -3.89649,2.43815 -2.16471,0.82031 -4.89909,0.82031 -6.0612,0 -9.47917,-3.96485 -3.41797,-3.98763 -3.41797,-9.00065 0,-4.7168 2.89388,-8.40821 3.66862,-4.69401 9.82097,-4.69401 6.33464,0 10.11719,4.80794 2.68881,3.39519 2.73438,8.47657 h -22.28517 q 0.0911,4.32943 2.75716,7.10938 2.66602,2.75716 6.58529,2.75716 1.89128,0 3.66863,-0.66081 1.80013,-0.6608 3.05338,-1.75455 1.25326,-1.09375 2.71159,-3.53191 z m 0,-6.67643 q -0.63802,-2.55209 -1.86849,-4.07878 -1.20768,-1.5267 -3.21289,-2.46094 -2.00521,-0.93425 -4.2155,-0.93425 -3.64583,0 -6.26628,2.34701 -1.91406,1.70899 -2.89388,5.12696 z" />
    <path
       d="m 503.16648,250.36675 2.2725,0.13942 0.59529,4.45662 c 0.56883,-1.59782 1.21664,-2.75016 1.94257,-3.45764 1.00001,-0.93776 2.11988,-1.36606 3.35731,-1.28823 0.83142,0.0523 1.64891,0.34302 2.45249,0.87071 0.8003,0.52554 1.48372,1.20334 2.05136,2.03306 0.5639,0.81173 1.1086,1.96337 1.6341,3.45315 0.4657,-1.92539 1.16908,-3.36295 2.10773,-4.31161 0.93295,-0.9601 2.00615,-1.40046 3.21701,-1.3243 1.12436,0.0707 2.16217,0.5634 3.11437,1.4748 0.95711,0.9073 1.73127,2.13474 2.32451,3.68147 0.59104,1.54098 1.06898,3.82492 1.43455,6.84841 l 1.58226,13.08639 -2.04979,-0.003 -1.60567,-13.15394 c -0.31817,-2.60656 -0.65883,-4.4038 -1.02188,-5.3877 -0.36574,-1.00117 -0.88515,-1.81845 -1.55945,-2.45183 -0.66686,-0.63514 -1.41786,-0.97665 -2.25374,-1.02294 -1.01962,-0.0565 -1.90153,0.3484 -2.64366,1.21686 -0.73434,0.87172 -1.20374,2.0623 -1.40654,3.56997 -0.20284,1.50798 -0.078,4.04253 0.37322,7.59276 l 1.22306,9.62322 -2.10292,-0.003 -1.62515,-12.66851 c -0.38659,-3.01354 -0.77804,-5.0672 -1.17411,-6.15532 -0.38867,-1.1057 -0.94131,-1.99999 -1.65924,-2.68279 -0.72266,-0.70088 -1.52523,-1.0767 -2.40845,-1.12561 -1.02455,-0.0567 -1.92949,0.35174 -2.71297,1.22777 -0.77742,0.86374 -1.28369,2.06311 -1.51701,3.59642 -0.22265,1.53426 -0.12073,3.89816 0.30465,7.08282 l 1.4307,10.7109 -2.22216,-0.003 z"
       id="path31507"
       inkscape:original-d="m 493.76759,244.49134 h 3.16732 v 4.28385 q 1.66341,-2.36979 3.41797,-3.46354 2.41537,-1.45833 5.08139,-1.45833 1.80013,0 3.41797,0.70638 1.61784,0.70638 2.64323,1.89127 1.02539,1.16211 1.77734,3.34961 1.59506,-2.91666 3.98764,-4.42057 2.39258,-1.52669 5.14974,-1.52669 2.57487,0 4.53451,1.29882 1.98242,1.29883 2.93945,3.62305 0.95703,2.32422 0.95703,6.97266 v 13.53517 h -3.25846 v -13.53517 q 0,-3.98763 -0.56966,-5.46875 -0.56967,-1.50391 -1.95964,-2.41537 -1.36719,-0.91145 -3.28125,-0.91145 -2.32422,0 -4.26107,1.36718 -1.91407,1.36719 -2.80274,3.64584 -0.88867,2.27865 -0.88867,7.61068 v 9.70704 h -3.16732 v -12.69207 q 0,-4.48893 -0.56966,-6.08398 -0.54688,-1.61784 -1.93685,-2.57488 -1.38998,-0.97981 -3.30404,-0.97981 -2.21029,0 -4.14714,1.3444 -1.91407,1.32161 -2.84831,3.57747 -0.91146,2.25586 -0.91146,6.90431 v 10.50456 h -3.16732 z" />
    <path
       d="m 532.10264,242.21796 c 0.45795,0.0395 0.87814,0.32683 1.26075,0.86127 0.38177,0.53327 0.61418,1.15629 0.69781,1.86951 0.0818,0.69781 -0.008,1.28639 -0.27048,1.76654 -0.26248,0.48065 -0.6214,0.70447 -1.07734,0.67102 -0.44745,-0.0328 -0.86389,-0.3146 -1.2492,-0.84612 -0.38615,-0.53268 -0.62141,-1.15111 -0.70521,-1.85482 -0.0856,-0.71925 0.005,-1.32049 0.27064,-1.8029 0.26574,-0.48189 0.6236,-0.70325 1.07303,-0.6645 z m 0.1844,9.93538 2.00295,0.12288 2.79468,23.7617 -1.96236,-0.003 z"
       id="path31509"
       inkscape:original-d="m 538.67973,234.283 q 1.09375,0 1.86849,0.77474 0.77474,0.77474 0.77474,1.86849 0,1.07096 -0.77474,1.8457 -0.77474,0.77474 -1.86849,0.77474 -1.07097,0 -1.84571,-0.77474 -0.77474,-0.77474 -0.77474,-1.8457 0,-1.09375 0.77474,-1.86849 0.77474,-0.77474 1.84571,-0.77474 z m -1.59506,10.20834 h 3.2129 v 24.79168 h -3.2129 z" />
    <path
       d="m 552.80473,253.41213 2.43194,22.65355 -1.74728,-0.003 -0.41935,-3.87066 c -0.58908,1.47262 -1.31371,2.58137 -2.17553,3.32602 -0.85674,0.74773 -1.84976,1.12275 -2.98143,1.12275 -2.02749,0 -3.91198,-1.17838 -5.65061,-3.55328 -1.74913,-2.41357 -2.83,-5.35367 -3.23024,-8.81168 -0.39341,-3.39904 0.0281,-6.28053 1.26095,-8.62592 1.22673,-2.33369 2.88544,-3.43027 4.96389,-3.29954 1.19037,0.0749 2.30379,0.54854 3.34117,1.41751 1.04005,0.86442 2.00085,2.11953 2.88332,3.76232 l -0.45804,-4.22768 z m -7.07758,1.84781 c -1.04202,-0.0578 -1.96201,0.30536 -2.75791,1.09175 -0.80045,0.77488 -1.38379,1.90014 -1.7481,3.37482 -0.35561,1.47662 -0.43781,3.0505 -0.24658,4.71819 0.18922,1.65024 0.6368,3.23201 1.34068,4.74258 0.70078,1.50391 1.54008,2.67741 2.51618,3.52199 0.97802,0.82594 1.96659,1.24072 2.96584,1.24771 1.00277,0.007 1.90381,-0.39042 2.7048,-1.19004 0.79799,-0.79662 1.35656,-1.8779 1.67773,-3.24512 0.32942,-1.36574 0.40065,-2.91026 0.21368,-4.63707 -0.28568,-2.63845 -1.06286,-4.87367 -2.33822,-6.71033 -1.27647,-1.85037 -2.71827,-2.82524 -4.3281,-2.91448 z"
       id="path31511"
       inkscape:original-d="m 571.60618,244.49134 v 24.79168 h -3.14453 v -4.26107 q -2.00521,2.43815 -4.51173,3.66862 -2.48372,1.23047 -5.44596,1.23047 -5.26368,0 -9.00066,-3.80534 -3.7142,-3.82813 -3.7142,-9.29688 0,-5.35482 3.75977,-9.16016 3.75977,-3.80534 9.04623,-3.80534 3.05339,0 5.51433,1.29882 2.48373,1.29883 4.35222,3.89649 v -4.55729 z m -12.76043,2.43815 q -2.66601,0 -4.92187,1.32161 -2.25586,1.29883 -3.60027,3.66863 -1.32161,2.36979 -1.32161,5.01302 0,2.62045 1.3444,5.01303 1.3444,2.39258 3.60026,3.73698 2.27865,1.32161 4.87631,1.32161 2.62044,0 4.96745,-1.32161 2.34701,-1.32162 3.60026,-3.57748 1.27604,-2.25586 1.27604,-5.08138 0,-4.30665 -2.8483,-7.20053 -2.82553,-2.89388 -6.97267,-2.89388 z" />
  </g>
  <rect
     style="fill:#ffffff;fill-opacity:1;fill-rule:evenodd;stroke:#ffffff;stroke-width:7.55906"
     id="rect11389"
     width="26.549891"
     height="148.23692"
     x="15.487436"
     y="-324.12991" />
  <path
     style="fill:none;fill-opacity:1;stroke:#ff0000;stroke-width:0.480448px;stroke-linecap:butt;stroke-linejoin:miter;stroke-opacity:1"
     d="m 315.00994,541.13834 26.02135,159.63617 h 188.19025 l -13.15918,-129.3511 z"
     id="path11504-8" />
  <g
     id="g33265"
     transform="translate(10.701734,55.121751)">
    <g
       aria-label="GSM"
       id="text24319"
       style="font-size:40px;line-height:1.25"
       inkscape:path-effect="#path-effect30708"
       transform="translate(-231.54118,-465.42903)">
      <path
         d="m 578.29621,571.51698 -4.83488,4.93542 c -4.68507,-4.59639 -9.68284,-8.26724 -15.00386,-10.99911 -5.36033,-2.79838 -10.50356,-4.50167 -15.42046,-5.08785 -6.20046,-0.7392 -11.97011,0.0825 -17.28965,2.49565 -5.34858,2.44743 -9.26655,6.1874 -11.71428,11.21833 -2.46727,5.02265 -3.24828,10.53203 -2.33387,16.49762 0.93507,6.10038 3.51609,12.00865 7.71423,17.69328 4.15273,5.59443 9.34797,10.06596 15.54761,13.4178 6.10585,3.26864 12.43289,5.02117 18.96917,5.28929 7.79929,0.31993 13.96655,-1.60423 18.57129,-5.73287 4.55317,-4.0824 6.79228,-9.52872 6.75547,-16.37322 l -23.60721,-1.64299 -1.08683,-7.43702 31.67737,2.48405 c 1.54738,11.43757 -0.41966,20.32744 -5.95367,26.76779 -5.58308,6.49746 -14.02113,9.59857 -25.49071,9.22786 -14.36459,-0.46429 -26.84712,-5.82654 -37.25806,-16.25971 -8.17844,-8.2035 -13.12985,-17.56153 -14.74335,-27.98619 -1.20379,-7.77756 -0.27085,-14.83446 2.78517,-21.12228 3.03484,-6.24422 7.76064,-10.80887 14.12291,-13.69451 6.26481,-2.88034 13.58869,-3.76293 21.91596,-2.69469 6.62337,0.84965 12.93696,2.83408 18.95247,5.92942 5.92461,3.01645 11.83333,7.38437 17.72518,13.07393 z"
         style="font-size:85.3333px;font-family:'Century Gothic';-inkscape-font-specification:'Century Gothic, Normal'"
         id="path30683"
         inkscape:original-d="m 615.71137,635.8012 -4.74999,4.5 q -5.125,-5.04167 -11.25,-7.625 -6.08333,-2.625 -11.875,-2.625 -7.20833,0 -13.74999,3.54167 -6.5,3.54166 -10.08333,9.62499 -3.58333,6.04167 -3.58333,12.79167 0,6.91666 3.70833,13.16666 3.70833,6.20833 10.25,9.79166 6.54166,3.54167 14.33332,3.54167 9.45833,0 16,-5.33334 6.54166,-5.33333 7.74999,-13.83332 h -19.54165 v -5.91667 h 26.41665 q -0.0833,14.20833 -8.45833,22.58333 -8.33333,8.33333 -22.33332,8.33333 -16.99999,0 -26.91666,-11.58333 -7.62499,-8.91667 -7.62499,-20.62499 0,-8.70833 4.37499,-16.20833 4.375,-7.5 12,-11.70833 7.625,-4.25 17.24999,-4.25 7.79167,0 14.66666,2.83334 6.875,2.79166 13.41666,8.99999 z" />
      <path
         d="m 595.35016,620.24285 5.31684,-3.39935 c 5.15621,8.1743 10.32212,12.32943 15.49571,12.54262 2.19203,0.0903 4.16557,-0.36974 5.92387,-1.37635 1.74595,-1.03388 2.98499,-2.45008 3.72201,-4.24948 0.7356,-1.7959 0.96393,-3.72608 0.6859,-5.79427 -0.31676,-2.35633 -1.35209,-4.71224 -3.11182,-7.07442 -2.4418,-3.27826 -6.67341,-7.34817 -12.75393,-12.25115 -6.21181,-5.01603 -10.19143,-8.64091 -11.86977,-10.82147 -2.90998,-3.68615 -4.65377,-7.55863 -5.21593,-11.60131 -0.44656,-3.21135 -0.12953,-6.0585 0.94924,-8.53371 1.07581,-2.46842 2.80402,-4.29147 5.17611,-5.46888 2.38412,-1.19959 5.07201,-1.60409 8.05733,-1.22113 3.14334,0.40323 6.16728,1.62545 9.07434,3.6576 2.91047,1.98824 6.13296,5.38158 9.65948,10.1582 l -4.64827,3.80924 c -2.91624,-3.82148 -5.33362,-6.41169 -7.24259,-7.75387 -1.88844,-1.34528 -3.87378,-2.1437 -5.95745,-2.39134 -2.70418,-0.32137 -4.81386,0.30564 -6.31931,1.88728 -1.48037,1.59124 -2.04201,3.69936 -1.68097,6.3181 0.21922,1.59 0.74006,3.16137 1.56134,4.71236 0.81959,1.54778 2.16108,3.27351 4.01915,5.17285 1.00848,1.00267 4.21286,3.6744 9.55961,7.97254 6.24815,5.01778 10.59892,9.33174 13.11506,12.9842 2.49971,3.6286 3.97711,7.18731 4.44402,10.69075 0.67205,5.04265 -0.47582,9.33933 -3.4604,12.91771 -2.97945,3.6079 -7.00972,5.34072 -12.12381,5.17542 -3.9852,-0.12881 -7.79284,-1.3978 -11.41701,-3.82272 -3.66249,-2.48027 -7.31568,-6.55294 -10.95875,-12.23942 z"
         style="font-size:85.3333px;font-family:'Century Gothic';-inkscape-font-specification:'Century Gothic, Normal'"
         id="path30685"
         inkscape:original-d="m 624.6697,675.38452 5.20833,-3.125 q 5.5,10.125 12.70833,10.125 3.08333,0 5.79166,-1.41667 2.70834,-1.45833 4.125,-3.875 1.41667,-2.41666 1.41667,-5.125 0,-3.08333 -2.08333,-6.04166 -2.875,-4.08333 -10.5,-9.83333 -7.66666,-5.79166 -9.54166,-8.375 -3.25,-4.33333 -3.25,-9.37499 0,-4 1.91667,-7.29167 1.91666,-3.29166 5.37499,-5.16666 3.5,-1.91667 7.58333,-1.91667 4.33333,0 8.08333,2.16667 3.79167,2.125 8,7.875 l -5,3.79166 q -3.45833,-4.58333 -5.91666,-6.04166 -2.41667,-1.45834 -5.29167,-1.45834 -3.70833,0 -6.08333,2.25 -2.33333,2.25 -2.33333,5.54167 0,2 0.83333,3.875 0.83334,1.87499 3.04167,4.08333 1.20833,1.16666 7.91666,6.12499 7.95833,5.875 10.91666,10.45833 2.95834,4.58333 2.95834,9.20833 0,6.66667 -5.08334,11.58333 -5.04166,4.91667 -12.29166,4.91667 -5.58333,0 -10.12499,-2.95834 -4.54167,-2.99999 -8.375,-9.99999 z" />
      <path
         d="m 646.30481,634.89484 -1.93111,-73.15182 0.88767,0.11858 28.85743,61.42265 12.65098,-55.87763 0.78954,0.10547 15.2066,69.38504 -4.59304,-0.16289 -10.72622,-49.63014 -11.11673,48.85553 -1.25784,-0.0446 -25.22086,-53.17722 1.65037,52.34134 z"
         style="font-size:85.3333px;font-family:'Century Gothic';-inkscape-font-specification:'Century Gothic, Normal';stroke-width:0.980744"
         id="path30687"
         inkscape:original-d="m 671.34481,686.23612 7.79876,-65.82965 h 0.89555 l 22.31416,54.01521 22.09028,-54.01521 h 0.89554 l 7.8734,65.82965 h -5.41063 l -5.3733,-47.07871 -19.40362,47.07871 h -1.38064 l -19.66482,-47.43673 -5.33599,47.43673 z" />
    </g>
  </g>
</svg>
