<?xml version="1.0" encoding="UTF-8" standalone="no"?>
<svg
   width="816.39954"
   height="459.11002"
   viewBox="0 0 816.39953 459.11001"
   version="1.1"
   id="svg274"
   sodipodi:docname="sec1.svg"
   inkscape:version="1.1 (c68e22c387, 2021-05-23)"
   xmlns:inkscape="http://www.inkscape.org/namespaces/inkscape"
   xmlns:sodipodi="http://sodipodi.sourceforge.net/DTD/sodipodi-0.dtd"
   xmlns="http://www.w3.org/2000/svg"
   xmlns:svg="http://www.w3.org/2000/svg"
   xmlns:xhtml="http://www.w3.org/1999/xhtml">
  <sodipodi:namedview
     id="namedview276"
     pagecolor="#ffffff"
     bordercolor="#666666"
     borderopacity="1.0"
     inkscape:pageshadow="2"
     inkscape:pageopacity="0.0"
     inkscape:pagecheckerboard="0"
     showgrid="false"
     inkscape:zoom="2.5567807"
     inkscape:cx="733.34409"
     inkscape:cy="187.93165"
     inkscape:window-width="2560"
     inkscape:window-height="1361"
     inkscape:window-x="-9"
     inkscape:window-y="-9"
     inkscape:window-maximized="1"
     inkscape:current-layer="svg274" />
  <defs
     id="defs2">
    <inkscape:path-effect
       effect="perspective-envelope"
       up_left_point="278.03366,250.77896"
       up_right_point="502.23272,270.18043"
       down_left_point="298.7451,361.17156"
       down_right_point="517.63353,369.85116"
       id="path-effect12127"
       is_visible="true"
       lpeversion="1"
       deform_type="perspective"
       horizontal_mirror="false"
       vertical_mirror="false"
       overflow_perspective="false" />
    <xhtml:style>*, ::after, ::before { box-sizing: border-box; }
img, svg { vertical-align: middle; }
</xhtml:style>
    <xhtml:style>*, body, html { -webkit-font-smoothing: antialiased; }
img, svg { max-width: 100%; }
</xhtml:style>
  </defs>
  <path
     d="m 691.33745,169.37 c -4.76,20.77 -18.67,39.95 -18.67,39.95 a 29.76,29.76 0 0 1 -12.49,10.34 c -15,6.34 -30.72,-3.81 -30.72,-3.81 l -4.77,-10.57 20.74,-12.57 a 12.25,12.25 0 0 0 2.31,1.71 v 0 c 12.38,7 23.83,-19.22 23.83,-19.22 a 7,7 0 0 1 -3,-5.86 z"
     fill="#f9b499"
     id="path92" />
  <rect
     style="fill:#f4cca9;fill-opacity:1;fill-rule:evenodd;stroke:none;stroke-width:8.97216;stroke-opacity:0.157005"
     id="rect22126"
     width="196.03999"
     height="106.12357"
     x="618.46167"
     y="66.228851"
     rx="6.7948318" />
  <path
     d="m 682.2625,117.60406 c 0,0.50218 0.066,1.02772 0.066,1.54158 a 17.27848,18.347101 0 0 1 -6.44506,14.3063 l 9.6236,15.68438 a 34.853917,37.009525 0 0 0 14.4079,-29.99068 36.294707,38.539423 0 0 0 -0.36295,-5.34881 z"
     fill="#000000"
     data-secondary="true"
     id="path74"
     style="stroke-width:1.13334" />
  <path
     d="m 698.80409,109.86114 a 34.974899,37.137989 0 0 0 -15.7717,-22.43462 l -8.56775,16.35006 a 17.322474,18.393815 0 0 1 7.11596,10.03193 z"
     fill="#f1f2f2"
     id="path76"
     style="stroke-width:1.13334" />
  <rect
     x="720.44891"
     y="103.02525"
     width="17.872393"
     height="55.465637"
     rx="3.8824337"
     fill="#f34a12"
     data-primary="true"
     id="rect78"
     style="stroke-width:0.974406" />
  <rect
     x="720.44891"
     y="115.35804"
     width="17.872393"
     height="43.121174"
     rx="3.8824337"
     opacity="0.2"
     id="rect80"
     style="stroke-width:1.01198" />
  <rect
     x="749.0777"
     y="131.52548"
     width="17.872393"
     height="26.953733"
     rx="3.8824337"
     opacity="0.2"
     id="rect84"
     style="stroke-width:0.991918" />
  <rect
     x="777.38757"
     y="83.455788"
     width="17.872393"
     height="75.035088"
     rx="3.8824337"
     fill="#f34a12"
     data-primary="true"
     id="rect86"
     style="stroke-width:1.13334" />
  <rect
     x="777.38757"
     y="137.50443"
     width="17.872393"
     height="20.986467"
     rx="3.8824337"
     opacity="0.2"
     id="rect88"
     style="stroke-width:1.13334" />
  <path
     d="m 679.62289,85.511227 a 34.875914,37.032882 0 1 0 2.7056,65.797313 l -9.6016,-15.71941 a 17.27848,18.347101 0 1 1 -1.79273,-33.6928 z"
     fill="#f34a12"
     data-primary="true"
     id="path190"
     style="stroke-width:1.13334" />
  <polygon
     points="639.91,481.52 594.5,185.39 148.17,111.89 205.69,481.52 "
     fill="#3f4347"
     id="polygon8"
     transform="translate(-24.662547,-111.89)" />
  <polygon
     points="613.45,466.61 585.98,198.17 166.28,135.32 220.6,466.61 "
     fill="#ebebeb"
     id="polygon10"
     transform="translate(-24.662547,-111.89)" />
  <polygon
     points="192.91,479.39 205.69,481.52 148.17,111.89 139.65,125.74 "
     fill="#2e3135"
     id="polygon12"
     transform="translate(-24.662547,-111.89)" />
  <path
     d="m 556.52745,244.47 c 4.26,1.06 68.13,-2.21 68.13,-2.21 v -37 l 24.54,-14.88 -18,-22.88 c 0,0 -3.26,-11.28 -28.83,-10.84 l -18.39,-1.06 c 0,0 -30.62,-1.7 -33.82,30.26 a 169.47,169.47 0 0 0 3.2,30.89 l 3.2,9.59 z"
     fill="#f34a12"
     data-primary="true"
     id="path90" />
  <path
     d="m 660.14745,219.65 v 0 c -15,6.34 -30.72,-3.81 -30.72,-3.81 l -4.77,-10.57 20.74,-12.57 2.31,1.71 v 0 c 0,0 -4.3,18.54 12.44,25.24 z"
     fill="#f7a48b"
     id="path94" />
  <path
     d="m 571.43745,215.71 -18.1,1.06 c 0,0 2.43,21.49 19.86,23.53 0,0 12.1,1 17.42,-6.48 l -9.51,-7 -5.38,0.17 c 0,0 -5.39,-1.69 -4.29,-11.28 z"
     fill="#f7a48b"
     id="path96" />
  <polygon
     points="428.86,552.36 453.76,481.52 371.82,481.52 346.83,552.36 "
     fill="#3f4347"
     id="polygon98"
     transform="translate(-24.662547,-111.89)" />
  <polygon
     points="361.38,481.52 371.82,481.52 346.83,552.36 337.46,552.36 "
     fill="#2e3135"
     id="polygon100"
     transform="translate(-24.662547,-111.89)" />
  <rect
     x="364.18747"
     y="439.94"
     width="101.26"
     height="19.17"
     fill="#2e3135"
     id="rect102" />
  <rect
     x="264.11746"
     y="439.94"
     width="100.13"
     height="19.17"
     fill="#2e3135"
     id="rect104" />
  <rect
     x="264.11746"
     y="439.94"
     width="100.13"
     height="19.17"
     opacity="0.2"
     id="rect106" />
  <rect
     x="99.007454"
     y="352.59"
     width="205.59"
     height="25.57"
     fill="#cccccc"
     id="rect116" />
  <rect
     x="99.007454"
     y="372.82999"
     width="205.59"
     height="5.3299999"
     fill="#b3b3b3"
     id="rect118" />
  <rect
     x="112.85746"
     y="352.59"
     width="42.610001"
     height="20.24"
     fill="#e6e6e6"
     id="rect120" />
  <rect
     x="87.287453"
     y="378.19998"
     width="205.59"
     height="25.57"
     fill="#cccccc"
     id="rect126" />
  <rect
     x="87.287453"
     y="398.42999"
     width="205.59"
     height="5.3299999"
     fill="#b3b3b3"
     id="rect128" />
  <rect
     x="101.13746"
     y="378.19998"
     width="42.610001"
     height="20.24"
     fill="#e6e6e6"
     id="rect130" />
  <rect
     x="80.897453"
     y="432.01001"
     width="205.59"
     height="25.57"
     fill="#cccccc"
     id="rect136" />
  <rect
     x="80.897453"
     y="452.25"
     width="205.59"
     height="5.3299999"
     fill="#b3b3b3"
     id="rect138" />
  <rect
     x="94.747459"
     y="432.01001"
     width="42.610001"
     height="20.24"
     fill="#e6e6e6"
     id="rect140" />
  <rect
     x="561.31744"
     y="392.53998"
     width="205.59"
     height="21.84"
     fill="#cccccc"
     id="rect146" />
  <rect
     x="561.31744"
     y="409.82996"
     width="205.59"
     height="4.5500002"
     fill="#b3b3b3"
     id="rect148" />
  <rect
     x="575.16748"
     y="392.53998"
     width="42.610001"
     height="17.290001"
     fill="#e6e6e6"
     id="rect150" />
  <rect
     x="673.16748"
     y="392.53998"
     width="8.5200005"
     height="17.290001"
     fill="#e6e6e6"
     id="rect152" />
  <rect
     x="706.18744"
     y="392.53998"
     width="7.46"
     height="17.290001"
     fill="#e6e6e6"
     id="rect154" />
  <rect
     x="549.57745"
     y="414.39001"
     width="180.56"
     height="21.84"
     fill="#cccccc"
     id="rect156" />
  <rect
     x="549.06744"
     y="432.20001"
     width="180.56"
     height="4.5500002"
     fill="#b3b3b3"
     id="rect158" />
  <rect
     x="561.22748"
     y="414.90997"
     width="37.419998"
     height="17.290001"
     fill="#e6e6e6"
     id="rect160" />
  <rect
     x="647.29749"
     y="414.90997"
     width="7.48"
     height="17.290001"
     fill="#e6e6e6"
     id="rect162" />
  <rect
     x="676.29749"
     y="414.90997"
     width="6.5500002"
     height="17.290001"
     fill="#e6e6e6"
     id="rect164" />
  <rect
     x="511.78748"
     y="436.76001"
     width="188.55"
     height="21.84"
     fill="#cccccc"
     id="rect166" />
  <rect
     x="524.48749"
     y="436.76001"
     width="39.080002"
     height="17.290001"
     fill="#e6e6e6"
     id="rect168" />
  <rect
     x="614.35748"
     y="436.76001"
     width="7.8200002"
     height="17.290001"
     fill="#e6e6e6"
     id="rect170" />
  <rect
     x="644.64746"
     y="436.76001"
     width="6.8400002"
     height="17.290001"
     fill="#e6e6e6"
     id="rect172" />
  <rect
     x="112.85746"
     y="403.76001"
     width="184.82001"
     height="28.23"
     fill="#cccccc"
     id="rect174" />
  <rect
     x="112.85746"
     y="426.10999"
     width="184.82001"
     height="5.8800001"
     fill="#b3b3b3"
     id="rect176" />
  <rect
     x="125.29746"
     y="403.76001"
     width="38.299999"
     height="22.35"
     fill="#e6e6e6"
     id="rect178" />
  <polygon
     points="646.7,354.29 583.2,356.53 571.07,511.35 604.6,513.07 615.27,387.96 623.31,513.07 656.28,511.35 "
     fill="#000000"
     data-secondary="true"
     id="polygon184"
     transform="translate(-24.662547,-111.89)" />
  <polygon
     points="630.98,502.27 656.28,502.27 656.28,511.35 623.31,513.07 615.27,387.96 "
     opacity="0.2"
     id="polygon186"
     transform="translate(-24.662547,-111.89)" />
  <polygon
     points="605.86,498.33 604.6,513.07 571.07,511.35 571.75,502.58 "
     opacity="0.2"
     id="polygon188"
     transform="translate(-24.662547,-111.89)" />
  <polygon
     points="599.85,528.48 569.01,526.8 569.03,510.85 605.86,513.07 605.99,528.82 "
     fill="#000000"
     data-secondary="true"
     id="polygon190"
     transform="translate(-24.662547,-111.89)" />
  <path
     d="m 577.75745,436.75 -66,0.53 a 3.44,3.44 0 0 1 0.33,-2.66 c 3.96,-8.17 32.25,-19.71 32.25,-19.71 l 30.84,1.68 2.31,18 z"
     fill="#f34a12"
     data-primary="true"
     id="path192" />
  <path
     d="m 577.76745,436.74 -66,0.54 a 3.42,3.42 0 0 1 0.32,-2.67 h 65.39 z"
     opacity="0.2"
     id="path194" />
  <line
     x1="540.30743"
     y1="416.64001"
     x2="546.40747"
     y2="425.82996"
     fill="none"
     stroke="#020202"
     stroke-miterlimit="10"
     id="line196" />
  <path
     d="m 598.98745,436.71 66,-0.5 a 3.4,3.4 0 0 0 -0.32,-2.66 c -3.94,-8.16 -32.24,-19.71 -32.24,-19.71 l -30.82,1.38 -2.33,18.33 z"
     fill="#f34a12"
     data-primary="true"
     id="path198" />
  <path
     d="m 598.98745,436.71 66,-0.5 a 3.4,3.4 0 0 0 -0.32,-2.66 h -65.41 z"
     opacity="0.2"
     id="path200" />
  <line
     x1="636.43744"
     y1="415.57996"
     x2="630.34747"
     y2="424.76001"
     fill="none"
     stroke="#020202"
     stroke-miterlimit="10"
     id="line202" />
  <polygon
     points="621.13,513.07 621.13,528.61 658.06,525.73 658.06,510.98 623.31,513.07 "
     fill="#000000"
     data-secondary="true"
     id="polygon204"
     transform="translate(-24.662547,-111.89)" />
  <path
     d="m 585.97745,145.84 -2.58,12.43 a 4.29,4.29 0 0 0 0.59,3.2 14.21,14.21 0 0 0 5.07,4.66 10.79,10.79 0 0 0 13.07,-1.84 l 0.11,-0.12 a 5.58,5.58 0 0 0 0.66,-6.32 c -1,-1.87 -1.93,-4.47 -1.06,-6.58 0,0 -8.78,4.59 -15.86,-5.43 z"
     fill="#f9b499"
     id="path206" />
  <path
     d="m 584.43745,153.26 1.54,-7.42 c 0,0 10.19,6.21 15.86,5.43 0,0 -5.05,6.29 -17.4,1.99 z"
     fill="#f7a48b"
     id="path208" />
  <ellipse
     cx="596.99744"
     cy="134.22"
     rx="14.38"
     ry="18.110001"
     fill="#f9b499"
     id="ellipse210" />
  <path
     d="m 610.89745,129.53 1.6,-1.13 a 9.51,9.51 0 0 0 3.2,-3.78 c 3.3,-7.42 -7.38,-9.58 -7.38,-9.58 -2.54,-2.66 1.83,-4.42 1.83,-4.42 -2.83,-3.89 -12.08,-0.37 -12.08,-0.37 -2.13,-1.07 1.07,-4.26 1.07,-4.26 -8.53,-3.2 -16.52,8.53 -16.52,8.53 -20.77,4.27 -3.71,23.43 -3.71,23.43 a 9.67,9.67 0 0 1 5.27,-0.64 c 0,0 -0.93,-5.22 5.43,-10.32 a 6.31,6.31 0 0 0 1.32,-1.41 c 0.49,-0.74 1.55,-1.65 3.4,0.15 0,0 5,3.12 6.59,0.31 a 2.89,2.89 0 0 1 1.88,-1.35 11.07,11.07 0 0 1 6.74,0.66 28.81,28.81 0 0 1 1.36,4.18 z"
     fill="#000000"
     data-secondary="true"
     id="path212" />
  <path
     d="m 610.89745,129.53 1.6,-1.13 a 9.51,9.51 0 0 0 3.2,-3.78 c 3.3,-7.42 -7.38,-9.58 -7.38,-9.58 -2.54,-2.66 1.83,-4.42 1.83,-4.42 -2.83,-3.89 -12.08,-0.37 -12.08,-0.37 -2.13,-1.07 1.07,-4.26 1.07,-4.26 -8.53,-3.2 -16.52,8.53 -16.52,8.53 -20.77,4.27 -3.71,23.43 -3.71,23.43 a 9.67,9.67 0 0 1 5.27,-0.64 c 0,0 -0.93,-5.22 5.43,-10.32 a 6.31,6.31 0 0 0 1.32,-1.41 c 0.49,-0.74 1.55,-1.65 3.4,0.15 0,0 5,3.12 6.59,0.31 a 2.89,2.89 0 0 1 1.88,-1.35 11.07,11.07 0 0 1 6.74,0.66 28.81,28.81 0 0 1 1.36,4.18 z"
     opacity="0.2"
     id="path214" />
  <circle
     cx="582.08746"
     cy="142.21001"
     r="5.3299999"
     fill="#f9b499"
     id="circle216" />
  <polygon
     points="652.56,337.19 658.95,297.77 604.62,299.9 600.38,338.9 "
     fill="#f34a12"
     data-primary="true"
     id="polygon218"
     transform="translate(-24.662547,-111.89)" />
  <polygon
     points="652.56,337.19 658.95,297.77 604.62,299.9 600.38,338.9 "
     fill="#ffffff"
     opacity="0.2"
     id="polygon220"
     transform="translate(-24.662547,-111.89)" />
  <path
     d="m 550.12745,229.2 25.59,-2.19 4.24,-39 54.38,-2.13 -1.57,-1.56 a 1.82,1.82 0 0 0 -1.36,-0.54 l -52.46,2.1 -7.51,36.23 -21.31,4.91 z"
     fill="#f34a12"
     data-primary="true"
     id="path222" />
  <path
     d="m 550.12745,229.2 25.59,-2.19 4.24,-39 54.38,-2.13 -1.57,-1.56 a 1.82,1.82 0 0 0 -1.36,-0.54 l -52.46,2.1 -7.51,36.23 -21.31,4.91 z"
     opacity="0.2"
     id="path224" />
  <ellipse
     cx="-90.705528"
     cy="634.60608"
     rx="7.6799998"
     ry="6.3400002"
     transform="rotate(-79.18)"
     fill="#ffffff"
     opacity="0.2"
     id="ellipse226" />
  <path
     d="m 575.80745,233.85 c -2,-0.34 -3.35,-2.41 -3.71,-4.42 -0.31,-1.65 -0.12,-3.36 1.83,-3.62 0,0 1.81,-0.93 2,2.16 a 2,2 0 0 0 1.85,1.87 c 1,0 2.09,-0.57 2.47,-3 v -8.17 a 1.52,1.52 0 0 1 1.52,-1.52 v 0 a 1.52,1.52 0 0 1 1.52,1.52 v 6.88 l 2,-0.27 v -8.87 a 1.42,1.42 0 0 1 1.42,-1.42 v 0 a 1.42,1.42 0 0 1 1.43,1.42 v 8.7 l 1.41,0.16 v -7.9 a 1.69,1.69 0 0 1 1.69,-1.69 v 0 a 1.69,1.69 0 0 1 1.69,1.69 v 7.86 h 0.88 v -5.1 a 2.36,2.36 0 0 1 2.36,-2.36 v 0 a 2.35,2.35 0 0 1 2.33,2 c 0.81,4.66 1.4,15.92 -12.15,15.07 a 72.1,72.1 0 0 1 -10.54,-0.99 z"
     fill="#f9b499"
     id="path228" />
  <rect
     x="511.78748"
     y="454.04999"
     width="188.55"
     height="4.5500002"
     fill="#b3b3b3"
     id="rect272" />
  <path
     d="m 1184.2512,-27.660632 -206.89111,-5.92038 -24.80114,-0.70177 -34.01682,-0.98247 a 9.3157158,10.6924 0 0 1 -8.98222,-8.9316 L 883.32472,-221.32322 a 9.3268324,10.705159 0 0 1 10.20505,-12.44044 l 274.58013,34.18251 a 10.182811,11.687635 0 0 1 9.0045,10.07994 l 17.4975,148.583528 a 10.216161,11.725913 0 0 1 -10.3607,13.25705 z"
     fill="#f34a12"
     data-primary="true"
     id="path14"
     style="fill:#a54a1c;fill-opacity:0.347826;stroke:none;stroke-width:1.19097;stroke-opacity:0.157005" />
  <g
     aria-label="CapGos"
     id="text3715"
     style="font-size:53.3333px;line-height:1.25;font-family:'Century Gothic';-inkscape-font-specification:'Century Gothic, Normal'"
     inkscape:path-effect="#path-effect12127"
     transform="matrix(1.1578391,0,0,1.0844719,-67.286143,-139.18121)">
    <path
       d="m 324.06435,272.3462 -2.44917,4.85231 c -2.74025,-4.93982 -5.6558,-8.7517 -8.74737,-11.43036 -3.08841,-2.7238 -6.22131,-4.22029 -9.39818,-4.48379 -3.48288,-0.28889 -6.41223,1.09416 -8.78297,4.15341 -2.38172,3.02524 -3.88463,7.25412 -4.50575,12.68203 -0.60826,5.38929 -0.26767,11.53217 1.01965,18.41895 1.94038,10.3805 5.37813,19.12696 10.29846,26.23578 4.91435,7.07287 10.10774,10.73794 15.57982,11.02184 5.98742,0.31064 10.13918,-3.99843 12.47738,-12.92107 l 4.2451,5.17332 c -1.15051,5.16131 -3.04491,9.11048 -5.68671,11.85042 -2.63445,2.70839 -5.91386,3.96948 -9.84456,3.77893 -7.51144,-0.36413 -14.38233,-5.54574 -20.60725,-15.5939 -5.26336,-8.53594 -9.01697,-18.74192 -11.24419,-30.61307 -2.35193,-12.53585 -2.0657,-22.93384 0.86245,-31.15031 2.93702,-8.24297 7.80452,-12.06611 14.57562,-11.48016 4.07134,0.35232 8.02547,2.2563 11.86223,5.70308 3.81531,3.39531 7.2629,7.99805 10.34544,13.80259 z"
       id="path11585"
       inkscape:original-d="m 334.59981,294.59141 -3.02083,2.31771 q -2.5,-3.25521 -6.01562,-4.92188 -3.48959,-1.6927 -7.68229,-1.6927 -4.58333,0 -8.48958,2.21354 -3.90625,2.1875 -6.0677,5.91145 -2.13542,3.69792 -2.13542,8.33333 0,7.0052 4.79166,11.6927 4.81771,4.6875 12.13541,4.6875 8.04687,0 13.46354,-6.30208 l 3.02083,2.29166 q -2.86458,3.64584 -7.16145,5.65104 -4.27084,1.97917 -9.55729,1.97917 -10.05208,0 -15.85937,-6.69271 -4.86979,-5.65103 -4.86979,-13.64582 0,-8.41146 5.88542,-14.14062 5.91145,-5.7552 14.79166,-5.7552 5.36458,0 9.68749,2.13541 4.32291,2.10938 7.08333,5.9375 z" />
    <path
       d="m 363.93714,281.61099 10.66923,60.76838 -3.82759,-0.18902 -1.82902,-10.38346 c -0.93519,3.87944 -2.24854,6.7677 -3.94143,8.66578 -1.6763,1.9013 -3.72857,2.79371 -6.15924,2.67534 -4.33208,-0.21096 -8.60721,-3.5064 -12.82753,-9.90789 -4.22766,-6.46773 -7.16371,-14.2309 -8.79677,-23.28556 -1.60338,-8.89006 -1.39566,-16.40213 0.62505,-22.51435 2.01897,-6.10691 5.2419,-8.98827 9.65721,-8.64902 2.54242,0.19535 5.02416,1.44823 7.44504,3.75473 2.43378,2.30224 4.79703,5.65173 7.08969,10.04398 l -1.98597,-11.27445 z m -14.75395,4.86375 c -2.22002,-0.16317 -4.07716,0.7835 -5.56927,2.84181 -1.50038,2.02252 -2.46103,4.96341 -2.88074,8.82056 -0.40056,3.85767 -0.20703,7.97686 0.57975,12.35384 0.77897,4.33356 2.08397,8.50648 3.91278,12.51645 1.82482,4.00127 3.86951,7.15376 6.13308,9.45998 2.27048,2.26456 4.47457,3.45037 6.61318,3.56122 2.15327,0.11161 3.99936,-0.86031 5.54015,-2.914 1.53916,-2.05153 2.49557,-4.88711 2.8705,-8.5089 0.39363,-3.62144 0.18399,-7.74048 -0.62981,-12.36145 -1.24257,-7.05569 -3.45283,-13.0455 -6.63716,-17.9711 -3.17672,-4.9416 -6.48771,-7.54521 -9.93246,-7.79841 z"
       id="path11587"
       inkscape:original-d="m 369.91229,297.45599 v 28.33332 h -3.59375 v -4.86979 q -2.29167,2.78645 -5.15625,4.1927 -2.83854,1.40625 -6.22395,1.40625 -6.01562,0 -10.28645,-4.34895 -4.24479,-4.375 -4.24479,-10.625 0,-6.11978 4.29687,-10.46874 4.29687,-4.34896 10.33853,-4.34896 3.48959,0 6.30208,1.48438 2.83854,1.48437 4.97396,4.45312 v -5.20833 z m -14.58333,2.78646 q -3.04687,0 -5.62499,1.51041 -2.57813,1.48438 -4.11458,4.19271 -1.51042,2.70833 -1.51042,5.72916 0,2.99479 1.53646,5.72916 1.53645,2.73438 4.11458,4.27084 2.60416,1.51041 5.57291,1.51041 2.99479,0 5.67708,-1.51041 2.68229,-1.51042 4.11458,-4.08854 1.45833,-2.57813 1.45833,-5.80729 0,-4.92187 -3.2552,-8.22916 -3.22917,-3.30729 -7.96875,-3.30729 z" />
    <path
       d="m 372.80255,282.28603 3.86538,0.29432 1.94341,11.1894 c 0.79488,-4.13553 2.00418,-7.19125 3.62657,-9.16575 1.62052,-1.97227 3.6515,-2.86371 6.0903,-2.67632 4.24141,0.32589 8.38541,3.69511 12.43025,10.08669 4.02647,6.36255 6.76404,13.84328 8.22357,22.44706 1.48668,8.76384 1.28089,16.11343 -0.61558,22.0698 -1.88628,5.9257 -4.90528,8.78928 -9.06758,8.58659 -2.34931,-0.11441 -4.68359,-1.20665 -7.00321,-3.28024 -2.32516,-2.07854 -4.63303,-5.12529 -6.92397,-9.14447 l 5.58129,32.13478 -3.79314,-0.15041 z m 16.51658,7.13874 c -3.33385,-0.24504 -5.74519,1.9091 -7.22724,6.46516 -1.46458,4.56022 -1.58782,10.34921 -0.37096,17.3537 0.79696,4.58749 2.01703,8.73674 3.65857,12.44692 1.65653,3.70373 3.60791,6.66992 5.85271,8.90027 2.25774,2.2261 4.42709,3.39122 6.50909,3.49914 2.04199,0.10584 3.77272,-0.85333 5.19398,-2.87589 1.43163,-2.05613 2.35033,-4.96985 2.75719,-8.74324 0.40694,-3.77412 0.25256,-7.7641 -0.46388,-11.97337 -0.7236,-4.2513 -1.94269,-8.32307 -3.65931,-12.21741 -1.70214,-3.90132 -3.63163,-6.97009 -5.78944,-9.20393 -2.16901,-2.27588 -4.32279,-3.49421 -6.46071,-3.65135 z"
       id="path11589"
       inkscape:original-d="m 378.16749,297.45599 h 3.61979 v 5.20833 q 2.16146,-2.96875 4.97396,-4.45312 2.81249,-1.48438 6.27603,-1.48438 6.04167,0 10.33854,4.34896 4.29687,4.34896 4.29687,10.46874 0,6.25 -4.27083,10.625 -4.24479,4.34895 -10.26041,4.34895 -3.38541,0 -6.22395,-1.40625 -2.83854,-1.40625 -5.13021,-4.1927 v 15.23436 h -3.61979 z m 14.58333,2.78646 q -4.73959,0 -7.99479,3.30729 -3.22917,3.30729 -3.22917,8.22916 0,3.22916 1.43229,5.80729 1.45834,2.57812 4.14063,4.08854 2.70833,1.51041 5.70312,1.51041 2.94271,0 5.52083,-1.51041 2.60416,-1.53646 4.14062,-4.27084 1.53646,-2.73437 1.53646,-5.72916 0,-3.02083 -1.53646,-5.72916 -1.51041,-2.70833 -4.08854,-4.19271 -2.57812,-1.51041 -5.62499,-1.51041 z" />
    <path
       d="m 447.93902,280.72176 -2.01354,5.6314 c -2.85796,-4.55056 -5.75927,-8.06061 -8.70357,-10.5245 -2.9417,-2.50645 -5.6405,-3.86408 -8.0938,-4.06751 -3.0611,-0.25382 -5.72921,1.06232 -8.00066,3.95245 -2.25729,2.8962 -3.70579,6.96496 -4.34272,12.20196 -0.64294,5.19926 -0.46605,10.76234 0.52923,16.68209 1.01802,6.05496 2.77563,11.85704 5.26845,17.40166 2.47909,5.49134 5.35911,9.86144 8.63723,13.11446 3.2608,3.20581 6.51893,4.88929 9.7755,5.05832 3.9401,0.20452 6.88584,-1.90914 8.84628,-6.33671 1.95826,-4.42264 2.59061,-10.26486 1.8978,-17.53989 l -12.20352,-0.77128 -1.26899,-7.68854 16.49297,1.10001 c 1.95008,12.20316 1.78222,21.77249 -0.49998,28.74673 -2.27317,6.94665 -6.30775,10.28219 -12.12531,10.00017 -7.10632,-0.3445 -13.60256,-5.62142 -19.48403,-15.88183 -4.55143,-7.94636 -7.70007,-17.05465 -9.43177,-27.31696 -1.29147,-7.65347 -1.55448,-14.72209 -0.7866,-21.19397 0.76809,-6.4737 2.47879,-11.43656 5.12822,-14.8824 2.63837,-3.47625 6.01009,-5.03418 10.10729,-4.67963 3.30558,0.28606 6.61219,1.79749 9.91887,4.52796 3.28949,2.6848 6.74134,6.8437 10.35265,12.46601 z"
       id="path11591"
       inkscape:original-d="m 452.04766,293.91433 -2.96875,2.81249 q -3.20312,-3.15104 -7.03125,-4.76562 -3.80208,-1.64062 -7.42187,-1.64062 -4.5052,0 -8.59374,2.21354 -4.0625,2.21354 -6.30208,6.01562 -2.23958,3.77604 -2.23958,7.99479 0,4.32291 2.3177,8.22916 2.31771,3.8802 6.40625,6.11979 4.08854,2.21354 8.95833,2.21354 5.91145,0 9.99999,-3.33333 4.08854,-3.33334 4.84375,-8.64583 h -12.21354 v -3.69792 h 16.51041 q -0.0521,8.88021 -5.28646,14.11458 -5.20833,5.20833 -13.95832,5.20833 -10.62499,0 -16.82291,-7.23958 -4.76562,-5.57291 -4.76562,-12.89062 0,-5.4427 2.73437,-10.1302 2.73438,-4.6875 7.5,-7.3177 4.76562,-2.65625 10.78124,-2.65625 4.86979,0 9.16666,1.77083 4.29688,1.74479 8.38542,5.625 z" />
    <path
       d="m 471.00053,288.2798 c 4.25401,0.32685 8.28005,3.83722 12.07777,10.50925 3.44056,6.05853 5.78653,13.08456 7.04624,21.08231 1.26221,8.01358 1.04479,14.93611 -0.6508,20.78508 -1.68563,5.81872 -4.60415,8.62847 -8.76687,8.42575 -4.19584,-0.20433 -8.12211,-3.36849 -11.77829,-9.51181 -3.66078,-6.20455 -6.15313,-13.37132 -7.46754,-21.49506 -1.30607,-8.07221 -1.15573,-14.99939 0.45268,-20.76419 1.76585,-6.35172 4.79879,-9.3608 9.08681,-9.03133 z m 1.17182,7.34053 c -2.95405,-0.21698 -5.12856,1.90277 -6.51801,6.36168 -1.39029,4.46157 -1.55903,9.95976 -0.50716,16.48292 0.67715,4.19938 1.79211,8.13778 3.34319,11.81367 1.548,3.66856 3.30038,6.53499 5.25632,8.60147 1.94614,2.02684 3.89295,3.08932 5.84087,3.19053 1.94436,0.10102 3.57271,-0.77236 4.88678,-2.6187 1.30728,-1.87974 2.15197,-4.58393 2.53506,-8.11438 0.38315,-3.53114 0.2466,-7.37334 -0.41032,-11.53 -1.02042,-6.45671 -2.9471,-12.04267 -5.78569,-16.7603 -2.83129,-4.73229 -5.71201,-7.21175 -8.64104,-7.42689 z"
       id="path11593"
       inkscape:original-d="m 474.41743,296.72682 q 6.53645,0 10.83333,4.73958 3.90624,4.32292 3.90624,10.23437 0,5.9375 -4.14062,10.39062 -4.11458,4.42708 -10.59895,4.42708 -6.51041,0 -10.65104,-4.42708 -4.11458,-4.45312 -4.11458,-10.39062 0,-5.88541 3.90625,-10.20832 4.29687,-4.76563 10.85937,-4.76563 z m 0,3.56771 q -4.53125,0 -7.78645,3.35937 -3.25521,3.35938 -3.25521,8.125 0,3.07291 1.48437,5.72916 1.48438,2.65625 4.01042,4.11458 2.52604,1.43229 5.54687,1.43229 3.02083,0 5.54687,-1.43229 2.52604,-1.45833 4.01042,-4.11458 1.48437,-2.65625 1.48437,-5.72916 0,-4.76562 -3.28125,-8.125 -3.2552,-3.35937 -7.76041,-3.35937 z" />
    <path
       d="m 506.61054,298.67029 -1.45979,4.73431 c -2.43564,-3.95948 -4.53888,-6.00851 -6.30665,-6.13861 -1.12497,-0.0828 -1.97,0.63925 -2.5343,2.16656 -0.54789,1.52894 -0.65667,3.35085 -0.32639,5.46439 0.29158,1.86584 0.90031,3.66526 1.82554,5.39758 0.92966,1.76549 2.63049,3.87479 5.0983,6.32446 3.00172,2.9963 5.15976,5.82753 6.47985,8.49772 1.30697,2.69959 2.21476,5.69876 2.7246,8.99838 0.71829,4.64863 0.56184,8.54085 -0.46897,11.68269 -1.03131,3.14335 -2.69639,4.65962 -4.99863,4.5475 -1.53762,-0.0749 -3.12311,-0.85861 -4.75696,-2.35311 -1.62028,-1.49633 -3.08921,-3.52323 -4.40627,-6.08186 l 1.3562,-5.11838 c 2.4217,4.31476 4.6146,6.51855 6.58127,6.62073 1.37449,0.0714 2.39741,-0.80513 3.06994,-2.62908 0.67229,-1.82331 0.81184,-4.00251 0.41859,-6.53952 -0.32345,-2.08666 -0.93082,-3.96696 -1.82271,-5.64129 -0.88745,-1.64131 -2.64485,-3.75201 -5.27712,-6.33633 -2.83771,-2.81245 -4.90107,-5.54847 -6.18502,-8.20472 -1.28604,-2.66054 -2.19204,-5.66534 -2.71685,-9.01371 -0.68582,-4.3756 -0.55722,-7.96322 0.38615,-10.75758 0.95956,-2.79188 2.50986,-4.10507 4.64799,-3.94079 2.48078,0.19061 5.37298,2.96932 8.67123,8.32066 z"
       id="path11595"
       inkscape:original-d="m 510.17262,300.55495 -2.34375,2.42187 q -2.91666,-2.83854 -5.70312,-2.83854 -1.77083,0 -3.04687,1.17187 -1.25,1.17188 -1.25,2.73438 0,1.38021 1.04167,2.6302 1.04166,1.27605 4.37499,2.99479 4.0625,2.10938 5.52083,4.0625 1.43229,1.97917 1.43229,4.45312 0,3.48959 -2.44791,5.91146 -2.44792,2.42187 -6.11979,2.42187 -2.44791,0 -4.6875,-1.0677 -2.21354,-1.06771 -3.67187,-2.94271 l 2.29167,-2.60417 q 2.78645,3.15104 5.91145,3.15104 2.1875,0 3.72396,-1.40625 1.53645,-1.40625 1.53645,-3.30729 0,-1.56249 -1.01562,-2.78645 -1.01562,-1.19792 -4.58333,-3.02083 -3.82812,-1.97917 -5.20833,-3.90625 -1.38021,-1.92708 -1.38021,-4.40104 0,-3.22917 2.1875,-5.36458 2.21354,-2.13542 5.57291,-2.13542 3.90625,0 7.86458,3.82813 z" />
  </g>
  <path
     d="m 204.46745,198.11 -4.27,9.59 c 0,0 11.72,-2.13 19.18,5.33 l 1.39,-9 -12,-8 z"
     fill="#f7a48b"
     id="path108" />
  <polygon
     points="332.87,367.89 306.89,422.94 247.23,412.36 247.23,416.55 309.55,428.07 336.94,367.89 "
     fill="#f34a12"
     data-primary="true"
     id="polygon110"
     transform="translate(-24.662547,-111.89)" />
  <polygon
     points="332.87,367.89 306.89,422.94 247.23,412.36 247.23,416.55 309.55,428.07 336.94,367.89 "
     fill="#ffffff"
     opacity="0.2"
     id="polygon112"
     transform="translate(-24.662547,-111.89)" />
  <polygon
     points="306.89,422.94 332.87,367.89 292.09,370.36 273.69,417.05 "
     fill="#e6e6e6"
     id="polygon114"
     transform="translate(-24.662547,-111.89)"
     style="stroke:#000000;stroke-opacity:1" />
  <rect
     x="210.85745"
     y="352.59"
     width="8.5200005"
     height="20.24"
     fill="#e6e6e6"
     id="rect122" />
  <rect
     x="243.87746"
     y="352.59"
     width="7.46"
     height="20.24"
     fill="#e6e6e6"
     id="rect124" />
  <rect
     x="199.13745"
     y="378.19998"
     width="8.5200005"
     height="20.24"
     fill="#e6e6e6"
     id="rect132" />
  <rect
     x="232.15746"
     y="378.19998"
     width="7.46"
     height="20.24"
     fill="#e6e6e6"
     id="rect134" />
  <rect
     x="192.74745"
     y="432.01001"
     width="8.5200005"
     height="20.24"
     fill="#e6e6e6"
     id="rect142" />
  <rect
     x="225.76744"
     y="432.01001"
     width="7.46"
     height="20.24"
     fill="#e6e6e6"
     id="rect144" />
  <rect
     x="213.39745"
     y="403.76001"
     width="7.6599998"
     height="22.35"
     fill="#e6e6e6"
     id="rect180" />
  <rect
     x="243.08745"
     y="403.76001"
     width="6.6999998"
     height="22.35"
     fill="#e6e6e6"
     id="rect182" />
  <ellipse
     cx="143.31781"
     cy="252.98788"
     rx="16.120001"
     ry="20.110001"
     transform="rotate(-19.87)"
     fill="#f9b499"
     id="ellipse230" />
  <path
     d="m 202.23745,203.11 c 0,0 -34,-27.38 4.36,-38 0,0 7.45,-17 30.89,4.26 l -3.59,0.77 c 0,0 18.68,9.73 3.15,17.8 a 36.79,36.79 0 0 0 -2.35,-7 c 0,0 -4.17,7.77 -10,3.25 a 9.1,9.1 0 0 0 -3.78,-1.85 c -2.09,-0.4 -4.8,-0.19 -5.88,3.07 a 7,7 0 0 0 -0.17,3.59 c 0.31,1.6 0.26,4.46 -4.23,3.75 l -6.17,5.36 z"
     fill="#000000"
     data-secondary="true"
     id="path232" />
  <path
     d="m 202.23745,203.11 c 0,0 -34,-27.38 4.36,-38 0,0 7.45,-17 30.89,4.26 l -3.59,0.77 c 0,0 18.68,9.73 3.15,17.8 a 36.79,36.79 0 0 0 -2.35,-7 c 0,0 -4.17,7.77 -10,3.25 a 9.1,9.1 0 0 0 -3.78,-1.85 c -2.09,-0.4 -4.8,-0.19 -5.88,3.07 a 7,7 0 0 0 -0.17,3.59 c 0.31,1.6 0.26,4.46 -4.23,3.75 l -6.17,5.36 z"
     opacity="0.2"
     id="path234" />
  <circle
     cx="205.13745"
     cy="194.73"
     r="5.8600001"
     fill="#f9b499"
     id="circle236" />
  <path
     d="m 200.19745,207.72 a 5.71,5.71 0 0 0 -6.39,3.19 c 0,0 -15.43,-2.24 -25.82,20.72 0,0 -12,23.72 -14.38,67 l 69,6 v -26.52 c 0,0 5.87,14.83 17.32,15.36 l 47.74,-3.73 -3.37,-21.73 -32.85,0.3 c 0,0 -9.66,-49.94 -27.77,-49.94 a 5.61,5.61 0 0 0 -4.26,-5.32 c 0,0 -5.37,-7.46 -19.22,-5.33 z"
     fill="#f34a12"
     data-primary="true"
     id="path238" />
  <path
     d="m 193.48745,302.11 22.55,-46.12 6.53,22.12 v 26.55 c 0,0 -30.47,-4.01 -29.08,-2.55 z"
     opacity="0.2"
     id="path240" />
  <path
     d="m 284.56745,269.99 c 0,0 6.18,-8.59 14.68,-8.23 a 1.18,1.18 0 0 1 0.9,1.88 40.62,40.62 0 0 0 -3.46,5.59 0.29,0.29 0 0 0 0.37,0.4 c 2.92,-1.35 13.55,-6 18.65,-3.76 0,0 1.67,1.5 -12.18,5.76 0,0 12.56,-2.13 13.2,-0.53 0,0 1.95,1.47 -8.29,4.73 0,0 6.88,-1.13 8.44,0 0,0 3.23,1.81 -7.72,4.67 0,0 6,-0.12 5.52,1.37 0,0 0,4 -27.44,5.39 z"
     fill="#f9b499"
     id="path242" />
  <path
     d="m 292.87745,348.33 -12.88,78.83 h -40.38 l 9.94,-75 h -68.53 c -33,-14.27 -23.09,-53.16 -23.09,-53.16 l 21.18,1.84 43.45,3.8 42.61,8.52 c 39.42,5.34 27.7,35.17 27.7,35.17 z"
     fill="#000000"
     data-secondary="true"
     id="path244" />
  <path
     d="m 238.08745,352.18 h -57.06 c -33,-14.27 -23.09,-53.16 -23.09,-53.16 l 21.18,1.84 c 0,0 -3.27,45.57 58.97,51.32 z"
     opacity="0.2"
     id="path246" />
  <g
     opacity="0.2"
     id="g254"
     transform="translate(-24.662547,-111.89)">
    <path
       d="m 212.5,415.29 -0.49,-0.16 a 10.46,10.46 0 0 1 0.71,-1.7 l 0.45,0.25 a 9.66,9.66 0 0 0 -0.67,1.61 z"
       id="path248" />
    <path
       d="m 280,533.68 c 0,-0.8 0,-1.65 0,-2.53 V 530 h 0.52 c 0,0.38 0,0.75 0,1.12 0,0.87 0,1.72 0,2.52 z m 0.57,-7.29 h -0.51 c 0,-1.16 0.1,-2.39 0.17,-3.65 h 0.51 c -0.05,1.26 -0.11,2.5 -0.15,3.65 z m 0.39,-7.27 h -0.51 c 0.08,-1.19 0.18,-2.4 0.28,-3.64 h 0.51 c -0.08,1.24 -0.17,2.45 -0.24,3.64 z m 0.59,-7.26 -0.51,-0.05 c 0.11,-1.2 0.23,-2.41 0.35,-3.63 l 0.51,0.05 c -0.1,1.22 -0.22,2.43 -0.33,3.63 z m 0.73,-7.26 -0.51,-0.05 c 0.13,-1.21 0.27,-2.42 0.4,-3.63 l 0.51,0.06 c -0.11,1.21 -0.25,2.42 -0.38,3.62 z m 0.83,-7.24 -0.51,-0.06 c 0.15,-1.21 0.29,-2.42 0.45,-3.62 l 0.5,0.06 c -0.13,1.2 -0.28,2.41 -0.42,3.62 z m 0.91,-7.23 -0.51,-0.07 0.48,-3.62 0.51,0.07 c -0.14,1.2 -0.3,2.4 -0.5,3.62 z m 1,-7.23 -0.5,-0.07 c 0.17,-1.22 0.34,-2.43 0.51,-3.61 l 0.5,0.07 c -0.18,1.19 -0.35,2.39 -0.53,3.61 z m 1,-7.22 -0.51,-0.07 c 0.18,-1.23 0.36,-2.44 0.53,-3.61 l 0.51,0.08 c -0.14,1.17 -0.32,2.37 -0.5,3.6 z m 1.08,-7.21 -0.51,-0.08 c 0.2,-1.25 0.38,-2.46 0.56,-3.6 l 0.51,0.08 c -0.15,1.13 -0.34,2.35 -0.53,3.6 z m 1.13,-7.2 -0.5,-0.09 c 0.21,-1.31 0.4,-2.52 0.58,-3.6 l 0.51,0.09 c -0.15,1.07 -0.34,2.33 -0.56,3.6 z m -0.2,-7.1 a 5.06,5.06 0 0 0 -2.37,-2.44 l 0.22,-0.46 a 5.53,5.53 0 0 1 2.61,2.68 z m -5.81,-3.17 -3.62,-0.49 0.08,-0.51 c 1.17,0.17 2.38,0.33 3.6,0.49 z m -7.22,-1 -3.61,-0.54 0.08,-0.51 3.6,0.54 z m -7.21,-1.11 -3.59,-0.6 0.09,-0.51 3.59,0.6 z m -7.18,-1.23 -3.61,-0.66 0.1,-0.51 3.58,0.66 z m -7.16,-1.35 -3.57,-0.74 0.1,-0.5 c 1.12,0.24 2.31,0.48 3.57,0.73 z m -7.14,-1.51 -3.55,-0.82 0.12,-0.5 3.55,0.82 z m -7.09,-1.71 c -1.79,-0.46 -2.7,-0.74 -2.71,-0.74 l -0.81,-0.23 0.15,-0.5 0.8,0.23 c 0,0 0.92,0.28 2.7,0.75 z m -7,-2.07 c -1.19,-0.41 -2.34,-0.84 -3.42,-1.28 l 0.19,-0.48 c 1.08,0.44 2.22,0.87 3.4,1.27 z m -6.76,-2.77 c -1.14,-0.55 -2.22,-1.14 -3.22,-1.74 l 0.26,-0.44 c 1,0.59 2.06,1.17 3.18,1.72 z m -6.26,-3.79 a 24.43,24.43 0 0 1 -2.77,-2.41 l 0.36,-0.36 a 24.39,24.39 0 0 0 2.72,2.36 z m -5.13,-5.23 a 16.79,16.79 0 0 1 -1.76,-3.24 l 0.47,-0.2 a 16.4,16.4 0 0 0 1.71,3.15 z m -2.73,-6.81 a 14.88,14.88 0 0 1 -0.16,-2.22 c 0,-0.48 0,-1 0.06,-1.47 l 0.52,0.05 a 13.5,13.5 0 0 0 -0.07,1.42 15.43,15.43 0 0 0 0.15,2.15 z"
       id="path250" />
    <path
       d="m 280.42,539.08 c -0.08,-0.55 -0.15,-1.15 -0.2,-1.79 h 0.51 c 0.06,0.63 0.12,1.23 0.2,1.77 z"
       id="path252" />
  </g>
  <path
     d="m 248.10745,363.11 c 0,0 -2.26,53.72 31.17,63.86 a 0.11,0.11 0 0 1 0,0.21 h -39.66 z"
     opacity="0.2"
     id="path256" />
  <path
     d="m 246.33745,427.16 -2.42,23.43 h 72.82 c 0,0 6,-7.45 -20.66,-13.85 0,0 -13.55,-5.32 -21.16,-9.58 z"
     fill="#f34a12"
     data-primary="true"
     id="path258" />
  <rect
     x="241.74745"
     y="450.58997"
     width="75.629997"
     height="8.5200005"
     fill="#000000"
     data-secondary="true"
     id="rect260" />
</svg>
