<?xml version="1.0" encoding="UTF-8" standalone="no"?>
<svg
   data-name="Layer 1"
   width="841.59021"
   height="589"
   viewBox="0 0 841.59024 589"
   version="1.1"
   id="svg94"
   sodipodi:docname="undraw_all_the_data_re_hh4w.svg"
   inkscape:version="1.1 (c68e22c387, 2021-05-23)"
   xmlns:inkscape="http://www.inkscape.org/namespaces/inkscape"
   xmlns:sodipodi="http://sodipodi.sourceforge.net/DTD/sodipodi-0.dtd"
   xmlns="http://www.w3.org/2000/svg"
   xmlns:svg="http://www.w3.org/2000/svg">
  <defs
     id="defs98" />
  <sodipodi:namedview
     id="namedview96"
     pagecolor="#ffffff"
     bordercolor="#666666"
     borderopacity="1.0"
     inkscape:pageshadow="2"
     inkscape:pageopacity="0.0"
     inkscape:pagecheckerboard="0"
     showgrid="false"
     inkscape:zoom="0.7410866"
     inkscape:cx="466.88201"
     inkscape:cy="176.09278"
     inkscape:window-width="2560"
     inkscape:window-height="1361"
     inkscape:window-x="-9"
     inkscape:window-y="-9"
     inkscape:window-maximized="1"
     inkscape:current-layer="svg94" />
  <g
     id="g912">
    <polygon
       points="743.208,574.193 729.128,574.192 722.43,519.885 743.21,519.886 "
       fill="#ffb8b8"
       id="polygon2" />
    <path
       d="m 926.00334,743.34094 -45.39888,-0.002 V 742.765 A 17.67147,17.67147 0 0 1 898.275,725.0948 h 10e-4 l 27.72809,0.001 z"
       transform="translate(-179.20488,-155.5)"
       fill="#2f2e41"
       id="path4" />
    <polygon
       points="805.349,539.578 796.21,550.289 750.55,520.133 764.039,504.326 "
       fill="#ffb8b8"
       id="polygon6" />
    <path
       d="m 997.26727,701.20576 -29.46919,34.5344 -0.43682,-0.37273 a 17.67143,17.67143 0 0 1 -1.97223,-24.91172 l 7.3e-4,-8.6e-4 17.99885,-21.09237 z"
       transform="translate(-179.20488,-155.5)"
       fill="#2f2e41"
       id="path8" />
    <polygon
       points="675.673,216.848 643.236,307.117 638.853,347.537 816.024,345.01 738.759,219.114 "
       fill="#2f2e41"
       id="polygon10" />
    <polygon
       points="675.673,216.848 643.236,307.117 638.853,347.537 816.024,345.01 738.759,219.114 "
       opacity="0.28"
       id="polygon12" />
    <path
       d="m 857.27966,469.55618 -6.25477,36.98405 v 33.05813 l 50.43011,16.46119 c 0,0 -5.90374,128.40409 1.96683,136.58258 l -0.19337,19.74247 22,1 0.17941,-13.89387 9.32713,-103.85573 5.49349,-76.25041 -8.90664,-57.8109 z"
       transform="translate(-179.20488,-155.5)"
       fill="#2f2e41"
       id="path14" />
    <path
       d="m 896.35029,501.39223 -45.3254,38.20613 c 0,0 -2.6527,68.93184 4.08383,77.01567 5.786,6.94318 81.03774,66.83187 81.03774,66.83187 0,0 13.37442,12.26792 20.86947,12.46353 7.49505,0.19561 16.21255,-15.52483 16.21255,-15.52483 l -17.35829,-13.18827 c 0,0 -44.96919,-41.97592 -58.32135,-58.66613 -5.38922,-6.73653 -5.38922,-7.41018 -5.38922,-7.41018 l 1.84061,-28.01427 18.52508,-51.99127 z"
       transform="translate(-179.20488,-155.5)"
       fill="#2f2e41"
       id="path16" />
    <polygon
       points="591.024,191.249 625.277,198.914 633.624,194.823 668.419,208.08 669.024,162.885 649.482,161.079 631.756,164.033 594.222,164.045 "
       fill="#2f2e41"
       id="polygon18" />
    <path
       d="m 871.56928,318.29985 c 0,0 41.47357,-3.88605 50.90471,3.52413 9.43114,7.41018 29.64072,154.26646 29.64072,154.26646 l -80.54543,4.54583 -14.4396,-9.93505 4.0988,-73.31662 z"
       transform="translate(-179.20488,-155.5)"
       fill="#cccccc"
       id="path20" />
    <polygon
       points="705.024,161.885 659.275,162.889 616.622,355.62 650.305,363.031 "
       fill="#2f2e41"
       id="polygon22" />
    <polygon
       points="763.725,350.905 722.386,248.675 737.546,160.256 773.583,171.535 771.536,250.722 816.024,345.396 "
       fill="#2f2e41"
       id="polygon24" />
    <path
       d="m 976.17566,510.51266 a 11.51329,11.51329 0 0 0 -0.43624,-17.64888 l 7.24981,-25.2913 -14.29491,-8.15427 -9.73651,35.86 a 11.5757,11.5757 0 0 0 17.21785,15.23444 z"
       transform="translate(-179.20488,-155.5)"
       fill="#ffb8b8"
       id="path26" />
    <path
       d="m 931.90513,329.23416 21.32335,-1.84956 c 0,0 19.1431,20.02168 23.4982,35.52394 4.3551,15.50226 9.07066,64.00526 9.07066,64.00526 l -1.96706,70.95509 -24.92515,-16.92619 -1.67172,-61.03065 z"
       transform="translate(-179.20488,-155.5)"
       fill="#2f2e41"
       id="path28" />
    <circle
       cx="900.23883"
       cy="279.07181"
       r="30.226601"
       transform="rotate(-61.33681,679.52588,352.41924)"
       fill="#ffb8b8"
       id="circle30" />
    <path
       d="m 896.86876,266.45286 c -3.96584,-0.91637 -8.08269,0.0991 -12.09946,0.75737 -4.01677,0.65828 -8.44336,0.87528 -11.84109,-1.36586 -2.50928,-1.65512 -4.052,-4.39327 -5.5007,-7.02712 a 8.08807,8.08807 0 0 1 -1.18324,-3.10061 c -0.17057,-1.94791 1.06856,-3.72514 2.3844,-5.17153 6.112,-6.71846 15.04376,-10.39563 24.051,-11.56369 a 41.55433,41.55433 0 0 1 21.96117,2.68176 c 6.83748,2.99893 12.71514,8.49079 15.40335,15.45628 a 43.8945,43.8945 0 0 1 2.30051,11.03757 32.97038,32.97038 0 0 1 0.15507,8.35909 35.83247,35.83247 0 0 1 -1.61995,6.056 l -4.453,13.446 a 8.85863,8.85863 0 0 1 -1.751,3.466 3.02927,3.02927 0 0 1 -3.54735,0.77718 11.03957,11.03957 0 0 0 0.15962,-4.46052 3.76376,3.76376 0 0 0 -2.96974,-2.99493 c -1.64132,-0.17418 -3.04344,1.09814 -4.60042,1.64611 a 5.65951,5.65951 0 0 1 -7.03462,-3.81764 q -0.0639,-0.21546 -0.11053,-0.43552 c -0.24579,-1.53722 0.1669,-3.18288 -0.41576,-4.62647 -0.68269,-1.69135 -2.493,-2.57757 -3.853,-3.79294 a 8.86863,8.86863 0 0 1 -2.4334,-9.21678 c 0.36409,-1.119 1.39236,-1.62773 1.18665,-2.91325 -0.26993,-1.68649 -2.7564,-2.8656 -4.18851,-3.1965 z"
       transform="translate(-179.20488,-155.5)"
       fill="#2f2e41"
       id="path32" />
    <path
       d="M 560.81664,394.22516 H 179.20488 V 155.5 h 381.61176 z"
       transform="translate(-179.20488,-155.5)"
       fill="#ffffff"
       id="path34" />
    <path
       d="M 560.81664,394.22516 H 179.20488 V 155.5 H 560.81664 Z M 180.9474,392.48264 H 559.07412 V 157.24252 H 180.9474 Z"
       transform="translate(-179.20488,-155.5)"
       fill="#3f3d56"
       id="path36" />
    <path
       d="M 514.20424,724.86865 H 296.38931 V 486.14349 h 217.81493 z"
       transform="translate(-179.20488,-155.5)"
       fill="#ffffff"
       id="path38" />
    <path
       d="M 514.20424,724.86865 H 296.38931 V 486.14349 H 514.20424 Z M 298.13183,723.12613 H 512.46172 V 487.886 H 298.13183 Z"
       transform="translate(-179.20488,-155.5)"
       fill="#3f3d56"
       id="path40" />
    <rect
       x="260.07104"
       y="546.82166"
       width="45.305511"
       height="1.8367"
       fill="#3f3d56"
       id="rect42" />
    <rect
       x="260.07104"
       y="552.33173"
       width="45.305511"
       height="1.8367"
       fill="#3f3d56"
       id="rect44" />
    <rect
       x="260.07104"
       y="557.84192"
       width="45.305511"
       height="1.8367"
       fill="#3f3d56"
       id="rect46" />
    <path
       d="m 405.2968,528.835 v 19.16772 a 57.50315,57.50315 0 0 1 40.66088,98.164 l 13.55361,13.55361 A 76.67086,76.67086 0 0 0 405.2968,528.835 Z"
       transform="translate(-179.20488,-155.5)"
       fill="#e6e6e6"
       id="path48" />
    <path
       d="m 459.51129,659.72034 -13.55361,-13.55361 a 57.48875,57.48875 0 0 1 -75.4511,5.11572 l -11.60149,15.26513 a 76.66891,76.66891 0 0 0 100.6062,-6.82724 z"
       transform="translate(-179.20488,-155.5)"
       fill="#575a89"
       id="path50" />
    <path
       d="M 347.79366,605.50585 A 57.50312,57.50312 0 0 1 405.2968,548.00271 V 528.835 a 76.6701,76.6701 0 0 0 -46.39171,137.71259 l 11.60152,-15.26513 a 57.403,57.403 0 0 1 -22.71295,-45.77661 z"
       transform="translate(-179.20488,-155.5)"
       fill="#6c63ff"
       id="path52" />
    <path
       d="M 657.36546,421.2545 H 439.55053 V 182.52891 h 217.81493 z"
       fill="#ffffff"
       id="path54" />
    <path
       d="M 836.57034,576.7545 H 618.75541 V 338.02891 H 836.57034 Z M 620.49793,575.012 H 834.82782 V 339.77143 H 620.49793 Z"
       transform="translate(-179.20488,-155.5)"
       fill="#3f3d56"
       id="path56" />
    <rect
       x="470.91589"
       y="328.46512"
       width="39.206692"
       height="62.730701"
       fill="#575a89"
       id="rect58" />
    <rect
       x="527.54779"
       y="285.77338"
       width="39.206692"
       height="105.42243"
       fill="#e6e6e6"
       id="rect60" />
    <rect
       x="584.17969"
       y="236.11159"
       width="39.206692"
       height="155.08423"
       fill="#6c63ff"
       id="rect62" />
    <polygon
       points="462.203,391.196 636.455,391.196 636.455,392.939 460.461,392.939 460.461,210.845 462.203,210.845 "
       fill="#3f3d56"
       id="polygon64" />
    <circle
       cx="594.02362"
       cy="176.8846"
       r="12"
       fill="#ffb8b8"
       id="circle66" />
    <path
       d="M 1019.7951,744.5 H 832.79512 a 1,1 0 0 1 0,-2 h 186.99998 a 1,1 0 0 1 0,2 z"
       transform="translate(-179.20488,-155.5)"
       fill="#cccccc"
       id="path68" />
    <path
       d="M 507.81987,344.2986 H 232.20165 a 0.86259,0.86259 0 0 1 -0.86256,-0.86255 V 211.33223 a 0.86256,0.86256 0 0 1 1.72512,0 v 131.24126 h 274.75566 a 0.86256,0.86256 0 1 1 0,1.72511 z"
       transform="translate(-179.20488,-155.5)"
       fill="#3f3d56"
       id="path70" />
    <path
       d="m 291.08926,334.81045 h -25.06855 a 2.56337,2.56337 0 0 1 -2.56052,-2.5603 V 297.693 a 2.56337,2.56337 0 0 1 2.56052,-2.5603 h 25.06855 a 2.56337,2.56337 0 0 1 2.56051,2.5603 v 34.55712 a 2.56337,2.56337 0 0 1 -2.56051,2.56033 z"
       transform="translate(-179.20488,-155.5)"
       fill="#6c63ff"
       id="path72" />
    <path
       d="m 336.8049,334.81045 h -25.06855 a 2.56336,2.56336 0 0 1 -2.56051,-2.5603 v -67.33438 a 2.56337,2.56337 0 0 1 2.56051,-2.5603 h 25.06855 a 2.56337,2.56337 0 0 1 2.56051,2.5603 v 67.33438 a 2.56336,2.56336 0 0 1 -2.56051,2.5603 z"
       transform="translate(-179.20488,-155.5)"
       fill="#6c63ff"
       id="path74" />
    <path
       d="M 382.52054,334.81045 H 357.452 a 2.56337,2.56337 0 0 1 -2.56051,-2.5603 V 297.693 a 2.56337,2.56337 0 0 1 2.56051,-2.5603 h 25.06855 a 2.56337,2.56337 0 0 1 2.56052,2.5603 v 34.55712 a 2.56337,2.56337 0 0 1 -2.56053,2.56033 z"
       transform="translate(-179.20488,-155.5)"
       fill="#6c63ff"
       id="path76" />
    <path
       d="m 428.23619,334.81045 h -25.06856 a 2.50734,2.50734 0 0 1 -2.56051,-2.44431 V 251.8614 a 2.50734,2.50734 0 0 1 2.56051,-2.44432 h 25.06856 a 2.50734,2.50734 0 0 1 2.56051,2.44432 v 80.50474 a 2.50734,2.50734 0 0 1 -2.56051,2.44431 z"
       transform="translate(-179.20488,-155.5)"
       fill="#6c63ff"
       id="path78" />
    <path
       d="m 473.95183,334.81045 h -25.06855 a 2.56336,2.56336 0 0 1 -2.56051,-2.5603 V 228.68828 a 2.56337,2.56337 0 0 1 2.56051,-2.5603 h 25.06855 a 2.56337,2.56337 0 0 1 2.56051,2.5603 v 103.56187 a 2.56337,2.56337 0 0 1 -2.56051,2.5603 z"
       transform="translate(-179.20488,-155.5)"
       fill="#6c63ff"
       id="path80" />
    <circle
       cx="99.350098"
       cy="124.10666"
       r="5.1753602"
       fill="#3f3d56"
       id="circle82" />
    <circle
       cx="145.06573"
       cy="90.46685"
       r="5.1753602"
       fill="#3f3d56"
       id="circle84" />
    <circle
       cx="190.78139"
       cy="124.10666"
       r="5.1753602"
       fill="#3f3d56"
       id="circle86" />
    <circle
       cx="236.49702"
       cy="74.078217"
       r="5.1753602"
       fill="#3f3d56"
       id="circle88" />
    <circle
       cx="282.21268"
       cy="55.10191"
       r="5.1753602"
       fill="#3f3d56"
       id="circle90" />
    <polygon
       points="145.066,88.787 190.672,122.947 235.993,73.352 236.175,73.278 281.89,54.858 282.535,56.459 237.001,74.805 190.89,125.266 145.066,90.943 99.867,124.797 98.833,123.416 "
       fill="#3f3d56"
       id="polygon92" />
  </g>
</svg>
